G04*
G04 #@! TF.GenerationSoftware,Altium Limited,Altium Designer,23.3.1 (30)*
G04*
G04 Layer_Physical_Order=1*
G04 Layer_Color=255*
%FSLAX44Y44*%
%MOMM*%
G71*
G04*
G04 #@! TF.SameCoordinates,11343DF2-346A-4928-BBB7-4E1EB81EA5CC*
G04*
G04*
G04 #@! TF.FilePolarity,Positive*
G04*
G01*
G75*
G04:AMPARAMS|DCode=15|XSize=1mm|YSize=2.1mm|CornerRadius=0.5mm|HoleSize=0mm|Usage=FLASHONLY|Rotation=90.000|XOffset=0mm|YOffset=0mm|HoleType=Round|Shape=RoundedRectangle|*
%AMROUNDEDRECTD15*
21,1,1.0000,1.1000,0,0,90.0*
21,1,0.0000,2.1000,0,0,90.0*
1,1,1.0000,0.5500,0.0000*
1,1,1.0000,0.5500,0.0000*
1,1,1.0000,-0.5500,0.0000*
1,1,1.0000,-0.5500,0.0000*
%
%ADD15ROUNDEDRECTD15*%
G04:AMPARAMS|DCode=16|XSize=1mm|YSize=1.8mm|CornerRadius=0.5mm|HoleSize=0mm|Usage=FLASHONLY|Rotation=90.000|XOffset=0mm|YOffset=0mm|HoleType=Round|Shape=RoundedRectangle|*
%AMROUNDEDRECTD16*
21,1,1.0000,0.8000,0,0,90.0*
21,1,0.0000,1.8000,0,0,90.0*
1,1,1.0000,0.4000,0.0000*
1,1,1.0000,0.4000,0.0000*
1,1,1.0000,-0.4000,0.0000*
1,1,1.0000,-0.4000,0.0000*
%
%ADD16ROUNDEDRECTD16*%
%ADD17R,0.8000X0.9000*%
%ADD18R,5.0000X5.0000*%
%ADD19R,2.0000X0.9000*%
%ADD20R,1.5500X1.5500*%
%ADD21R,1.5000X0.9000*%
%ADD22R,0.3500X0.5000*%
%ADD23R,0.9500X1.4500*%
%ADD24R,1.2500X1.5500*%
%ADD25R,1.1500X0.3000*%
%ADD26R,1.5000X1.5000*%
%ADD27R,1.0000X1.3500*%
%ADD28R,1.5000X1.5500*%
%ADD29R,1.2500X1.2200*%
%ADD30R,1.5500X1.5500*%
%ADD31R,1.4000X1.5500*%
%ADD32R,1.8000X0.6400*%
%ADD33R,1.0000X1.2500*%
%ADD34R,1.5500X1.5000*%
%ADD35R,1.5000X0.9500*%
G04:AMPARAMS|DCode=36|XSize=1mm|YSize=2.05mm|CornerRadius=0.05mm|HoleSize=0mm|Usage=FLASHONLY|Rotation=0.000|XOffset=0mm|YOffset=0mm|HoleType=Round|Shape=RoundedRectangle|*
%AMROUNDEDRECTD36*
21,1,1.0000,1.9500,0,0,0.0*
21,1,0.9000,2.0500,0,0,0.0*
1,1,0.1000,0.4500,-0.9750*
1,1,0.1000,-0.4500,-0.9750*
1,1,0.1000,-0.4500,0.9750*
1,1,0.1000,0.4500,0.9750*
%
%ADD36ROUNDEDRECTD36*%
G04:AMPARAMS|DCode=37|XSize=3.25mm|YSize=2.05mm|CornerRadius=0.0513mm|HoleSize=0mm|Usage=FLASHONLY|Rotation=0.000|XOffset=0mm|YOffset=0mm|HoleType=Round|Shape=RoundedRectangle|*
%AMROUNDEDRECTD37*
21,1,3.2500,1.9475,0,0,0.0*
21,1,3.1475,2.0500,0,0,0.0*
1,1,0.1025,1.5738,-0.9738*
1,1,0.1025,-1.5738,-0.9738*
1,1,0.1025,-1.5738,0.9738*
1,1,0.1025,1.5738,0.9738*
%
%ADD37ROUNDEDRECTD37*%
%ADD38R,1.5500X1.2500*%
%ADD39R,0.9500X1.3500*%
%ADD40R,0.7000X1.0000*%
%ADD41R,0.7000X0.6000*%
%ADD60C,1.7500*%
%ADD61R,1.7500X1.7500*%
%ADD71C,0.3810*%
%ADD72C,0.5080*%
%ADD73C,0.3048*%
%ADD74C,1.9500*%
%ADD75R,1.9500X1.9500*%
%ADD76C,4.0000*%
%ADD77C,0.8000*%
%ADD78C,1.9050*%
%ADD79C,0.6000*%
G36*
X948291Y1396017D02*
X959416Y1395531D01*
X968653Y1394890D01*
X979771Y1393917D01*
X988931Y1392854D01*
X1000038Y1391392D01*
X1009069Y1389919D01*
X1020175Y1387961D01*
X1029012Y1386096D01*
X1040141Y1383629D01*
X1048677Y1381412D01*
X1059896Y1378406D01*
X1067892Y1375930D01*
X1079398Y1372302D01*
X1085993Y1369921D01*
X1098457Y1365385D01*
X1116808Y1357783D01*
X1128837Y1352174D01*
X1135176Y1349198D01*
X1145883Y1343625D01*
X1153282Y1339724D01*
X1163344Y1333915D01*
X1170944Y1329449D01*
X1180560Y1323323D01*
X1188125Y1318394D01*
X1197363Y1311925D01*
X1204791Y1306580D01*
X1213679Y1299761D01*
X1220908Y1294035D01*
X1229456Y1286862D01*
X1236442Y1280783D01*
X1244652Y1273259D01*
X1251363Y1266852D01*
X1259232Y1258983D01*
X1265640Y1252272D01*
X1273163Y1244062D01*
X1279242Y1237076D01*
X1286415Y1228528D01*
X1292141Y1221299D01*
X1298960Y1212411D01*
X1304305Y1204983D01*
X1310773Y1195745D01*
X1315703Y1188180D01*
X1321829Y1178564D01*
X1326295Y1170965D01*
X1332105Y1160902D01*
X1336004Y1153503D01*
X1341579Y1142796D01*
X1344554Y1136457D01*
X1350163Y1124428D01*
X1357765Y1106077D01*
X1362301Y1093614D01*
X1364682Y1087018D01*
X1368310Y1075513D01*
X1370786Y1067516D01*
X1373792Y1056297D01*
X1376009Y1047761D01*
X1378477Y1036632D01*
X1380341Y1027795D01*
X1382299Y1016689D01*
X1383772Y1007658D01*
X1385234Y996551D01*
X1386297Y987391D01*
X1387270Y976273D01*
X1387911Y967036D01*
X1388397Y955911D01*
X1388611Y946633D01*
Y935507D01*
X1388397Y926229D01*
X1387911Y915104D01*
X1387270Y905866D01*
X1386297Y894749D01*
X1385234Y885589D01*
X1383772Y874482D01*
X1382299Y865451D01*
X1380341Y854345D01*
X1378476Y845508D01*
X1376009Y834379D01*
X1373792Y825843D01*
X1370786Y814624D01*
X1368309Y806626D01*
X1364682Y795122D01*
X1362300Y788523D01*
X1357765Y776063D01*
X1350163Y757712D01*
X1344556Y745687D01*
X1341578Y739344D01*
X1336006Y728639D01*
X1332104Y721238D01*
X1326296Y711177D01*
X1321829Y703576D01*
X1315704Y693961D01*
X1310773Y686395D01*
X1304306Y677158D01*
X1298960Y669728D01*
X1292141Y660842D01*
X1286414Y653612D01*
X1279242Y645064D01*
X1273163Y638078D01*
X1265640Y629868D01*
X1259232Y623157D01*
X1251363Y615288D01*
X1244651Y608880D01*
X1236442Y601357D01*
X1229455Y595278D01*
X1220908Y588106D01*
X1213678Y582379D01*
X1204792Y575560D01*
X1197361Y570214D01*
X1188126Y563747D01*
X1180558Y558816D01*
X1170944Y552691D01*
X1163342Y548224D01*
X1153282Y542416D01*
X1145879Y538513D01*
X1135176Y532942D01*
X1128829Y529962D01*
X1116808Y524357D01*
X1098457Y516755D01*
X1086002Y512222D01*
X1079398Y509838D01*
X1067898Y506212D01*
X1059895Y503734D01*
X1048680Y500728D01*
X1040141Y498511D01*
X1029014Y496044D01*
X1020175Y494179D01*
X1009071Y492221D01*
X1000037Y490748D01*
X988933Y489286D01*
X979770Y488223D01*
X968655Y487251D01*
X959415Y486609D01*
X948291Y486123D01*
X939013Y485909D01*
X927887D01*
X918609Y486123D01*
X907485Y486609D01*
X898245Y487251D01*
X887130Y488223D01*
X877967Y489286D01*
X866863Y490748D01*
X857829Y492221D01*
X846725Y494179D01*
X837885Y496044D01*
X826759Y498511D01*
X818220Y500729D01*
X807005Y503734D01*
X799002Y506212D01*
X787503Y509837D01*
X780895Y512223D01*
X768443Y516755D01*
X750092Y524357D01*
X738075Y529960D01*
X731724Y532942D01*
X721023Y538512D01*
X713617Y542416D01*
X703560Y548223D01*
X695955Y552691D01*
X686343Y558815D01*
X678774Y563747D01*
X669540Y570213D01*
X662108Y575560D01*
X653223Y582378D01*
X645991Y588106D01*
X637445Y595277D01*
X630457Y601358D01*
X622249Y608880D01*
X615536Y615289D01*
X607669Y623156D01*
X601259Y629869D01*
X593738Y638077D01*
X587657Y645065D01*
X580486Y653611D01*
X574758Y660843D01*
X567940Y669728D01*
X562593Y677160D01*
X556127Y686394D01*
X551195Y693963D01*
X545071Y703575D01*
X540603Y711179D01*
X534796Y721237D01*
X530892Y728643D01*
X525322Y739344D01*
X522340Y745695D01*
X516737Y757712D01*
X509135Y776063D01*
X504603Y788515D01*
X502217Y795123D01*
X498592Y806621D01*
X496114Y814625D01*
X493109Y825839D01*
X490891Y834379D01*
X488424Y845505D01*
X486559Y854345D01*
X484602Y865449D01*
X483128Y874483D01*
X481666Y885587D01*
X480603Y894750D01*
X479631Y905865D01*
X478989Y915105D01*
X478503Y926229D01*
X478289Y935507D01*
Y946633D01*
X478503Y955911D01*
X478989Y967035D01*
X479631Y976275D01*
X480603Y987390D01*
X481666Y996553D01*
X483128Y1007657D01*
X484601Y1016691D01*
X486559Y1027795D01*
X488424Y1036634D01*
X490891Y1047761D01*
X493108Y1056300D01*
X496114Y1067515D01*
X498591Y1075517D01*
X502218Y1087018D01*
X504602Y1093622D01*
X509135Y1106077D01*
X516737Y1124428D01*
X522342Y1136449D01*
X525322Y1142796D01*
X530893Y1153499D01*
X534796Y1160902D01*
X540603Y1170962D01*
X545071Y1178564D01*
X551196Y1188178D01*
X556127Y1195746D01*
X562594Y1204981D01*
X567940Y1212412D01*
X574759Y1221298D01*
X580486Y1228528D01*
X587658Y1237075D01*
X593737Y1244062D01*
X601260Y1252272D01*
X607668Y1258983D01*
X615537Y1266852D01*
X622248Y1273260D01*
X630458Y1280782D01*
X637444Y1286862D01*
X645992Y1294034D01*
X653222Y1299761D01*
X662109Y1306580D01*
X669538Y1311926D01*
X678774Y1318393D01*
X686341Y1323324D01*
X695956Y1329449D01*
X703557Y1333916D01*
X713618Y1339724D01*
X721019Y1343626D01*
X731724Y1349198D01*
X738067Y1352176D01*
X750092Y1357783D01*
X768443Y1365385D01*
X780903Y1369920D01*
X787502Y1372302D01*
X799005Y1375929D01*
X807004Y1378406D01*
X818223Y1381412D01*
X826759Y1383629D01*
X837888Y1386096D01*
X846725Y1387961D01*
X857831Y1389919D01*
X866862Y1391392D01*
X877969Y1392854D01*
X887129Y1393917D01*
X898247Y1394890D01*
X907484Y1395531D01*
X918609Y1396017D01*
X927887Y1396231D01*
X939013D01*
X948291Y1396017D01*
D02*
G37*
%LPC*%
G36*
X755801Y1334135D02*
X755015D01*
Y1323975D01*
X765175D01*
Y1324761D01*
X764439Y1327507D01*
X763018Y1329968D01*
X761008Y1331978D01*
X758547Y1333399D01*
X755801Y1334135D01*
D02*
G37*
G36*
X753745D02*
X752959D01*
X750213Y1333399D01*
X747752Y1331978D01*
X745742Y1329968D01*
X744321Y1327507D01*
X743585Y1324761D01*
Y1323975D01*
X753745D01*
Y1334135D01*
D02*
G37*
G36*
X1054251Y1341755D02*
X1051409D01*
X1048663Y1341019D01*
X1046202Y1339598D01*
X1044192Y1337588D01*
X1042771Y1335127D01*
X1042035Y1332381D01*
Y1329539D01*
X1042771Y1326793D01*
X1043252Y1325960D01*
X1008283Y1290991D01*
X1007110Y1291478D01*
Y1308100D01*
X811530D01*
Y1213590D01*
X810510D01*
Y1202160D01*
X810510Y1202050D01*
Y1200890D01*
X810510Y1200780D01*
Y1195755D01*
X833050D01*
Y1200780D01*
X833050Y1200890D01*
Y1202050D01*
X833050Y1202160D01*
Y1204583D01*
X893543D01*
Y1159090D01*
X870510D01*
Y1111128D01*
X860951Y1101569D01*
X860249Y1100519D01*
X860003Y1099280D01*
Y936120D01*
X854220D01*
Y930337D01*
X848431D01*
X843740Y935028D01*
Y935569D01*
X843090Y937139D01*
X841889Y938340D01*
X840319Y938990D01*
X838621D01*
X837051Y938340D01*
X835850Y937139D01*
X835592Y936516D01*
X834322Y936769D01*
Y968194D01*
X837244Y971116D01*
X837946Y972166D01*
X838192Y973405D01*
Y1175535D01*
X837946Y1176774D01*
X837244Y1177824D01*
X833050Y1182018D01*
Y1188080D01*
X833050Y1188190D01*
X833050D01*
Y1189350D01*
X833050D01*
Y1194485D01*
X810510D01*
Y1193637D01*
X809337Y1193151D01*
X802358Y1200130D01*
Y1253200D01*
X802111Y1254438D01*
X801410Y1255489D01*
X763958Y1292940D01*
X764439Y1293773D01*
X765175Y1296519D01*
Y1299361D01*
X764439Y1302107D01*
X763018Y1304568D01*
X761008Y1306578D01*
X758547Y1307999D01*
X755801Y1308735D01*
X752959D01*
X750213Y1307999D01*
X747752Y1306578D01*
X745742Y1304568D01*
X744321Y1302107D01*
X743585Y1299361D01*
Y1296519D01*
X744321Y1293773D01*
X745742Y1291312D01*
X747752Y1289302D01*
X750213Y1287881D01*
X752959Y1287145D01*
X755801D01*
X758547Y1287881D01*
X759380Y1288362D01*
X795883Y1251859D01*
Y1237274D01*
X794710Y1236788D01*
X763958Y1267540D01*
X764439Y1268373D01*
X765175Y1271119D01*
Y1273961D01*
X764439Y1276707D01*
X763018Y1279168D01*
X761008Y1281178D01*
X758547Y1282599D01*
X755801Y1283335D01*
X752959D01*
X750213Y1282599D01*
X747752Y1281178D01*
X745742Y1279168D01*
X744321Y1276707D01*
X743585Y1273961D01*
Y1271119D01*
X744321Y1268373D01*
X745742Y1265912D01*
X747752Y1263902D01*
X750213Y1262481D01*
X752959Y1261745D01*
X755801D01*
X758547Y1262481D01*
X759380Y1262962D01*
X790803Y1231539D01*
Y1216954D01*
X789630Y1216468D01*
X763958Y1242140D01*
X764439Y1242973D01*
X765175Y1245719D01*
Y1248561D01*
X764439Y1251307D01*
X763018Y1253768D01*
X761008Y1255778D01*
X758547Y1257199D01*
X755801Y1257935D01*
X752959D01*
X750213Y1257199D01*
X747752Y1255778D01*
X745742Y1253768D01*
X744321Y1251307D01*
X743585Y1248561D01*
Y1245719D01*
X744321Y1242973D01*
X745742Y1240512D01*
X747752Y1238502D01*
X750213Y1237081D01*
X752959Y1236345D01*
X755801D01*
X758547Y1237081D01*
X759380Y1237562D01*
X785723Y1211219D01*
Y1196634D01*
X784550Y1196148D01*
X763958Y1216740D01*
X764439Y1217573D01*
X765175Y1220319D01*
Y1223161D01*
X764439Y1225907D01*
X763018Y1228368D01*
X761008Y1230378D01*
X758547Y1231799D01*
X755801Y1232535D01*
X752959D01*
X750213Y1231799D01*
X747752Y1230378D01*
X745742Y1228368D01*
X744321Y1225907D01*
X743585Y1223161D01*
Y1220319D01*
X744321Y1217573D01*
X745742Y1215112D01*
X747752Y1213102D01*
X750213Y1211681D01*
X752959Y1210945D01*
X755801D01*
X758547Y1211681D01*
X759380Y1212162D01*
X780643Y1190899D01*
Y1175929D01*
X780890Y1174691D01*
X781591Y1173640D01*
X808176Y1147056D01*
X809226Y1146354D01*
X809777Y1146245D01*
X810510Y1145512D01*
Y1142837D01*
X809337Y1142351D01*
X762497Y1189191D01*
X763018Y1189712D01*
X764439Y1192173D01*
X765175Y1194919D01*
Y1197761D01*
X764439Y1200507D01*
X763018Y1202968D01*
X761008Y1204978D01*
X758547Y1206399D01*
X755801Y1207135D01*
X752959D01*
X750213Y1206399D01*
X747752Y1204978D01*
X745742Y1202968D01*
X744321Y1200507D01*
X743585Y1197761D01*
Y1194919D01*
X744321Y1192173D01*
X745742Y1189712D01*
X747752Y1187702D01*
X750213Y1186281D01*
X752959Y1185545D01*
X755801D01*
X756736Y1185796D01*
X808176Y1134356D01*
X809226Y1133654D01*
X809777Y1133544D01*
X810510Y1132812D01*
Y1125850D01*
X810510D01*
Y1124690D01*
X810510D01*
Y1122157D01*
X807741D01*
X763958Y1165940D01*
X764439Y1166773D01*
X765175Y1169519D01*
Y1172361D01*
X764439Y1175107D01*
X763018Y1177568D01*
X761008Y1179578D01*
X758547Y1180999D01*
X755801Y1181735D01*
X752959D01*
X750213Y1180999D01*
X747752Y1179578D01*
X745742Y1177568D01*
X744321Y1175107D01*
X743585Y1172361D01*
Y1169519D01*
X744321Y1166773D01*
X745742Y1164312D01*
X747752Y1162302D01*
X750213Y1160881D01*
X752959Y1160145D01*
X755801D01*
X758547Y1160881D01*
X759380Y1161362D01*
X804111Y1116631D01*
X805161Y1115929D01*
X806400Y1115683D01*
X810510D01*
Y1113150D01*
X810510D01*
Y1111990D01*
X810510D01*
Y1109457D01*
X795041D01*
X763958Y1140540D01*
X764439Y1141373D01*
X765175Y1144119D01*
Y1146961D01*
X764439Y1149707D01*
X763018Y1152168D01*
X761008Y1154178D01*
X758547Y1155599D01*
X755801Y1156335D01*
X752959D01*
X750213Y1155599D01*
X747752Y1154178D01*
X745742Y1152168D01*
X744321Y1149707D01*
X743585Y1146961D01*
Y1144119D01*
X744321Y1141373D01*
X745742Y1138912D01*
X747752Y1136902D01*
X750213Y1135481D01*
X752959Y1134745D01*
X755801D01*
X758547Y1135481D01*
X759380Y1135962D01*
X791411Y1103931D01*
X792461Y1103229D01*
X793700Y1102983D01*
X810510D01*
Y1100450D01*
X810510D01*
Y1099290D01*
X810510D01*
Y1096757D01*
X794085D01*
X771329Y1119513D01*
X770279Y1120215D01*
X769040Y1120461D01*
X765175D01*
Y1121561D01*
X764439Y1124307D01*
X763018Y1126768D01*
X761008Y1128778D01*
X758547Y1130199D01*
X755801Y1130935D01*
X752959D01*
X750213Y1130199D01*
X747752Y1128778D01*
X745742Y1126768D01*
X744321Y1124307D01*
X743585Y1121561D01*
Y1118719D01*
X744321Y1115973D01*
X745742Y1113512D01*
X747752Y1111502D01*
X750213Y1110081D01*
X752959Y1109345D01*
X755801D01*
X758547Y1110081D01*
X761008Y1111502D01*
X763018Y1113512D01*
X763292Y1113987D01*
X767699D01*
X790455Y1091231D01*
X791505Y1090529D01*
X792744Y1090283D01*
X810510D01*
Y1087750D01*
X810510D01*
Y1086590D01*
X810510D01*
Y1084057D01*
X794395D01*
X781423Y1097029D01*
X780373Y1097731D01*
X779135Y1097977D01*
X764688D01*
X764439Y1098907D01*
X763018Y1101368D01*
X761008Y1103378D01*
X758547Y1104799D01*
X755801Y1105535D01*
X752959D01*
X750213Y1104799D01*
X747752Y1103378D01*
X745742Y1101368D01*
X744321Y1098907D01*
X743585Y1096161D01*
Y1093319D01*
X744321Y1090573D01*
X745742Y1088112D01*
X747306Y1086547D01*
X746780Y1085277D01*
X594360D01*
X593121Y1085031D01*
X592071Y1084329D01*
X584285Y1076543D01*
X583374Y1077069D01*
X580571Y1077820D01*
X577669D01*
X574866Y1077069D01*
X572354Y1075618D01*
X570302Y1073567D01*
X568851Y1071054D01*
X568100Y1068251D01*
Y1065349D01*
X568851Y1062546D01*
X570302Y1060034D01*
X572354Y1057982D01*
X574866Y1056531D01*
X577669Y1055780D01*
X580571D01*
X583374Y1056531D01*
X585886Y1057982D01*
X587938Y1060034D01*
X589389Y1062546D01*
X590140Y1065349D01*
Y1068251D01*
X589389Y1071054D01*
X588863Y1071965D01*
X595701Y1078803D01*
X746780D01*
X747306Y1077533D01*
X745742Y1075968D01*
X744321Y1073507D01*
X743585Y1070761D01*
Y1067919D01*
X744321Y1065173D01*
X745742Y1062712D01*
X747752Y1060702D01*
X750213Y1059281D01*
X752959Y1058545D01*
X755801D01*
X758547Y1059281D01*
X761008Y1060702D01*
X763018Y1062712D01*
X764439Y1065173D01*
X765175Y1067919D01*
Y1070761D01*
X764439Y1073507D01*
X763018Y1075968D01*
X761454Y1077533D01*
X761980Y1078803D01*
X773101D01*
X786073Y1065831D01*
X787123Y1065129D01*
X788362Y1064883D01*
X810510D01*
Y1062350D01*
X810510D01*
Y1061190D01*
X810510D01*
Y1058657D01*
X784076D01*
X782837Y1058411D01*
X781787Y1057709D01*
X771255Y1047177D01*
X764688D01*
X764439Y1048107D01*
X763018Y1050568D01*
X761008Y1052578D01*
X758547Y1053999D01*
X755801Y1054735D01*
X752959D01*
X750213Y1053999D01*
X747752Y1052578D01*
X745742Y1050568D01*
X744321Y1048107D01*
X744072Y1047177D01*
X587981D01*
X586742Y1046931D01*
X585692Y1046229D01*
X563955Y1024492D01*
X563746Y1024503D01*
X562685Y1024901D01*
Y1094871D01*
X573594Y1105780D01*
X590140D01*
Y1127820D01*
X568100D01*
Y1111274D01*
X556053Y1099227D01*
X555211Y1097967D01*
X554915Y1096480D01*
Y912822D01*
X555211Y911335D01*
X556053Y910075D01*
X558706Y907422D01*
X559966Y906580D01*
X561453Y906284D01*
X561892D01*
X563020Y905156D01*
Y894104D01*
X545893Y876977D01*
X545051Y875716D01*
X544755Y874230D01*
Y775590D01*
X545051Y774103D01*
X545893Y772843D01*
X584510Y734226D01*
Y732835D01*
X584806Y731348D01*
X585220Y730729D01*
Y724470D01*
X602760D01*
Y726355D01*
X621971D01*
X629143Y719183D01*
X630403Y718341D01*
X631890Y718045D01*
X640152D01*
X640638Y716872D01*
X633024Y709258D01*
X632425Y709139D01*
X631165Y708297D01*
X628933Y706065D01*
X628091Y704805D01*
X627795Y703318D01*
Y691162D01*
X628091Y689675D01*
X628933Y688415D01*
X631165Y686183D01*
X632425Y685341D01*
X633024Y685222D01*
X634706Y683540D01*
X635967Y682698D01*
X637453Y682402D01*
X655178D01*
X694822Y642758D01*
Y621491D01*
X689937D01*
Y611284D01*
X687524D01*
X602760Y696048D01*
Y703010D01*
X585220D01*
Y691470D01*
X598182D01*
X683895Y605757D01*
X684945Y605056D01*
X686184Y604809D01*
X707522D01*
X708761Y605056D01*
X709811Y605757D01*
X724521Y620467D01*
X735383D01*
X738937Y616913D01*
Y609951D01*
X756477D01*
Y619760D01*
X757650Y620246D01*
X763140Y614756D01*
Y603020D01*
X763140Y602210D01*
X763140Y600940D01*
Y588288D01*
X760810Y585959D01*
X756477D01*
Y588491D01*
X738937D01*
Y576951D01*
X756477D01*
Y579484D01*
X762151D01*
X763390Y579731D01*
X764440Y580432D01*
X767718Y583710D01*
X776602D01*
X780353Y579959D01*
Y564141D01*
X779970Y563759D01*
X779320Y562189D01*
Y560491D01*
X779970Y558921D01*
X781171Y557720D01*
X782741Y557070D01*
X784439D01*
X786009Y557720D01*
X787210Y558921D01*
X787860Y560491D01*
Y562189D01*
X787210Y563759D01*
X786827Y564141D01*
Y581300D01*
X786581Y582539D01*
X785879Y583589D01*
X781180Y588288D01*
Y600940D01*
X781180Y601750D01*
X781180Y603020D01*
Y607345D01*
X808218D01*
X860781Y554783D01*
X862041Y553941D01*
X863528Y553645D01*
X891631D01*
X892560Y552716D01*
Y548002D01*
X741004D01*
X707477Y581530D01*
Y588491D01*
X689937D01*
Y576951D01*
X702899D01*
X737374Y542476D01*
X738424Y541774D01*
X739663Y541528D01*
X910145D01*
X911384Y541774D01*
X912434Y542476D01*
X927144Y557186D01*
X938006D01*
X941560Y553632D01*
Y546670D01*
X959100D01*
Y553027D01*
X960273Y553513D01*
X965070Y548716D01*
Y536170D01*
X965070D01*
Y535710D01*
X965070D01*
Y529927D01*
X949121D01*
X940260Y538788D01*
Y539329D01*
X939610Y540899D01*
X938409Y542100D01*
X936839Y542750D01*
X935141D01*
X933571Y542100D01*
X932370Y540899D01*
X931720Y539329D01*
Y537631D01*
X932370Y536061D01*
X933571Y534860D01*
X935141Y534210D01*
X935682D01*
X943509Y526383D01*
X943023Y525210D01*
X941560D01*
Y515002D01*
X938214D01*
X931487Y521729D01*
X930436Y522431D01*
X929198Y522677D01*
X910100D01*
Y525210D01*
X892560D01*
Y513670D01*
X910100D01*
Y516203D01*
X927857D01*
X934584Y509476D01*
X935634Y508774D01*
X936873Y508528D01*
X985681D01*
X986920Y508774D01*
X987970Y509476D01*
X1050527Y572032D01*
X1051700Y571546D01*
Y553860D01*
X1071740D01*
Y573900D01*
X1054054D01*
X1053568Y575073D01*
X1064537Y586043D01*
X1108830D01*
Y583510D01*
X1126370D01*
Y595050D01*
X1108830D01*
Y592517D01*
X1092296D01*
X1091060Y592600D01*
Y597735D01*
X1149651D01*
X1157830Y589556D01*
Y588088D01*
X1143670Y573928D01*
X1142968Y572878D01*
X1142856Y572315D01*
X1141920Y571379D01*
X1141270Y569809D01*
Y568111D01*
X1141920Y566541D01*
X1143121Y565340D01*
X1144691Y564690D01*
X1146389D01*
X1147959Y565340D01*
X1149160Y566541D01*
X1149810Y568111D01*
Y569809D01*
X1149487Y570589D01*
X1162408Y583510D01*
X1175370D01*
Y595050D01*
X1163324D01*
X1155145Y603229D01*
Y656531D01*
X1191544Y692930D01*
X1204090D01*
Y698065D01*
X1212862D01*
X1214348Y698361D01*
X1215609Y699203D01*
X1216877Y700471D01*
X1218050Y699985D01*
Y692750D01*
X1223583D01*
Y683841D01*
X1169906Y630164D01*
X1169204Y629114D01*
X1168993Y628050D01*
X1157830D01*
Y616510D01*
X1175370D01*
Y624562D01*
X1175432Y624875D01*
Y626534D01*
X1229109Y680211D01*
X1229811Y681261D01*
X1230057Y682500D01*
Y692750D01*
X1235590D01*
Y703505D01*
X1262341D01*
X1267050Y698796D01*
Y692750D01*
X1284590D01*
Y699009D01*
X1285004Y699628D01*
X1285253Y700878D01*
X1285775D01*
X1287014Y701124D01*
X1288064Y701826D01*
X1295708Y709470D01*
X1296249D01*
X1297819Y710120D01*
X1299020Y711321D01*
X1299670Y712891D01*
Y714589D01*
X1299020Y716159D01*
X1297819Y717360D01*
X1296249Y718010D01*
X1294551D01*
X1292981Y717360D01*
X1291780Y716159D01*
X1291130Y714589D01*
Y714048D01*
X1284434Y707352D01*
X1283428D01*
X1282902Y707704D01*
X1281415Y708000D01*
X1279928Y707704D01*
X1278668Y706862D01*
X1277826Y705602D01*
X1277565Y704290D01*
X1272544D01*
X1266697Y710137D01*
X1265437Y710979D01*
X1263950Y711275D01*
X1218302D01*
X1216815Y710979D01*
X1215555Y710137D01*
X1211253Y705835D01*
X1204090D01*
Y710970D01*
X1204090Y710970D01*
Y711430D01*
X1204090D01*
X1204090Y712240D01*
Y717213D01*
X1212750D01*
X1213989Y717459D01*
X1215039Y718161D01*
X1222628Y725750D01*
X1235590D01*
Y737290D01*
X1218050D01*
Y730328D01*
X1211409Y723687D01*
X1204090D01*
Y729470D01*
X1186050D01*
Y717298D01*
X1185446Y716894D01*
X1115311Y646759D01*
X1114609Y645709D01*
X1114363Y644470D01*
Y628050D01*
X1108830D01*
Y625517D01*
X1091060D01*
Y629140D01*
X1085277D01*
Y730159D01*
X1090504Y735386D01*
X1091206Y736436D01*
X1091452Y737675D01*
Y747554D01*
X1091788Y747889D01*
X1105576D01*
X1106815Y748136D01*
X1107865Y748837D01*
X1122358Y763330D01*
X1122558Y763370D01*
X1131610D01*
Y774913D01*
X1132783Y775399D01*
X1134008Y774174D01*
Y773985D01*
X1134070Y773672D01*
Y763370D01*
X1143122D01*
X1143322Y763330D01*
X1155831Y750821D01*
X1156881Y750119D01*
X1158120Y749873D01*
X1311910D01*
X1313149Y750119D01*
X1314199Y750821D01*
X1320139Y756761D01*
X1320841Y757811D01*
X1321087Y759050D01*
Y781050D01*
X1337310D01*
Y785320D01*
X1344735D01*
X1344747Y785322D01*
X1344759Y785320D01*
X1344785Y785320D01*
X1344798Y785323D01*
X1344811Y785321D01*
X1344836Y785321D01*
X1344850Y785324D01*
X1344863Y785322D01*
X1344888Y785323D01*
X1344900Y785326D01*
X1344913Y785324D01*
X1344925Y785325D01*
X1344926Y785325D01*
X1344927Y785325D01*
X1345276Y785343D01*
X1345620Y785430D01*
X1345967Y785501D01*
X1346611Y785774D01*
X1346904Y785973D01*
X1347205Y786159D01*
X1347717Y786635D01*
X1347924Y786923D01*
X1348144Y787201D01*
X1348462Y787823D01*
X1348558Y788165D01*
X1348669Y788501D01*
X1348712Y788848D01*
X1348712Y788850D01*
X1348713Y788852D01*
X1348715Y788870D01*
X1348714Y788887D01*
X1348719Y788904D01*
X1348722Y788938D01*
X1348721Y788956D01*
X1348726Y788973D01*
X1348729Y789007D01*
X1348727Y789025D01*
X1348731Y789043D01*
X1348734Y789078D01*
X1348731Y789096D01*
X1348736Y789114D01*
X1348737Y789131D01*
X1348737Y789131D01*
X1348737Y789142D01*
X1348736Y789155D01*
X1348739Y789167D01*
X1348740Y789193D01*
X1348737Y789207D01*
X1348741Y789221D01*
X1348741Y789247D01*
X1348739Y789261D01*
X1348742Y789275D01*
X1348742Y789301D01*
X1348739Y789316D01*
X1348742Y789331D01*
X1348742Y789344D01*
X1348742Y831850D01*
X1348742Y831850D01*
X1348742Y831859D01*
X1348739Y831874D01*
X1348742Y831889D01*
X1348742Y831915D01*
X1348739Y831927D01*
X1348741Y831939D01*
X1348741Y831964D01*
X1348738Y831977D01*
X1348740Y831989D01*
X1348739Y832014D01*
X1348736Y832027D01*
X1348738Y832041D01*
X1348737Y832053D01*
X1348737Y832054D01*
X1348737Y832055D01*
X1348719Y832404D01*
X1348632Y832748D01*
X1348560Y833095D01*
X1348288Y833739D01*
X1348089Y834032D01*
X1347903Y834333D01*
X1347426Y834845D01*
X1347139Y835052D01*
X1346861Y835272D01*
X1346239Y835590D01*
X1345897Y835686D01*
X1345561Y835797D01*
X1345214Y835840D01*
X1345213Y835840D01*
X1345213Y835840D01*
X1345195Y835843D01*
X1345176Y835841D01*
X1345158Y835847D01*
X1345124Y835850D01*
X1345106Y835849D01*
X1345089Y835854D01*
X1345055Y835857D01*
X1345037Y835855D01*
X1345020Y835859D01*
X1344986Y835862D01*
X1344965Y835859D01*
X1344945Y835864D01*
X1344932Y835865D01*
X1344921Y835865D01*
X1344906Y835863D01*
X1344893Y835867D01*
X1344866Y835868D01*
X1344854Y835866D01*
X1344841Y835869D01*
X1344815Y835869D01*
X1344801Y835867D01*
X1344787Y835870D01*
X1344761Y835870D01*
X1344746Y835867D01*
X1344731Y835870D01*
X1344718Y835870D01*
X1337310Y835870D01*
Y845820D01*
X1321087D01*
Y877980D01*
X1320841Y879219D01*
X1320139Y880269D01*
X1306579Y893829D01*
X1305529Y894531D01*
X1304290Y894777D01*
X1235921D01*
X1230071Y900627D01*
X1230557Y901800D01*
X1232415D01*
Y908685D01*
X1226780D01*
Y905577D01*
X1225607Y905091D01*
X1224320Y906378D01*
Y916840D01*
X1211780D01*
Y907507D01*
X1211735Y907477D01*
X1190251D01*
X1189869Y907860D01*
X1188299Y908510D01*
X1186601D01*
X1185031Y907860D01*
X1183830Y906659D01*
X1183180Y905089D01*
Y903391D01*
X1183830Y901821D01*
X1185031Y900620D01*
X1186601Y899970D01*
X1188299D01*
X1189869Y900620D01*
X1190251Y901003D01*
X1212970D01*
X1214209Y901249D01*
X1214940Y901738D01*
X1214955D01*
X1215268Y901800D01*
X1219742D01*
X1232291Y889251D01*
X1233341Y888549D01*
X1234580Y888303D01*
X1302949D01*
X1306193Y885059D01*
X1305567Y883888D01*
X1304883Y884025D01*
X1183711D01*
X1181560Y886176D01*
Y887309D01*
X1180910Y888879D01*
X1179709Y890080D01*
X1178139Y890730D01*
X1176441D01*
X1174871Y890080D01*
X1173670Y888879D01*
X1173020Y887309D01*
Y885611D01*
X1173670Y884041D01*
X1174871Y882840D01*
X1176353Y882226D01*
X1179133Y879446D01*
Y872390D01*
X1176100D01*
Y857350D01*
X1188640D01*
Y872390D01*
X1185607D01*
Y877550D01*
X1225762D01*
X1226147Y876280D01*
X1225801Y876049D01*
X1213101Y863349D01*
X1212399Y862299D01*
X1212153Y861060D01*
Y849393D01*
X1211817Y849057D01*
X1168400D01*
X1167161Y848811D01*
X1166111Y848109D01*
X1162903Y844901D01*
X1162219Y845185D01*
X1155460D01*
X1149190D01*
Y842077D01*
X1148017Y841591D01*
X1146730Y842878D01*
Y853340D01*
X1134190D01*
Y838300D01*
X1142152D01*
X1146346Y834106D01*
X1147396Y833404D01*
X1148635Y833158D01*
X1161775D01*
X1163014Y833404D01*
X1164064Y834106D01*
X1165924Y835966D01*
X1166626Y837016D01*
X1166872Y838255D01*
Y839714D01*
X1169741Y842583D01*
X1213158D01*
X1214397Y842829D01*
X1215447Y843531D01*
X1217679Y845763D01*
X1218381Y846813D01*
X1218627Y848052D01*
Y859719D01*
X1229431Y870523D01*
X1300409D01*
X1302323Y868609D01*
Y862113D01*
X1301053Y861727D01*
X1300639Y862346D01*
X1298400Y864585D01*
Y865719D01*
X1297750Y867289D01*
X1296549Y868490D01*
X1294979Y869140D01*
X1293281D01*
X1291711Y868490D01*
X1290510Y867289D01*
X1289860Y865719D01*
Y864021D01*
X1290510Y862451D01*
X1291711Y861250D01*
X1293193Y860636D01*
X1295113Y858717D01*
Y845820D01*
X1282700D01*
Y835897D01*
X1282160Y835481D01*
X1281430Y835274D01*
X1281380Y835313D01*
X1280757Y835631D01*
X1280417Y835727D01*
X1280080Y835838D01*
X1279733Y835881D01*
X1279731Y835881D01*
X1279728Y835882D01*
X1279711Y835884D01*
X1279695Y835883D01*
X1279678Y835888D01*
X1279644Y835891D01*
X1279626Y835890D01*
X1279608Y835895D01*
X1279574Y835898D01*
X1279555Y835896D01*
X1279538Y835900D01*
X1279503Y835903D01*
X1279485Y835900D01*
X1279467Y835905D01*
X1279439Y835907D01*
X1279426Y835905D01*
X1279414Y835908D01*
X1279388Y835909D01*
X1279372Y835906D01*
X1279358Y835910D01*
X1279332Y835910D01*
X1279319Y835908D01*
X1279306Y835911D01*
X1279280Y835911D01*
X1279265Y835908D01*
X1279250Y835911D01*
X1279241Y835911D01*
X1279241Y835911D01*
X1268734Y835911D01*
X1268721Y835911D01*
X1268707Y835909D01*
X1268693Y835911D01*
X1268668Y835911D01*
X1268653Y835908D01*
X1268639Y835910D01*
X1268614Y835910D01*
X1268602Y835907D01*
X1268591Y835909D01*
X1268566Y835908D01*
X1268550Y835904D01*
X1268535Y835907D01*
X1268176Y835888D01*
X1267832Y835801D01*
X1267485Y835730D01*
X1266841Y835457D01*
X1266548Y835258D01*
X1266247Y835072D01*
X1265735Y834596D01*
X1265528Y834308D01*
X1265308Y834030D01*
X1264990Y833408D01*
X1264894Y833067D01*
X1264783Y832730D01*
X1264740Y832383D01*
X1264740Y832381D01*
X1264739Y832379D01*
X1264737Y832362D01*
X1264738Y832345D01*
X1264733Y832329D01*
X1264730Y832294D01*
X1264732Y832276D01*
X1264726Y832258D01*
X1264723Y832224D01*
X1264725Y832205D01*
X1264721Y832188D01*
X1264718Y832153D01*
X1264720Y832137D01*
X1264716Y832120D01*
X1264715Y832103D01*
X1264716Y832101D01*
X1264715Y832099D01*
X1264714Y832086D01*
X1264716Y832074D01*
X1264713Y832062D01*
X1264712Y832036D01*
X1264714Y832023D01*
X1264711Y832010D01*
X1264711Y831984D01*
X1264713Y831970D01*
X1264710Y831956D01*
X1264710Y831930D01*
X1264713Y831915D01*
X1264710Y831900D01*
X1264710Y831887D01*
Y789385D01*
X1264710Y789372D01*
X1264713Y789357D01*
X1264710Y789342D01*
X1264710Y789316D01*
X1264713Y789304D01*
X1264711Y789292D01*
X1264711Y789267D01*
X1264714Y789254D01*
X1264712Y789242D01*
X1264713Y789217D01*
X1264716Y789204D01*
X1264714Y789190D01*
X1264715Y789178D01*
X1264715Y789177D01*
X1264715Y789176D01*
X1264733Y788827D01*
X1264820Y788483D01*
X1264891Y788136D01*
X1265164Y787492D01*
X1265363Y787199D01*
X1265549Y786898D01*
X1266025Y786386D01*
X1266313Y786179D01*
X1266591Y785959D01*
X1267214Y785641D01*
X1267554Y785545D01*
X1267891Y785434D01*
X1268254Y785389D01*
X1268274Y785390D01*
X1268294Y785384D01*
X1268328Y785381D01*
X1268346Y785382D01*
X1268363Y785377D01*
X1268397Y785374D01*
X1268416Y785376D01*
X1268433Y785372D01*
X1268468Y785369D01*
X1268484Y785371D01*
X1268501Y785367D01*
X1268518Y785366D01*
X1268520Y785367D01*
X1268522Y785366D01*
X1268535Y785365D01*
X1268547Y785367D01*
X1268559Y785364D01*
X1268585Y785363D01*
X1268598Y785365D01*
X1268611Y785362D01*
X1268637Y785362D01*
X1268651Y785364D01*
X1268665Y785361D01*
X1268691Y785361D01*
X1268706Y785364D01*
X1268721Y785361D01*
X1268734Y785361D01*
X1279237D01*
X1279249Y785361D01*
X1279265Y785364D01*
X1279280Y785361D01*
X1279305Y785361D01*
X1279318Y785364D01*
X1279330Y785362D01*
X1279355Y785362D01*
X1279369Y785365D01*
X1279382Y785363D01*
X1279407Y785364D01*
X1279417Y785367D01*
X1279428Y785365D01*
X1279440Y785366D01*
X1279443Y785367D01*
X1279446Y785366D01*
X1279796Y785384D01*
X1280139Y785471D01*
X1280486Y785543D01*
X1281130Y785815D01*
X1281423Y786014D01*
X1281430Y786019D01*
X1282335Y785683D01*
X1282700Y785374D01*
Y781050D01*
X1314613D01*
Y760391D01*
X1310569Y756347D01*
X1159461D01*
X1146974Y768834D01*
X1146610Y769077D01*
Y778410D01*
X1138928D01*
X1136091Y781247D01*
X1136578Y782420D01*
X1138435D01*
Y789305D01*
X1132800D01*
Y786198D01*
X1131627Y785711D01*
X1130340Y786998D01*
Y797460D01*
X1117800D01*
Y782420D01*
X1125762D01*
X1128599Y779583D01*
X1128113Y778410D01*
X1119070D01*
Y769077D01*
X1118706Y768834D01*
X1104236Y754364D01*
X1090447D01*
X1089208Y754117D01*
X1088158Y753415D01*
X1085926Y751184D01*
X1085224Y750133D01*
X1084978Y748895D01*
Y739016D01*
X1082040Y736078D01*
X1068531Y749587D01*
X1069017Y750760D01*
X1071125D01*
Y758145D01*
X1065740D01*
Y754037D01*
X1064567Y753551D01*
X1062780Y755338D01*
Y766800D01*
X1059362D01*
Y776160D01*
X1061510D01*
Y792200D01*
X1049470D01*
Y787417D01*
X1010541D01*
X1005970Y791988D01*
Y804140D01*
X1005970Y804950D01*
X1005970Y806220D01*
Y822950D01*
X987930D01*
Y817417D01*
X972151D01*
X967620Y821948D01*
Y829410D01*
X962087D01*
Y841599D01*
X972128Y851640D01*
X978090D01*
Y862276D01*
X979360Y862802D01*
X988471Y853691D01*
X989521Y852989D01*
X990760Y852743D01*
X1060195D01*
X1061433Y852989D01*
X1062484Y853691D01*
X1156894Y948101D01*
X1157596Y949152D01*
X1157842Y950390D01*
Y1087374D01*
X1188007Y1117539D01*
X1189180Y1117053D01*
Y1110590D01*
X1209720D01*
Y1119530D01*
X1191657D01*
X1191171Y1120703D01*
X1193758Y1123290D01*
X1209720D01*
Y1132230D01*
X1191657D01*
X1191171Y1133403D01*
X1193758Y1135990D01*
X1209720D01*
Y1144930D01*
X1189180D01*
Y1140568D01*
X1163867Y1115255D01*
X1162900Y1115987D01*
X1163550Y1117557D01*
Y1119255D01*
X1162900Y1120825D01*
X1161699Y1122026D01*
X1160130Y1122676D01*
X1158431D01*
X1156861Y1122026D01*
X1155660Y1120825D01*
X1155010Y1119255D01*
Y1118798D01*
X1148793Y1112581D01*
X1147620Y1113067D01*
Y1119530D01*
X1127080D01*
Y1115168D01*
X1122886Y1110974D01*
X1122184Y1109924D01*
X1121938Y1108685D01*
Y957625D01*
X1122184Y956386D01*
X1122886Y955336D01*
X1128570Y949652D01*
Y949111D01*
X1129220Y947541D01*
X1130421Y946340D01*
X1131991Y945690D01*
X1133689D01*
X1135259Y946340D01*
X1136460Y947541D01*
X1137110Y949111D01*
Y950809D01*
X1136460Y952379D01*
X1135259Y953580D01*
X1133689Y954230D01*
X1133148D01*
X1128412Y958966D01*
Y1072490D01*
X1146288D01*
Y953835D01*
X1064895Y872443D01*
X1063625Y872969D01*
Y875181D01*
X1062889Y877927D01*
X1061468Y880388D01*
X1059458Y882398D01*
X1056997Y883819D01*
X1054251Y884555D01*
X1051409D01*
X1048663Y883819D01*
X1047830Y883338D01*
X995017Y936151D01*
Y973450D01*
X1003050D01*
Y980703D01*
X1004223Y981189D01*
X1023267Y962145D01*
Y925485D01*
X1023514Y924247D01*
X1024215Y923196D01*
X1043252Y904160D01*
X1042771Y903327D01*
X1042035Y900581D01*
Y897739D01*
X1042771Y894993D01*
X1044192Y892532D01*
X1046202Y890522D01*
X1048663Y889101D01*
X1051409Y888365D01*
X1054251D01*
X1056997Y889101D01*
X1059458Y890522D01*
X1061468Y892532D01*
X1062889Y894993D01*
X1063625Y897739D01*
Y900581D01*
X1062889Y903327D01*
X1061468Y905788D01*
X1059458Y907798D01*
X1056997Y909219D01*
X1054251Y909955D01*
X1051409D01*
X1048663Y909219D01*
X1047830Y908738D01*
X1029742Y926826D01*
Y941411D01*
X1030915Y941897D01*
X1043252Y929560D01*
X1042771Y928727D01*
X1042035Y925981D01*
Y923139D01*
X1042771Y920393D01*
X1044192Y917932D01*
X1046202Y915922D01*
X1048663Y914501D01*
X1051409Y913765D01*
X1054251D01*
X1056997Y914501D01*
X1059458Y915922D01*
X1061468Y917932D01*
X1062889Y920393D01*
X1063625Y923139D01*
Y925981D01*
X1062889Y928727D01*
X1061468Y931188D01*
X1059458Y933198D01*
X1056997Y934619D01*
X1054251Y935355D01*
X1051409D01*
X1048663Y934619D01*
X1047830Y934138D01*
X1034822Y947146D01*
Y961731D01*
X1035995Y962217D01*
X1043252Y954960D01*
X1042771Y954127D01*
X1042035Y951381D01*
Y948539D01*
X1042771Y945793D01*
X1044192Y943332D01*
X1046202Y941322D01*
X1048663Y939901D01*
X1051409Y939165D01*
X1054251D01*
X1056997Y939901D01*
X1059458Y941322D01*
X1061468Y943332D01*
X1062889Y945793D01*
X1063625Y948539D01*
Y951381D01*
X1062889Y954127D01*
X1061468Y956588D01*
X1059458Y958598D01*
X1056997Y960019D01*
X1054251Y960755D01*
X1051409D01*
X1048663Y960019D01*
X1047830Y959538D01*
X1039902Y967466D01*
Y978726D01*
X1039655Y979964D01*
X1038954Y981015D01*
X1005384Y1014584D01*
X1004334Y1015286D01*
X1003783Y1015396D01*
X1003050Y1016128D01*
Y1018903D01*
X1004223Y1019389D01*
X1043252Y980360D01*
X1042771Y979527D01*
X1042035Y976781D01*
Y973939D01*
X1042771Y971193D01*
X1044192Y968732D01*
X1046202Y966722D01*
X1048663Y965301D01*
X1051409Y964565D01*
X1054251D01*
X1056997Y965301D01*
X1059458Y966722D01*
X1061468Y968732D01*
X1062889Y971193D01*
X1063625Y973939D01*
Y976781D01*
X1062889Y979527D01*
X1061468Y981988D01*
X1059458Y983998D01*
X1056997Y985419D01*
X1054251Y986155D01*
X1051409D01*
X1048663Y985419D01*
X1047830Y984938D01*
X1003054Y1029714D01*
X1003050Y1029717D01*
Y1035790D01*
X1003050Y1035790D01*
Y1036950D01*
X1003050D01*
X1003050Y1037060D01*
Y1039483D01*
X1009529D01*
X1043252Y1005760D01*
X1042771Y1004927D01*
X1042035Y1002181D01*
Y999339D01*
X1042771Y996593D01*
X1044192Y994132D01*
X1046202Y992122D01*
X1048663Y990701D01*
X1051409Y989965D01*
X1054251D01*
X1056997Y990701D01*
X1059458Y992122D01*
X1061468Y994132D01*
X1062889Y996593D01*
X1063625Y999339D01*
Y1002181D01*
X1062889Y1004927D01*
X1061468Y1007388D01*
X1059458Y1009398D01*
X1056997Y1010819D01*
X1054251Y1011555D01*
X1051409D01*
X1048663Y1010819D01*
X1047830Y1010338D01*
X1013159Y1045009D01*
X1012109Y1045711D01*
X1010870Y1045957D01*
X1003050D01*
Y1048380D01*
X1003050Y1048490D01*
Y1049650D01*
X1003050Y1049760D01*
Y1052183D01*
X1018419D01*
X1021890Y1048712D01*
Y1048171D01*
X1022540Y1046601D01*
X1023741Y1045400D01*
X1025311Y1044750D01*
X1027009D01*
X1028579Y1045400D01*
X1029780Y1046601D01*
X1030430Y1048171D01*
Y1049869D01*
X1029780Y1051439D01*
X1028579Y1052640D01*
X1027009Y1053290D01*
X1026468D01*
X1022049Y1057709D01*
X1020999Y1058411D01*
X1019760Y1058657D01*
X1003050D01*
Y1061080D01*
X1003050Y1061190D01*
Y1062350D01*
X1003050Y1062460D01*
Y1073780D01*
X1003050Y1073890D01*
Y1075050D01*
X1003050Y1075160D01*
Y1086480D01*
X1003050Y1086590D01*
Y1087750D01*
X1003050Y1087860D01*
Y1090283D01*
X1040117D01*
X1041356Y1090529D01*
X1042406Y1091231D01*
X1045549Y1094374D01*
X1046202Y1093722D01*
X1048663Y1092301D01*
X1051409Y1091565D01*
X1054251D01*
X1056997Y1092301D01*
X1059458Y1093722D01*
X1061468Y1095732D01*
X1062889Y1098193D01*
X1063625Y1100939D01*
Y1103781D01*
X1062889Y1106527D01*
X1061468Y1108988D01*
X1059458Y1110998D01*
X1056997Y1112419D01*
X1054251Y1113155D01*
X1051409D01*
X1048663Y1112419D01*
X1046202Y1110998D01*
X1044192Y1108988D01*
X1042771Y1106527D01*
X1042035Y1103781D01*
Y1100939D01*
X1042230Y1100211D01*
X1038776Y1096757D01*
X1003050D01*
Y1099180D01*
X1003050Y1099290D01*
Y1100450D01*
X1003050Y1100560D01*
Y1102983D01*
X1031290D01*
X1032529Y1103229D01*
X1033579Y1103931D01*
X1047830Y1118182D01*
X1048663Y1117701D01*
X1051409Y1116965D01*
X1054251D01*
X1056997Y1117701D01*
X1059458Y1119122D01*
X1061468Y1121132D01*
X1062889Y1123593D01*
X1063625Y1126339D01*
Y1129181D01*
X1062889Y1131927D01*
X1061468Y1134388D01*
X1059458Y1136398D01*
X1056997Y1137819D01*
X1054251Y1138555D01*
X1051409D01*
X1048663Y1137819D01*
X1046202Y1136398D01*
X1044192Y1134388D01*
X1042771Y1131927D01*
X1042035Y1129181D01*
Y1126339D01*
X1042771Y1123593D01*
X1043252Y1122760D01*
X1029949Y1109457D01*
X1003050D01*
Y1111880D01*
X1003050Y1111990D01*
Y1113150D01*
X1003050Y1113260D01*
Y1117305D01*
X1007495D01*
X1008734Y1117551D01*
X1009784Y1118253D01*
X1038931Y1147400D01*
X1043691D01*
X1044192Y1146532D01*
X1046202Y1144522D01*
X1048663Y1143101D01*
X1051409Y1142365D01*
X1054251D01*
X1056997Y1143101D01*
X1059458Y1144522D01*
X1061468Y1146532D01*
X1062889Y1148993D01*
X1063625Y1151739D01*
Y1154581D01*
X1062889Y1157327D01*
X1061468Y1159788D01*
X1059458Y1161798D01*
X1056997Y1163219D01*
X1054251Y1163955D01*
X1051409D01*
X1048663Y1163219D01*
X1046202Y1161798D01*
X1044192Y1159788D01*
X1042771Y1157327D01*
X1042035Y1154581D01*
Y1153874D01*
X1037590D01*
X1036351Y1153628D01*
X1035301Y1152926D01*
X1006154Y1123779D01*
X1003988D01*
X1003050Y1124690D01*
Y1125850D01*
X1003050Y1125960D01*
Y1137280D01*
X1003050Y1137390D01*
Y1138550D01*
X1003050Y1138660D01*
Y1145512D01*
X1003783Y1146245D01*
X1004334Y1146354D01*
X1005384Y1147056D01*
X1007244Y1148916D01*
X1007946Y1149966D01*
X1008192Y1151205D01*
Y1154744D01*
X1047830Y1194382D01*
X1048663Y1193901D01*
X1051409Y1193165D01*
X1054251D01*
X1056997Y1193901D01*
X1059458Y1195322D01*
X1061468Y1197332D01*
X1062889Y1199793D01*
X1063625Y1202539D01*
Y1205381D01*
X1062889Y1208127D01*
X1061468Y1210588D01*
X1059458Y1212598D01*
X1056997Y1214019D01*
X1054251Y1214755D01*
X1051409D01*
X1048663Y1214019D01*
X1046202Y1212598D01*
X1044192Y1210588D01*
X1042771Y1208127D01*
X1042035Y1205381D01*
Y1202539D01*
X1042771Y1199793D01*
X1043252Y1198960D01*
X1031012Y1186720D01*
X1029742Y1187246D01*
Y1201694D01*
X1047830Y1219782D01*
X1048663Y1219301D01*
X1051409Y1218565D01*
X1054251D01*
X1056997Y1219301D01*
X1057830Y1219782D01*
X1090482Y1187130D01*
X1091533Y1186428D01*
X1092771Y1186181D01*
X1093951D01*
X1127080Y1153052D01*
Y1148690D01*
X1145006D01*
X1145532Y1147420D01*
X1143042Y1144930D01*
X1127080D01*
Y1135990D01*
X1147620D01*
Y1140352D01*
X1151814Y1144546D01*
X1152516Y1145596D01*
X1152762Y1146835D01*
Y1170375D01*
X1152516Y1171614D01*
X1151814Y1172664D01*
X1149954Y1174524D01*
X1148904Y1175226D01*
X1147665Y1175472D01*
X1136696D01*
X1062408Y1249760D01*
X1062889Y1250593D01*
X1063625Y1253339D01*
Y1256181D01*
X1062889Y1258927D01*
X1061468Y1261388D01*
X1059458Y1263398D01*
X1056997Y1264819D01*
X1054251Y1265555D01*
X1051409D01*
X1048663Y1264819D01*
X1046202Y1263398D01*
X1044192Y1261388D01*
X1042771Y1258927D01*
X1042035Y1256181D01*
Y1253339D01*
X1042771Y1250593D01*
X1043252Y1249760D01*
X1022951Y1229459D01*
X1021777Y1229945D01*
Y1244529D01*
X1047830Y1270582D01*
X1048663Y1270101D01*
X1051409Y1269365D01*
X1054251D01*
X1056997Y1270101D01*
X1059458Y1271522D01*
X1061468Y1273532D01*
X1062889Y1275993D01*
X1063625Y1278739D01*
Y1281581D01*
X1062889Y1284327D01*
X1061468Y1286788D01*
X1059458Y1288798D01*
X1056997Y1290219D01*
X1054251Y1290955D01*
X1051409D01*
X1048663Y1290219D01*
X1046202Y1288798D01*
X1044192Y1286788D01*
X1042771Y1284327D01*
X1042035Y1281581D01*
Y1278739D01*
X1042771Y1275993D01*
X1043252Y1275160D01*
X1017870Y1249779D01*
X1016697Y1250265D01*
Y1264849D01*
X1047830Y1295982D01*
X1048663Y1295501D01*
X1051409Y1294765D01*
X1054251D01*
X1056997Y1295501D01*
X1059458Y1296922D01*
X1061468Y1298932D01*
X1062889Y1301393D01*
X1063625Y1304139D01*
Y1306981D01*
X1062889Y1309727D01*
X1061468Y1312188D01*
X1059458Y1314198D01*
X1056997Y1315619D01*
X1054251Y1316355D01*
X1051409D01*
X1048663Y1315619D01*
X1046202Y1314198D01*
X1044192Y1312188D01*
X1042771Y1309727D01*
X1042035Y1306981D01*
Y1304139D01*
X1042771Y1301393D01*
X1043252Y1300560D01*
X1012791Y1270099D01*
X1011617Y1270585D01*
Y1285169D01*
X1047830Y1321382D01*
X1048663Y1320901D01*
X1051409Y1320165D01*
X1054251D01*
X1056997Y1320901D01*
X1059458Y1322322D01*
X1061468Y1324332D01*
X1062889Y1326793D01*
X1063625Y1329539D01*
Y1332381D01*
X1062889Y1335127D01*
X1061468Y1337588D01*
X1059458Y1339598D01*
X1056997Y1341019D01*
X1054251Y1341755D01*
D02*
G37*
G36*
X765175Y1322705D02*
X755015D01*
Y1312545D01*
X755801D01*
X758547Y1313281D01*
X761008Y1314702D01*
X763018Y1316712D01*
X764439Y1319173D01*
X765175Y1321919D01*
Y1322705D01*
D02*
G37*
G36*
X753745D02*
X743585D01*
Y1321919D01*
X744321Y1319173D01*
X745742Y1316712D01*
X747752Y1314702D01*
X750213Y1313281D01*
X752959Y1312545D01*
X753745D01*
Y1322705D01*
D02*
G37*
G36*
X1169225Y1243010D02*
X1165035D01*
X1160926Y1242193D01*
X1157055Y1240589D01*
X1153571Y1238261D01*
X1150609Y1235299D01*
X1148281Y1231815D01*
X1146677Y1227944D01*
X1145860Y1223835D01*
Y1219645D01*
X1146677Y1215536D01*
X1148281Y1211665D01*
X1150609Y1208181D01*
X1153571Y1205219D01*
X1157055Y1202891D01*
X1160926Y1201287D01*
X1165035Y1200470D01*
X1169225D01*
X1173334Y1201287D01*
X1177205Y1202891D01*
X1180689Y1205219D01*
X1183652Y1208181D01*
X1185979Y1211665D01*
X1187583Y1215536D01*
X1188400Y1219645D01*
Y1223835D01*
X1187583Y1227944D01*
X1185979Y1231815D01*
X1183652Y1235299D01*
X1180689Y1238261D01*
X1177205Y1240589D01*
X1173334Y1242193D01*
X1169225Y1243010D01*
D02*
G37*
G36*
X1054251Y1189355D02*
X1051409D01*
X1048663Y1188619D01*
X1046202Y1187198D01*
X1044192Y1185188D01*
X1042771Y1182727D01*
X1042035Y1179981D01*
Y1177139D01*
X1042771Y1174393D01*
X1044192Y1171932D01*
X1046202Y1169922D01*
X1048663Y1168501D01*
X1051409Y1167765D01*
X1054251D01*
X1056997Y1168501D01*
X1059458Y1169922D01*
X1061468Y1171932D01*
X1062889Y1174393D01*
X1063625Y1177139D01*
Y1179981D01*
X1062889Y1182727D01*
X1061468Y1185188D01*
X1059458Y1187198D01*
X1056997Y1188619D01*
X1054251Y1189355D01*
D02*
G37*
G36*
X1209720Y1170330D02*
X1200085D01*
Y1166495D01*
X1209720D01*
Y1170330D01*
D02*
G37*
G36*
X1198815D02*
X1189180D01*
Y1166495D01*
X1198815D01*
Y1170330D01*
D02*
G37*
G36*
X1209720Y1165225D02*
X1200085D01*
Y1161390D01*
X1209720D01*
Y1165225D01*
D02*
G37*
G36*
X1198815D02*
X1189180D01*
Y1161390D01*
X1198815D01*
Y1165225D01*
D02*
G37*
G36*
X1209720Y1157630D02*
X1189180D01*
Y1148690D01*
X1209720D01*
Y1157630D01*
D02*
G37*
G36*
X1147620Y1132230D02*
X1137985D01*
Y1128395D01*
X1147620D01*
Y1132230D01*
D02*
G37*
G36*
X1136715D02*
X1127080D01*
Y1128395D01*
X1136715D01*
Y1132230D01*
D02*
G37*
G36*
X1147620Y1127125D02*
X1137985D01*
Y1123290D01*
X1147620D01*
Y1127125D01*
D02*
G37*
G36*
X1136715D02*
X1127080D01*
Y1123290D01*
X1136715D01*
Y1127125D01*
D02*
G37*
G36*
X1209720Y1106830D02*
X1189180D01*
Y1097890D01*
X1209720D01*
Y1106830D01*
D02*
G37*
G36*
X1257025Y1105030D02*
Y1096645D01*
X1265410D01*
Y1105030D01*
X1257025D01*
D02*
G37*
G36*
X1265410Y1095375D02*
X1257025D01*
Y1086990D01*
X1265410D01*
Y1095375D01*
D02*
G37*
G36*
X1247370Y1105030D02*
X1246100Y1105030D01*
X1228870D01*
Y1091568D01*
X1210990Y1073688D01*
X1209720Y1074214D01*
Y1081430D01*
X1189180D01*
Y1072490D01*
X1207996D01*
X1208522Y1071220D01*
X1172866Y1035564D01*
X1172164Y1034514D01*
X1172044Y1033910D01*
X1160290D01*
Y1015870D01*
X1165323D01*
Y984050D01*
X1163790D01*
Y971510D01*
X1173330D01*
Y974543D01*
X1178229D01*
X1185764Y967008D01*
X1186814Y966306D01*
X1186619Y965050D01*
X1183790D01*
Y956510D01*
X1193330D01*
Y956510D01*
X1194600Y956732D01*
X1194610Y956731D01*
X1195260Y955161D01*
X1196461Y953960D01*
X1198031Y953310D01*
X1199729D01*
X1201299Y953960D01*
X1202500Y955161D01*
X1203150Y956731D01*
Y958429D01*
X1202500Y959999D01*
X1201299Y961200D01*
X1199729Y961850D01*
X1199188D01*
X1197969Y963069D01*
X1196919Y963771D01*
X1195680Y964017D01*
X1194228D01*
X1193739Y964506D01*
X1193594Y964941D01*
X1194361Y966060D01*
X1201432D01*
X1204700Y962792D01*
Y951662D01*
X1182756D01*
X1173330Y961088D01*
Y965050D01*
X1163790D01*
Y959797D01*
X1163768Y959685D01*
Y953406D01*
X1162476Y952114D01*
X1161774Y951064D01*
X1161528Y949825D01*
Y927518D01*
X1161661Y926850D01*
X1161590Y926679D01*
Y924981D01*
X1162240Y923411D01*
X1163441Y922210D01*
X1165011Y921560D01*
X1166709D01*
X1168279Y922210D01*
X1169480Y923411D01*
X1170130Y924981D01*
Y926679D01*
X1169480Y928249D01*
X1168279Y929450D01*
X1168002Y929565D01*
Y941429D01*
X1169272Y942258D01*
X1170010Y941952D01*
X1176991Y934971D01*
X1178041Y934269D01*
X1179280Y934023D01*
X1194809D01*
X1195191Y933640D01*
X1196761Y932990D01*
X1198459D01*
X1200029Y933640D01*
X1201230Y934841D01*
X1201880Y936411D01*
Y938109D01*
X1201230Y939679D01*
X1200029Y940880D01*
X1198459Y941530D01*
X1196761D01*
X1195191Y940880D01*
X1194809Y940497D01*
X1180621D01*
X1175210Y945908D01*
Y947038D01*
X1174560Y948608D01*
X1173359Y949809D01*
X1171789Y950459D01*
X1171161D01*
X1170175Y951729D01*
X1170242Y952065D01*
Y953360D01*
X1171415Y953846D01*
X1179126Y946136D01*
X1180176Y945434D01*
X1181415Y945188D01*
X1216785D01*
X1218024Y945434D01*
X1219074Y946136D01*
X1222759Y949821D01*
X1222995Y950174D01*
X1224200Y950330D01*
X1224200Y950330D01*
X1231662D01*
X1262261Y919731D01*
X1263311Y919029D01*
X1264550Y918783D01*
X1310833D01*
X1311359Y917513D01*
X1308321Y914475D01*
X1303530D01*
X1302599Y914860D01*
X1300901D01*
X1299331Y914210D01*
X1298130Y913009D01*
X1297480Y911439D01*
Y909741D01*
X1298130Y908171D01*
X1299331Y906970D01*
X1300901Y906320D01*
X1302599D01*
X1303530Y906705D01*
X1310640D01*
X1312127Y907001D01*
X1313387Y907843D01*
X1314229Y909103D01*
X1314301Y909468D01*
X1315241Y910407D01*
X1316450Y909820D01*
Y902260D01*
X1320103D01*
Y900521D01*
X1319100Y899850D01*
X1317714Y897776D01*
X1317227Y895330D01*
X1317714Y892884D01*
X1319100Y890810D01*
X1321174Y889424D01*
X1323620Y888937D01*
X1334620D01*
X1337066Y889424D01*
X1339140Y890810D01*
X1340526Y892884D01*
X1341013Y895330D01*
X1340526Y897776D01*
X1339140Y899850D01*
X1337066Y901236D01*
X1334620Y901723D01*
X1331537D01*
X1330490Y902260D01*
Y903535D01*
X1331760Y904384D01*
X1332976Y903880D01*
X1335264D01*
X1337377Y904755D01*
X1338995Y906373D01*
X1339870Y908486D01*
Y910774D01*
X1338995Y912887D01*
X1337377Y914505D01*
X1335264Y915380D01*
X1332976D01*
X1331760Y914876D01*
X1330490Y915725D01*
Y923260D01*
Y933260D01*
Y943260D01*
Y953260D01*
Y961335D01*
X1331760Y962184D01*
X1332976Y961680D01*
X1335264D01*
X1337377Y962555D01*
X1338995Y964173D01*
X1339870Y966286D01*
Y968574D01*
X1338995Y970687D01*
X1337377Y972305D01*
X1335264Y973180D01*
X1332976D01*
X1331760Y972676D01*
X1330490Y973525D01*
Y974800D01*
X1331537Y975337D01*
X1334620D01*
X1337066Y975824D01*
X1339140Y977210D01*
X1340526Y979284D01*
X1341013Y981730D01*
X1340526Y984176D01*
X1339140Y986250D01*
X1337066Y987636D01*
X1334620Y988123D01*
X1324998D01*
X1324359Y989079D01*
X1241127Y1072311D01*
Y1086990D01*
X1246100D01*
X1246910Y1086990D01*
X1248180Y1086990D01*
X1255755D01*
Y1096010D01*
Y1105030D01*
X1248180D01*
X1247370Y1105030D01*
D02*
G37*
G36*
X1209720Y1094130D02*
X1189180D01*
Y1085190D01*
X1209720D01*
Y1094130D01*
D02*
G37*
G36*
X1054251Y1087755D02*
X1051409D01*
X1048663Y1087019D01*
X1046202Y1085598D01*
X1044192Y1083588D01*
X1042771Y1081127D01*
X1042035Y1078381D01*
Y1075539D01*
X1042771Y1072793D01*
X1044192Y1070332D01*
X1046202Y1068322D01*
X1048663Y1066901D01*
X1051409Y1066165D01*
X1054251D01*
X1056997Y1066901D01*
X1059458Y1068322D01*
X1061468Y1070332D01*
X1062889Y1072793D01*
X1063625Y1075539D01*
Y1078381D01*
X1062889Y1081127D01*
X1061468Y1083588D01*
X1059458Y1085598D01*
X1056997Y1087019D01*
X1054251Y1087755D01*
D02*
G37*
G36*
Y1062355D02*
X1051409D01*
X1048663Y1061619D01*
X1046202Y1060198D01*
X1044192Y1058188D01*
X1042771Y1055727D01*
X1042035Y1052981D01*
Y1050139D01*
X1042771Y1047393D01*
X1044192Y1044932D01*
X1046202Y1042922D01*
X1048663Y1041501D01*
X1051409Y1040765D01*
X1054251D01*
X1056997Y1041501D01*
X1059458Y1042922D01*
X1061468Y1044932D01*
X1062889Y1047393D01*
X1063625Y1050139D01*
Y1052981D01*
X1062889Y1055727D01*
X1061468Y1058188D01*
X1059458Y1060198D01*
X1056997Y1061619D01*
X1054251Y1062355D01*
D02*
G37*
G36*
Y1036955D02*
X1051409D01*
X1048663Y1036219D01*
X1046202Y1034798D01*
X1044192Y1032788D01*
X1042771Y1030327D01*
X1042035Y1027581D01*
Y1024739D01*
X1042771Y1021993D01*
X1044192Y1019532D01*
X1046202Y1017522D01*
X1048663Y1016101D01*
X1051409Y1015365D01*
X1054251D01*
X1056997Y1016101D01*
X1059458Y1017522D01*
X1061468Y1019532D01*
X1062889Y1021993D01*
X1063625Y1024739D01*
Y1027581D01*
X1062889Y1030327D01*
X1061468Y1032788D01*
X1059458Y1034798D01*
X1056997Y1036219D01*
X1054251Y1036955D01*
D02*
G37*
G36*
X1374920Y988123D02*
X1366920D01*
X1364474Y987636D01*
X1362400Y986250D01*
X1361014Y984176D01*
X1360527Y981730D01*
X1361014Y979284D01*
X1362400Y977210D01*
X1364474Y975824D01*
X1366920Y975337D01*
X1374920D01*
X1377366Y975824D01*
X1379440Y977210D01*
X1380826Y979284D01*
X1381313Y981730D01*
X1380826Y984176D01*
X1379440Y986250D01*
X1377366Y987636D01*
X1374920Y988123D01*
D02*
G37*
G36*
X1239320Y916840D02*
X1233685D01*
Y909955D01*
X1239320D01*
Y916840D01*
D02*
G37*
G36*
X1232415D02*
X1226780D01*
Y909955D01*
X1232415D01*
Y916840D01*
D02*
G37*
G36*
X1239320Y908685D02*
X1233685D01*
Y901800D01*
X1239320D01*
Y908685D01*
D02*
G37*
G36*
X1374920Y901723D02*
X1366920D01*
X1364474Y901236D01*
X1362400Y899850D01*
X1361014Y897776D01*
X1360527Y895330D01*
X1361014Y892884D01*
X1362400Y890810D01*
X1364474Y889424D01*
X1366920Y888937D01*
X1374920D01*
X1377366Y889424D01*
X1379440Y890810D01*
X1380826Y892884D01*
X1381313Y895330D01*
X1380826Y897776D01*
X1379440Y899850D01*
X1377366Y901236D01*
X1374920Y901723D01*
D02*
G37*
G36*
X1203640Y872390D02*
X1198005D01*
Y865505D01*
X1203640D01*
Y872390D01*
D02*
G37*
G36*
X1196735D02*
X1191100D01*
Y865505D01*
X1196735D01*
Y872390D01*
D02*
G37*
G36*
X1203640Y864235D02*
X1198005D01*
Y857350D01*
X1203640D01*
Y864235D01*
D02*
G37*
G36*
X1196735D02*
X1191100D01*
Y857350D01*
X1196735D01*
Y864235D01*
D02*
G37*
G36*
X1161730Y853340D02*
X1156095D01*
Y846455D01*
X1161730D01*
Y853340D01*
D02*
G37*
G36*
X1154825D02*
X1149190D01*
Y846455D01*
X1154825D01*
Y853340D01*
D02*
G37*
G36*
X1145340Y797460D02*
X1139705D01*
Y790575D01*
X1145340D01*
Y797460D01*
D02*
G37*
G36*
X1138435D02*
X1132800D01*
Y790575D01*
X1138435D01*
Y797460D01*
D02*
G37*
G36*
X1076510Y792200D02*
X1071125D01*
Y784815D01*
X1076510D01*
Y792200D01*
D02*
G37*
G36*
X1069855D02*
X1064470D01*
Y784815D01*
X1069855D01*
Y792200D01*
D02*
G37*
G36*
X1145340Y789305D02*
X1139705D01*
Y782420D01*
X1145340D01*
Y789305D01*
D02*
G37*
G36*
X1076510Y783545D02*
X1071125D01*
Y776160D01*
X1076510D01*
Y783545D01*
D02*
G37*
G36*
X1069855D02*
X1064470D01*
Y776160D01*
X1069855D01*
Y783545D01*
D02*
G37*
G36*
X1077780Y766800D02*
X1072395D01*
Y759415D01*
X1077780D01*
Y766800D01*
D02*
G37*
G36*
X1071125D02*
X1065740D01*
Y759415D01*
X1071125D01*
Y766800D01*
D02*
G37*
G36*
X1077780Y758145D02*
X1072395D01*
Y750760D01*
X1077780D01*
Y758145D01*
D02*
G37*
G36*
X1284590Y737290D02*
X1267050D01*
Y725750D01*
X1284590D01*
Y737290D01*
D02*
G37*
%LPD*%
G36*
X1105666Y1197346D02*
X1105220Y1195995D01*
X1104970Y1195958D01*
X1104779Y1196150D01*
X1103209Y1196800D01*
X1101511D01*
X1099941Y1196150D01*
X1098740Y1194949D01*
X1098090Y1193379D01*
Y1192895D01*
X1096820Y1192216D01*
X1096530Y1192409D01*
X1095292Y1192656D01*
X1094112D01*
X1062408Y1224360D01*
X1062889Y1225193D01*
X1063625Y1227939D01*
Y1230781D01*
X1062889Y1233527D01*
X1061468Y1235988D01*
X1059458Y1237998D01*
X1056997Y1239419D01*
X1054251Y1240155D01*
X1051409D01*
X1048663Y1239419D01*
X1046202Y1237998D01*
X1044192Y1235988D01*
X1042771Y1233527D01*
X1042035Y1230781D01*
Y1227939D01*
X1042771Y1225193D01*
X1043252Y1224360D01*
X1028127Y1209235D01*
X1026857Y1209761D01*
Y1224209D01*
X1047830Y1245182D01*
X1048663Y1244701D01*
X1051409Y1243965D01*
X1054251D01*
X1056997Y1244701D01*
X1057830Y1245182D01*
X1105666Y1197346D01*
D02*
G37*
G36*
X790765Y1078531D02*
X791816Y1077829D01*
X793054Y1077583D01*
X810510D01*
Y1075050D01*
X810510D01*
Y1073890D01*
X810510D01*
Y1071357D01*
X789703D01*
X776731Y1084329D01*
X775681Y1085031D01*
X774442Y1085277D01*
X761980D01*
X761454Y1086547D01*
X763018Y1088112D01*
X764439Y1090573D01*
X764688Y1091503D01*
X777794D01*
X790765Y1078531D01*
D02*
G37*
G36*
X810510Y1049650D02*
X810510D01*
Y1048490D01*
X810510D01*
Y1045957D01*
X780851D01*
X780365Y1047131D01*
X785417Y1052183D01*
X810510D01*
Y1049650D01*
D02*
G37*
G36*
X770791Y1039529D02*
X759380Y1028118D01*
X758547Y1028599D01*
X755801Y1029335D01*
X752959D01*
X750213Y1028599D01*
X747752Y1027178D01*
X745742Y1025168D01*
X744321Y1022707D01*
X743585Y1019961D01*
Y1017119D01*
X744321Y1014373D01*
X745742Y1011912D01*
X747752Y1009902D01*
X750213Y1008481D01*
X752959Y1007745D01*
X755801D01*
X758547Y1008481D01*
X761008Y1009902D01*
X763018Y1011912D01*
X764439Y1014373D01*
X765175Y1017119D01*
Y1019961D01*
X764439Y1022707D01*
X763958Y1023540D01*
X779901Y1039483D01*
X810510D01*
Y1036950D01*
X810510D01*
Y1035790D01*
X810510D01*
Y1033257D01*
X791260D01*
X790021Y1033011D01*
X788971Y1032309D01*
X759380Y1002718D01*
X758547Y1003199D01*
X755801Y1003935D01*
X752959D01*
X750213Y1003199D01*
X747752Y1001778D01*
X745742Y999768D01*
X744321Y997307D01*
X743585Y994561D01*
Y991719D01*
X744321Y988973D01*
X745742Y986512D01*
X747599Y984654D01*
X747665Y984369D01*
X747659Y984010D01*
X747503Y983179D01*
X746831Y982729D01*
X574753Y810652D01*
X574752Y810650D01*
X572589D01*
X569786Y809899D01*
X567274Y808448D01*
X565222Y806396D01*
X563771Y803884D01*
X563307Y802153D01*
X562037Y802320D01*
Y846940D01*
X563307Y847107D01*
X563771Y845376D01*
X565222Y842864D01*
X567274Y840812D01*
X569786Y839361D01*
X572589Y838610D01*
X575491D01*
X578294Y839361D01*
X580806Y840812D01*
X582858Y842864D01*
X584309Y845376D01*
X585060Y848179D01*
Y851081D01*
X584309Y853884D01*
X582858Y856396D01*
X580806Y858448D01*
X578294Y859899D01*
X575491Y860650D01*
X572589D01*
X569786Y859899D01*
X568146Y858952D01*
X567366Y859968D01*
X594109Y886711D01*
X594811Y887761D01*
X595057Y889000D01*
Y910590D01*
X594811Y911829D01*
X594109Y912879D01*
X569432Y937556D01*
Y1009107D01*
X570702Y1009633D01*
X572354Y1007982D01*
X574866Y1006531D01*
X577669Y1005780D01*
X580571D01*
X583374Y1006531D01*
X585886Y1007982D01*
X587938Y1010034D01*
X589389Y1012547D01*
X590140Y1015349D01*
Y1018251D01*
X589389Y1021054D01*
X587938Y1023567D01*
X585886Y1025618D01*
X583374Y1027069D01*
X580571Y1027820D01*
X578235D01*
X577709Y1029090D01*
X589322Y1040703D01*
X744072D01*
X744321Y1039773D01*
X745742Y1037312D01*
X747752Y1035302D01*
X750213Y1033881D01*
X752959Y1033145D01*
X755801D01*
X758547Y1033881D01*
X761008Y1035302D01*
X763018Y1037312D01*
X764439Y1039773D01*
X764688Y1040703D01*
X770305D01*
X770791Y1039529D01*
D02*
G37*
G36*
X810510Y1024250D02*
X810510D01*
Y1023090D01*
X810510D01*
Y1020557D01*
X796520D01*
X795282Y1020311D01*
X794231Y1019609D01*
X766445Y991823D01*
X765175Y992349D01*
Y994561D01*
X764439Y997307D01*
X763958Y998140D01*
X792601Y1026783D01*
X810510D01*
Y1024250D01*
D02*
G37*
G36*
Y1011550D02*
X810510D01*
Y1010390D01*
X810510D01*
Y1003428D01*
X809777Y1002695D01*
X809226Y1002586D01*
X808176Y1001884D01*
X806316Y1000024D01*
X805614Y998974D01*
X805410Y997948D01*
X759380Y951918D01*
X758547Y952399D01*
X755801Y953135D01*
X752959D01*
X750213Y952399D01*
X747752Y950978D01*
X745742Y948968D01*
X744321Y946507D01*
X743585Y943761D01*
Y940919D01*
X744321Y938173D01*
X745742Y935712D01*
X747752Y933702D01*
X750213Y932281D01*
X752959Y931545D01*
X755801D01*
X758547Y932281D01*
X761008Y933702D01*
X763018Y935712D01*
X764439Y938173D01*
X765175Y940919D01*
Y943761D01*
X764439Y946507D01*
X763958Y947340D01*
X809337Y992719D01*
X810510Y992233D01*
Y990728D01*
X809777Y989995D01*
X809226Y989886D01*
X808176Y989184D01*
X806316Y987324D01*
X805614Y986274D01*
X805368Y985035D01*
Y972506D01*
X759380Y926518D01*
X758547Y926999D01*
X755801Y927735D01*
X752959D01*
X750213Y926999D01*
X747752Y925578D01*
X745742Y923568D01*
X744321Y921107D01*
X743585Y918361D01*
Y915519D01*
X744321Y912773D01*
X745742Y910312D01*
X747752Y908302D01*
X750213Y906881D01*
X752959Y906145D01*
X755801D01*
X758547Y906881D01*
X761008Y908302D01*
X763018Y910312D01*
X764439Y912773D01*
X765175Y915519D01*
Y918361D01*
X764439Y921107D01*
X763958Y921940D01*
X810894Y968876D01*
X811596Y969926D01*
X811842Y971165D01*
Y973450D01*
X818543D01*
Y960281D01*
X759380Y901118D01*
X758547Y901599D01*
X755801Y902335D01*
X752959D01*
X750213Y901599D01*
X747752Y900178D01*
X745742Y898168D01*
X744321Y895707D01*
X743585Y892961D01*
Y890119D01*
X744321Y887373D01*
X745742Y884912D01*
X747752Y882902D01*
X750213Y881481D01*
X752959Y880745D01*
X755801D01*
X758547Y881481D01*
X761008Y882902D01*
X763018Y884912D01*
X764439Y887373D01*
X765175Y890119D01*
Y892961D01*
X764439Y895707D01*
X763958Y896540D01*
X824069Y956651D01*
X824771Y957701D01*
X825017Y958940D01*
Y973450D01*
X828763D01*
X829249Y972277D01*
X828796Y971824D01*
X828094Y970774D01*
X827848Y969535D01*
Y875475D01*
X828094Y874236D01*
X828796Y873186D01*
X832990Y868992D01*
Y858530D01*
X834963D01*
Y830680D01*
X829430D01*
Y818640D01*
X846970D01*
Y821423D01*
X855247D01*
X859183Y817486D01*
X860234Y816784D01*
X861472Y816538D01*
X871090D01*
Y805410D01*
X871090Y805410D01*
Y804950D01*
X871090D01*
X871090Y804140D01*
Y791988D01*
X865499Y786397D01*
X846970D01*
Y789180D01*
X829430D01*
Y781427D01*
X828257Y780941D01*
X757617Y851581D01*
Y855832D01*
X758547Y856081D01*
X761008Y857502D01*
X763018Y859512D01*
X764439Y861973D01*
X765175Y864719D01*
Y867561D01*
X764439Y870307D01*
X763018Y872768D01*
X761008Y874778D01*
X758547Y876199D01*
X755801Y876935D01*
X752959D01*
X750213Y876199D01*
X747752Y874778D01*
X745742Y872768D01*
X744321Y870307D01*
X743585Y867561D01*
Y864719D01*
X744321Y861973D01*
X745742Y859512D01*
X747752Y857502D01*
X750213Y856081D01*
X751143Y855832D01*
Y850240D01*
X751389Y849001D01*
X752091Y847951D01*
X837406Y762636D01*
X838456Y761934D01*
X839695Y761688D01*
X854030D01*
Y753360D01*
X858313D01*
Y740540D01*
X848590D01*
Y740540D01*
X848130D01*
Y740540D01*
X830590D01*
Y722500D01*
X834853D01*
Y711330D01*
X829320D01*
Y706817D01*
X677040D01*
Y712600D01*
X677040D01*
Y713060D01*
X677040D01*
Y731100D01*
X659000D01*
Y725965D01*
X653749D01*
X652472Y726219D01*
X651760Y726803D01*
Y736010D01*
X646227D01*
Y740455D01*
X645981Y741694D01*
X645279Y742744D01*
X618368Y769655D01*
X617318Y770357D01*
X616079Y770603D01*
X582715D01*
X562037Y791281D01*
Y796940D01*
X563307Y797107D01*
X563771Y795377D01*
X565222Y792864D01*
X567274Y790812D01*
X569786Y789361D01*
X572589Y788610D01*
X575491D01*
X578294Y789361D01*
X580806Y790812D01*
X582858Y792864D01*
X584309Y795377D01*
X585060Y798179D01*
Y801081D01*
X584309Y803884D01*
X582858Y806396D01*
X581256Y807999D01*
X742315Y969057D01*
X743585Y968531D01*
Y966319D01*
X744321Y963573D01*
X745742Y961112D01*
X747752Y959102D01*
X750213Y957681D01*
X752959Y956945D01*
X755801D01*
X758547Y957681D01*
X761008Y959102D01*
X763018Y961112D01*
X764439Y963573D01*
X765175Y966319D01*
Y969161D01*
X764439Y971907D01*
X763018Y974368D01*
X761161Y976226D01*
X761095Y976512D01*
X761101Y976870D01*
X761257Y977701D01*
X761929Y978151D01*
X797861Y1014083D01*
X810510D01*
Y1011550D01*
D02*
G37*
G36*
X980510Y1202050D02*
X980510Y1202050D01*
Y1200890D01*
X980510D01*
X980510Y1200780D01*
Y1189350D01*
X980510Y1189350D01*
Y1188190D01*
X980510D01*
X980510Y1188080D01*
Y1176650D01*
X980510Y1176650D01*
Y1175490D01*
X980510D01*
X980510Y1175380D01*
Y1163950D01*
X980510Y1163950D01*
Y1162790D01*
X980510D01*
X980510Y1162680D01*
Y1151250D01*
X980510D01*
Y1150090D01*
X980510D01*
Y1138660D01*
X980510Y1138550D01*
Y1137390D01*
X980510Y1137280D01*
Y1125960D01*
X980510Y1125850D01*
Y1124690D01*
X980510Y1124580D01*
Y1113260D01*
X980510Y1113150D01*
Y1111990D01*
X980510Y1111880D01*
Y1100560D01*
X980510Y1100450D01*
Y1099290D01*
X980510Y1099180D01*
Y1087860D01*
X980510Y1087750D01*
Y1086590D01*
X980510Y1086480D01*
Y1075160D01*
X980510Y1075050D01*
Y1073890D01*
X980510Y1073780D01*
Y1062460D01*
X980510Y1062350D01*
Y1061190D01*
X980510Y1061080D01*
Y1049760D01*
X980510Y1049650D01*
Y1048490D01*
X980510Y1048380D01*
Y1041528D01*
X979777Y1040796D01*
X979226Y1040686D01*
X978176Y1039984D01*
X976316Y1038124D01*
X975614Y1037074D01*
X975505Y1036523D01*
X938781Y999799D01*
X938079Y998749D01*
X937833Y997510D01*
Y959381D01*
X920719Y942268D01*
X919696Y941584D01*
X885441Y907329D01*
X884739Y906279D01*
X884493Y905040D01*
Y890334D01*
X884328Y889505D01*
Y874135D01*
X884574Y872896D01*
X885276Y871846D01*
X887136Y869986D01*
X888186Y869284D01*
X889425Y869038D01*
X918815D01*
X920406Y867446D01*
X921457Y866744D01*
X922695Y866498D01*
X959154D01*
X967550Y858102D01*
Y856218D01*
X956561Y845229D01*
X955859Y844179D01*
X955613Y842940D01*
Y829410D01*
X950080D01*
Y817370D01*
X963042D01*
X968521Y811891D01*
X969571Y811189D01*
X970810Y810943D01*
X987930D01*
Y806220D01*
X987930Y805410D01*
X987930Y804140D01*
Y791988D01*
X981069Y785127D01*
X967620D01*
Y787910D01*
X954658D01*
X947285Y795283D01*
X947942Y796422D01*
X948994Y796140D01*
X950706D01*
X952359Y796583D01*
X953841Y797439D01*
X955051Y798649D01*
X955907Y800131D01*
X956350Y801784D01*
Y803496D01*
X955907Y805149D01*
X955051Y806631D01*
X953841Y807841D01*
X952359Y808697D01*
X950706Y809140D01*
X948994D01*
X947341Y808697D01*
X945859Y807841D01*
X944649Y806631D01*
X943793Y805149D01*
X943350Y803496D01*
Y801784D01*
X943770Y800216D01*
X943404Y799680D01*
X942859Y799209D01*
X941810Y799417D01*
X890913D01*
X890673Y800687D01*
X891464Y801216D01*
X893324Y803076D01*
X894026Y804126D01*
X894272Y805365D01*
Y839382D01*
X894026Y840621D01*
X893324Y841671D01*
X892000Y842996D01*
Y844129D01*
X891350Y845699D01*
X890149Y846900D01*
X888579Y847550D01*
X886881D01*
X885311Y846900D01*
X884110Y845699D01*
X883460Y844129D01*
Y842431D01*
X884110Y840861D01*
X885311Y839660D01*
X886793Y839046D01*
X887798Y838042D01*
Y822950D01*
X874828D01*
X874515Y823012D01*
X862813D01*
X858876Y826949D01*
X857826Y827651D01*
X856588Y827897D01*
X846970D01*
Y830680D01*
X841437D01*
Y858530D01*
X846042D01*
X846355Y858468D01*
X872782D01*
X873588Y857661D01*
X874639Y856959D01*
X875878Y856713D01*
X898970D01*
Y854180D01*
X909510D01*
Y865720D01*
X898970D01*
Y863187D01*
X877218D01*
X876412Y863994D01*
X875361Y864696D01*
X874122Y864942D01*
X851030D01*
Y873570D01*
X837568D01*
X834322Y876816D01*
Y879030D01*
X841375D01*
Y886550D01*
Y894070D01*
X834322D01*
Y932671D01*
X835592Y932924D01*
X835850Y932301D01*
X837051Y931100D01*
X838621Y930450D01*
X839162D01*
X844801Y924811D01*
X845851Y924109D01*
X847090Y923863D01*
X854220D01*
Y918080D01*
X860003D01*
Y905884D01*
X858641Y905320D01*
X857440Y904119D01*
X856790Y902549D01*
Y900851D01*
X857440Y899281D01*
X858641Y898080D01*
X860211Y897430D01*
X861909D01*
X863479Y898080D01*
X864680Y899281D01*
X865330Y900851D01*
Y901984D01*
X865529Y902184D01*
X866231Y903234D01*
X866477Y904473D01*
Y918080D01*
X871450D01*
X872260Y918080D01*
X873530Y918080D01*
X881105D01*
Y927100D01*
Y936120D01*
X873530D01*
X872720Y936120D01*
X871450Y936120D01*
X866477D01*
Y1097939D01*
X875088Y1106550D01*
X923050D01*
Y1129583D01*
X946130D01*
X947369Y1129829D01*
X948419Y1130531D01*
X956618Y1138730D01*
X957159D01*
X958729Y1139380D01*
X959930Y1140581D01*
X960580Y1142151D01*
Y1143849D01*
X959930Y1145419D01*
X958729Y1146620D01*
X957159Y1147270D01*
X955461D01*
X953891Y1146620D01*
X952690Y1145419D01*
X952040Y1143849D01*
Y1143308D01*
X944789Y1136057D01*
X923050D01*
Y1159090D01*
X900017D01*
Y1204583D01*
X980510D01*
Y1202050D01*
D02*
G37*
G36*
X922030Y933103D02*
Y923928D01*
X892451Y894349D01*
X892237Y894029D01*
X890967Y894414D01*
Y903699D01*
X920857Y933589D01*
X922030Y933103D01*
D02*
G37*
G36*
X588583Y909249D02*
Y890341D01*
X585961Y887719D01*
X585060Y888614D01*
Y910650D01*
X568514D01*
X566248Y912916D01*
X564987Y913758D01*
X563501Y914054D01*
X563062D01*
X562685Y914431D01*
Y933468D01*
X563746Y933866D01*
X563955Y933877D01*
X588583Y909249D01*
D02*
G37*
G36*
X942530Y919350D02*
X952992D01*
X964073Y908269D01*
Y892920D01*
X964319Y891681D01*
X965021Y890631D01*
X973908Y881744D01*
X973282Y880574D01*
X972913Y880647D01*
X968590D01*
Y883180D01*
X962628D01*
X957632Y888176D01*
Y896085D01*
X957570Y896398D01*
Y909450D01*
X942530D01*
Y891410D01*
X951158D01*
Y886835D01*
X951404Y885596D01*
X952106Y884546D01*
X958050Y878602D01*
Y872972D01*
X924036D01*
X922445Y874564D01*
X921394Y875266D01*
X920155Y875512D01*
X919010D01*
Y881142D01*
X927494Y889626D01*
X928196Y890676D01*
X928342Y891410D01*
X937070D01*
Y909450D01*
X922030D01*
Y896398D01*
X921968Y896085D01*
Y893256D01*
X914432Y885720D01*
X908470D01*
Y875512D01*
X900010D01*
Y885720D01*
X897977D01*
Y890719D01*
X926608Y919350D01*
X937070D01*
Y932812D01*
X940316Y936058D01*
X942530D01*
Y919350D01*
D02*
G37*
G36*
X980510Y1030713D02*
Y1024360D01*
X980510Y1024250D01*
X980510D01*
Y1023090D01*
X980510D01*
Y1011660D01*
X980510Y1011550D01*
X980510D01*
Y1010390D01*
X980510D01*
Y998960D01*
X980510Y998850D01*
X980510D01*
Y997690D01*
X980510D01*
Y986260D01*
X980510Y986150D01*
X980510D01*
Y984990D01*
X980510D01*
Y973450D01*
X988543D01*
Y934810D01*
X988789Y933571D01*
X989491Y932521D01*
X1043252Y878760D01*
X1042771Y877927D01*
X1042035Y875181D01*
Y872339D01*
X1042771Y869593D01*
X1044192Y867132D01*
X1045756Y865567D01*
X1045230Y864297D01*
X1038991D01*
X961704Y941584D01*
X960654Y942286D01*
X959415Y942532D01*
X938975D01*
X937736Y942286D01*
X936686Y941584D01*
X932492Y937390D01*
X926657D01*
X926171Y938563D01*
X943359Y955751D01*
X944061Y956802D01*
X944307Y958040D01*
Y996169D01*
X979337Y1031199D01*
X980510Y1030713D01*
D02*
G37*
G36*
X1033742Y860390D02*
X1033256Y859217D01*
X992101D01*
X980851Y870467D01*
X981337Y871640D01*
X987590D01*
Y883180D01*
X981628D01*
X970547Y894261D01*
Y909610D01*
X970301Y910849D01*
X969599Y911899D01*
X957570Y923928D01*
Y934766D01*
X958840Y935292D01*
X1033742Y860390D01*
D02*
G37*
G36*
X950080Y783332D02*
Y781052D01*
X949873Y780010D01*
Y769750D01*
X944840D01*
Y751710D01*
X949873D01*
Y746290D01*
X950119Y745051D01*
X950821Y744001D01*
X961335Y733487D01*
X961242Y732217D01*
X941165D01*
Y733650D01*
X941027Y734341D01*
X940636Y734926D01*
X940051Y735317D01*
X939360Y735455D01*
X930360D01*
X929669Y735317D01*
X929084Y734926D01*
X928693Y734341D01*
X928555Y733650D01*
Y714150D01*
X928693Y713459D01*
X929084Y712874D01*
X929669Y712483D01*
X930360Y712345D01*
X931623D01*
Y707390D01*
X931869Y706151D01*
X932571Y705101D01*
X961400Y676272D01*
Y669187D01*
X960336Y668976D01*
X959286Y668274D01*
X914982Y623970D01*
X907020D01*
Y607930D01*
X910053D01*
Y590390D01*
X910299Y589151D01*
X911001Y588101D01*
X919020Y580082D01*
Y579541D01*
X919670Y577971D01*
X920871Y576770D01*
X922441Y576120D01*
X924139D01*
X925709Y576770D01*
X926910Y577971D01*
X927560Y579541D01*
Y581239D01*
X926910Y582809D01*
X925709Y584010D01*
X924139Y584660D01*
X923598D01*
X916527Y591731D01*
Y607930D01*
X919560D01*
Y619392D01*
X962916Y662748D01*
X964575D01*
X964888Y662810D01*
X978130D01*
X978940Y662810D01*
X980210Y662810D01*
X987535D01*
Y671830D01*
Y680850D01*
X980210D01*
X979400Y680850D01*
X978130Y680850D01*
X965978D01*
X938097Y708731D01*
Y712345D01*
X939360D01*
X940051Y712483D01*
X940636Y712874D01*
X941027Y713459D01*
X941165Y714150D01*
Y725743D01*
X961400D01*
Y719960D01*
X966933D01*
Y710060D01*
X961400D01*
Y692020D01*
X978130D01*
X978940Y692020D01*
X980210Y692020D01*
X987535D01*
Y701040D01*
Y710060D01*
X980210D01*
X979400Y710060D01*
X978130Y710060D01*
X973407D01*
Y719960D01*
X978130D01*
X978940Y719960D01*
X980210Y719960D01*
X987535D01*
Y728980D01*
Y738000D01*
X980210D01*
X979400Y738000D01*
X978130Y738000D01*
X965978D01*
X956347Y747631D01*
Y751710D01*
X961380D01*
Y769750D01*
X956347D01*
Y775870D01*
X967620D01*
Y778653D01*
X982410D01*
X983649Y778899D01*
X984699Y779601D01*
X992508Y787410D01*
X1001392D01*
X1006911Y781891D01*
X1007961Y781189D01*
X1009200Y780943D01*
X1049470D01*
Y776160D01*
X1052888D01*
Y766800D01*
X1050740D01*
Y750760D01*
X1058202D01*
X1078803Y730159D01*
Y629140D01*
X1073020D01*
Y611100D01*
X1073020D01*
Y610640D01*
X1073020D01*
Y599660D01*
X1053357D01*
X1051871Y599364D01*
X1050611Y598522D01*
X1001163Y549075D01*
X983110D01*
Y554210D01*
X970564D01*
X965343Y559431D01*
X965229Y560005D01*
X964387Y561265D01*
X962155Y563497D01*
X960895Y564339D01*
X960321Y564453D01*
X953067Y571707D01*
X951807Y572549D01*
X950320Y572845D01*
X920850D01*
X919363Y572549D01*
X918103Y571707D01*
X904606Y558210D01*
X898054D01*
X895425Y560839D01*
Y647689D01*
X896123Y648845D01*
X911225D01*
Y660400D01*
Y671955D01*
X896123D01*
X895425Y673111D01*
Y687350D01*
X900637Y692562D01*
X901479Y693822D01*
X901775Y695309D01*
Y735215D01*
X901479Y736702D01*
X900637Y737962D01*
X899280Y739319D01*
Y756535D01*
X899534Y756845D01*
X925840D01*
Y751710D01*
X942380D01*
Y769750D01*
X925840D01*
Y764615D01*
X898570D01*
Y768100D01*
X883530D01*
Y753360D01*
X891510D01*
Y737710D01*
X891510Y737710D01*
X891706Y736725D01*
X890909Y735455D01*
X884360D01*
X883669Y735317D01*
X883084Y734926D01*
X882693Y734341D01*
X882555Y733650D01*
Y727137D01*
X866130D01*
Y740540D01*
X864787D01*
Y753360D01*
X869070D01*
Y768100D01*
X857668D01*
X857355Y768162D01*
X841036D01*
X833231Y775967D01*
X833717Y777140D01*
X846970D01*
Y779923D01*
X866840D01*
X868079Y780169D01*
X869129Y780871D01*
X875668Y787410D01*
X889130D01*
Y792943D01*
X940469D01*
X950080Y783332D01*
D02*
G37*
G36*
X585951Y887709D02*
X556511Y858269D01*
X555809Y857219D01*
X555563Y855980D01*
Y789940D01*
X555809Y788701D01*
X556511Y787651D01*
X579085Y765077D01*
X580135Y764375D01*
X581374Y764128D01*
X614738D01*
X639753Y739114D01*
Y736010D01*
X634220D01*
Y726890D01*
X632950Y726364D01*
X626327Y732987D01*
X625067Y733829D01*
X623580Y734125D01*
X602760D01*
Y736010D01*
X592245D01*
X591984Y737322D01*
X591142Y738582D01*
X552525Y777199D01*
Y872621D01*
X568514Y888610D01*
X585056D01*
X585951Y887709D01*
D02*
G37*
G36*
X862441Y721611D02*
X863491Y720909D01*
X864730Y720663D01*
X882555D01*
Y714150D01*
X882693Y713459D01*
X883084Y712874D01*
X883669Y712483D01*
X884360Y712345D01*
X893360D01*
X894005Y711816D01*
Y696918D01*
X888793Y691705D01*
X887951Y690445D01*
X887655Y688959D01*
Y561415D01*
X865137D01*
X812574Y613977D01*
X811314Y614819D01*
X809827Y615115D01*
X781180D01*
Y620250D01*
X768634D01*
X741770Y647113D01*
X740510Y647956D01*
X739023Y648251D01*
X700316D01*
X659534Y689034D01*
X658273Y689876D01*
X656787Y690171D01*
X640260D01*
X640240Y690200D01*
X640919Y691470D01*
X651760D01*
Y694003D01*
X656205D01*
X657444Y694249D01*
X657816Y694498D01*
X662175D01*
X662488Y694560D01*
X677040D01*
Y700343D01*
X829320D01*
Y693290D01*
X835873D01*
Y679580D01*
X830090D01*
Y661540D01*
X835873D01*
Y624970D01*
X831860D01*
Y606930D01*
X844718D01*
Y606885D01*
X844964Y605646D01*
X845666Y604596D01*
X855283Y594979D01*
Y589541D01*
X854900Y589159D01*
X854250Y587589D01*
Y585891D01*
X854900Y584321D01*
X856101Y583120D01*
X857671Y582470D01*
X859369D01*
X860939Y583120D01*
X862140Y584321D01*
X862790Y585891D01*
Y587589D01*
X862140Y589159D01*
X861757Y589541D01*
Y596320D01*
X861511Y597559D01*
X860809Y598609D01*
X853661Y605757D01*
X854147Y606930D01*
X857995D01*
Y615950D01*
Y624970D01*
X849860D01*
X849860Y624970D01*
X849400D01*
Y624970D01*
X848590Y624970D01*
X842347D01*
Y661540D01*
X847320D01*
X848130Y661540D01*
X849400Y661540D01*
X856975D01*
Y670560D01*
Y679580D01*
X849400D01*
X848590Y679580D01*
X847320Y679580D01*
X842347D01*
Y692392D01*
X843245Y693290D01*
X846860Y693290D01*
X848130Y693290D01*
X855455D01*
Y702310D01*
Y711330D01*
X848130D01*
X847320Y711330D01*
X846050Y711330D01*
X841327D01*
Y722500D01*
X848130D01*
Y722500D01*
X848590D01*
Y722500D01*
X861552D01*
X862441Y721611D01*
D02*
G37*
G36*
X659000Y713060D02*
X659000D01*
Y712600D01*
X659000D01*
Y700972D01*
X656700D01*
X655461Y700726D01*
X655089Y700477D01*
X651760D01*
Y703010D01*
X639423D01*
X638937Y704183D01*
X652949Y718195D01*
X659000D01*
Y713060D01*
D02*
G37*
G36*
X755232Y622665D02*
X754746Y621491D01*
X743515D01*
X739013Y625994D01*
X737962Y626695D01*
X736724Y626942D01*
X723180D01*
X721941Y626695D01*
X720891Y625994D01*
X708650Y613753D01*
X707477Y614239D01*
Y621491D01*
X702591D01*
Y640482D01*
X737414D01*
X755232Y622665D01*
D02*
G37*
G36*
X1186050Y706683D02*
Y698424D01*
X1148513Y660887D01*
X1147671Y659627D01*
X1147375Y658140D01*
Y605505D01*
X1091060D01*
Y610640D01*
X1091060D01*
Y611100D01*
X1091060D01*
Y619043D01*
X1108830D01*
Y616510D01*
X1126370D01*
Y628050D01*
X1120837D01*
Y643129D01*
X1184877Y707169D01*
X1186050Y706683D01*
D02*
G37*
G36*
X1059959Y590620D02*
X984340Y515002D01*
X959100D01*
Y520632D01*
X961921Y523453D01*
X965070D01*
Y517670D01*
X983110D01*
Y535710D01*
X983110D01*
Y536170D01*
X983110D01*
Y541305D01*
X1002773D01*
X1004259Y541601D01*
X1005519Y542443D01*
X1054967Y591890D01*
X1059433D01*
X1059959Y590620D01*
D02*
G37*
%LPC*%
G36*
X848056Y810410D02*
X846344D01*
X844691Y809967D01*
X843209Y809111D01*
X841999Y807901D01*
X841143Y806419D01*
X840700Y804766D01*
Y803054D01*
X841143Y801401D01*
X841999Y799919D01*
X843209Y798709D01*
X844691Y797853D01*
X846344Y797410D01*
X848056D01*
X849709Y797853D01*
X851191Y798709D01*
X852401Y799919D01*
X853257Y801401D01*
X853700Y803054D01*
Y804766D01*
X853257Y806419D01*
X852401Y807901D01*
X851191Y809111D01*
X849709Y809967D01*
X848056Y810410D01*
D02*
G37*
G36*
X830056D02*
X828344D01*
X826691Y809967D01*
X825209Y809111D01*
X823999Y807901D01*
X823143Y806419D01*
X822700Y804766D01*
Y803054D01*
X823143Y801401D01*
X823999Y799919D01*
X825209Y798709D01*
X826691Y797853D01*
X828344Y797410D01*
X830056D01*
X831709Y797853D01*
X833191Y798709D01*
X834401Y799919D01*
X835257Y801401D01*
X835700Y803054D01*
Y804766D01*
X835257Y806419D01*
X834401Y807901D01*
X833191Y809111D01*
X831709Y809967D01*
X830056Y810410D01*
D02*
G37*
G36*
X741235Y764220D02*
X737045D01*
X732936Y763403D01*
X729065Y761799D01*
X725581Y759472D01*
X722618Y756509D01*
X720291Y753025D01*
X718687Y749154D01*
X717870Y745045D01*
Y740855D01*
X718687Y736746D01*
X720291Y732875D01*
X722618Y729391D01*
X725581Y726429D01*
X729065Y724101D01*
X732936Y722497D01*
X737045Y721680D01*
X741235D01*
X745344Y722497D01*
X749215Y724101D01*
X752699Y726429D01*
X755661Y729391D01*
X757989Y732875D01*
X759593Y736746D01*
X760410Y740855D01*
Y745045D01*
X759593Y749154D01*
X757989Y753025D01*
X755661Y756509D01*
X752699Y759472D01*
X749215Y761799D01*
X745344Y763403D01*
X741235Y764220D01*
D02*
G37*
G36*
X882375Y936120D02*
Y927735D01*
X890760D01*
Y936120D01*
X882375D01*
D02*
G37*
G36*
X890760Y926465D02*
X882375D01*
Y918080D01*
X890760D01*
Y926465D01*
D02*
G37*
G36*
X851030Y894070D02*
X842645D01*
Y887185D01*
X851030D01*
Y894070D01*
D02*
G37*
G36*
Y885915D02*
X842645D01*
Y879030D01*
X851030D01*
Y885915D01*
D02*
G37*
G36*
X968706Y809140D02*
X966994D01*
X965341Y808697D01*
X963859Y807841D01*
X962649Y806631D01*
X961793Y805149D01*
X961350Y803496D01*
Y801784D01*
X961793Y800131D01*
X962649Y798649D01*
X963859Y797439D01*
X965341Y796583D01*
X966994Y796140D01*
X968706D01*
X970359Y796583D01*
X971841Y797439D01*
X973051Y798649D01*
X973907Y800131D01*
X974350Y801784D01*
Y803496D01*
X973907Y805149D01*
X973051Y806631D01*
X971841Y807841D01*
X970359Y808697D01*
X968706Y809140D01*
D02*
G37*
G36*
X988805Y738000D02*
Y729615D01*
X996940D01*
Y738000D01*
X988805D01*
D02*
G37*
G36*
X916360Y735455D02*
X912495D01*
Y724535D01*
X918165D01*
Y733650D01*
X918027Y734341D01*
X917636Y734926D01*
X917051Y735317D01*
X916360Y735455D01*
D02*
G37*
G36*
X911225D02*
X907360D01*
X906669Y735317D01*
X906084Y734926D01*
X905693Y734341D01*
X905555Y733650D01*
Y724535D01*
X911225D01*
Y735455D01*
D02*
G37*
G36*
X996940Y728345D02*
X988805D01*
Y719960D01*
X996940D01*
Y728345D01*
D02*
G37*
G36*
X918165Y723265D02*
X912495D01*
Y712345D01*
X916360D01*
X917051Y712483D01*
X917636Y712874D01*
X918027Y713459D01*
X918165Y714150D01*
Y723265D01*
D02*
G37*
G36*
X911225D02*
X905555D01*
Y714150D01*
X905693Y713459D01*
X906084Y712874D01*
X906669Y712483D01*
X907360Y712345D01*
X911225D01*
Y723265D01*
D02*
G37*
G36*
X1063039Y723900D02*
X1060401D01*
X1057852Y723217D01*
X1055568Y721898D01*
X1053702Y720032D01*
X1052383Y717748D01*
X1051700Y715199D01*
Y712561D01*
X1052383Y710012D01*
X1053702Y707728D01*
X1055568Y705862D01*
X1057852Y704543D01*
X1060401Y703860D01*
X1063039D01*
X1065588Y704543D01*
X1067872Y705862D01*
X1069738Y707728D01*
X1071057Y710012D01*
X1071740Y712561D01*
Y715199D01*
X1071057Y717748D01*
X1069738Y720032D01*
X1067872Y721898D01*
X1065588Y723217D01*
X1063039Y723900D01*
D02*
G37*
G36*
X988805Y710060D02*
Y701675D01*
X996940D01*
Y710060D01*
X988805D01*
D02*
G37*
G36*
X996940Y700405D02*
X988805D01*
Y692020D01*
X996940D01*
Y700405D01*
D02*
G37*
G36*
X988805Y680850D02*
Y672465D01*
X996940D01*
Y680850D01*
X988805D01*
D02*
G37*
G36*
X996940Y671195D02*
X988805D01*
Y662810D01*
X996940D01*
Y671195D01*
D02*
G37*
G36*
X927598Y671955D02*
X912495D01*
Y661035D01*
X929415D01*
Y670137D01*
X929277Y670833D01*
X928883Y671423D01*
X928293Y671817D01*
X927598Y671955D01*
D02*
G37*
G36*
X929415Y659765D02*
X912495D01*
Y648845D01*
X927598D01*
X928293Y648983D01*
X928883Y649377D01*
X929277Y649967D01*
X929415Y650663D01*
Y659765D01*
D02*
G37*
G36*
X961550Y624720D02*
X944010D01*
Y619187D01*
X939560D01*
Y623970D01*
X927020D01*
Y607930D01*
X939560D01*
Y612713D01*
X944010D01*
Y607180D01*
X961550D01*
Y624720D01*
D02*
G37*
G36*
X996550D02*
X988415D01*
Y616585D01*
X996550D01*
Y624720D01*
D02*
G37*
G36*
X987145D02*
X979010D01*
Y616585D01*
X987145D01*
Y624720D01*
D02*
G37*
G36*
X996550Y615315D02*
X988415D01*
Y607180D01*
X996550D01*
Y615315D01*
D02*
G37*
G36*
X987145D02*
X979010D01*
Y607180D01*
X987145D01*
Y615315D01*
D02*
G37*
G36*
X856725Y711330D02*
Y702945D01*
X864860D01*
Y711330D01*
X856725D01*
D02*
G37*
G36*
X864860Y701675D02*
X856725D01*
Y693290D01*
X864860D01*
Y701675D01*
D02*
G37*
G36*
X858245Y679580D02*
Y671195D01*
X866630D01*
Y679580D01*
X858245D01*
D02*
G37*
G36*
X866630Y669925D02*
X858245D01*
Y661540D01*
X866630D01*
Y669925D01*
D02*
G37*
G36*
X867400Y624970D02*
X859265D01*
Y616585D01*
X867400D01*
Y624970D01*
D02*
G37*
G36*
Y615315D02*
X859265D01*
Y606930D01*
X867400D01*
Y615315D01*
D02*
G37*
%LPD*%
G36*
X1184675Y984050D02*
X1183790D01*
Y979797D01*
X1182617Y979311D01*
X1181859Y980069D01*
X1180809Y980771D01*
X1179570Y981017D01*
X1173330D01*
Y984050D01*
X1171797D01*
Y1015870D01*
X1177520D01*
X1178330Y1015870D01*
Y1015870D01*
X1178790D01*
Y1015870D01*
X1184675D01*
Y984050D01*
D02*
G37*
G36*
X1234653Y1086832D02*
Y1070970D01*
X1234899Y1069731D01*
X1235601Y1068681D01*
X1318672Y985610D01*
X1317714Y984176D01*
X1317227Y981730D01*
X1317714Y979284D01*
X1318833Y977609D01*
Y974800D01*
X1316450D01*
Y967267D01*
X1313882D01*
X1313500Y967650D01*
X1311930Y968300D01*
X1310231D01*
X1309301Y967915D01*
X1305799D01*
X1246077Y1027637D01*
X1244817Y1028479D01*
X1243330Y1028775D01*
X1196830D01*
Y1033910D01*
X1182028D01*
X1181541Y1035083D01*
X1233383Y1086925D01*
X1234653Y1086832D01*
D02*
G37*
G36*
X1301443Y961283D02*
X1302703Y960441D01*
X1304190Y960145D01*
X1304182Y958879D01*
X1301237D01*
X1258336Y1001779D01*
X1257286Y1002481D01*
X1256048Y1002727D01*
X1238780D01*
Y1008010D01*
X1226740D01*
Y990970D01*
X1238780D01*
Y996253D01*
X1254707D01*
X1277177Y973782D01*
X1276651Y972512D01*
X1224155D01*
X1222916Y972266D01*
X1221866Y971564D01*
X1218181Y967879D01*
X1217945Y967526D01*
X1216740Y967370D01*
X1216740Y967370D01*
X1215227D01*
Y990970D01*
X1219280D01*
Y1008010D01*
X1207240D01*
Y990970D01*
X1208753D01*
Y969555D01*
X1207579Y969069D01*
X1205062Y971586D01*
X1204012Y972288D01*
X1202773Y972534D01*
X1189394D01*
X1187591Y974337D01*
X1188077Y975510D01*
X1193330D01*
Y984050D01*
X1192445D01*
Y1015870D01*
X1196830D01*
Y1021005D01*
X1241721D01*
X1301443Y961283D01*
D02*
G37*
G36*
X1298050Y945052D02*
X1297564Y943879D01*
X1289549D01*
X1274270Y959158D01*
Y959699D01*
X1273620Y961269D01*
X1272419Y962470D01*
X1270849Y963120D01*
X1269151D01*
X1267581Y962470D01*
X1266380Y961269D01*
X1265730Y959699D01*
Y958001D01*
X1266380Y956431D01*
X1267581Y955230D01*
X1269151Y954580D01*
X1269692D01*
X1284220Y940052D01*
X1283734Y938879D01*
X1281849D01*
X1255864Y964865D01*
X1256350Y966038D01*
X1277064D01*
X1298050Y945052D01*
D02*
G37*
G36*
X1269901Y941671D02*
X1269415Y940497D01*
X1265181D01*
X1264799Y940880D01*
X1263229Y941530D01*
X1261531D01*
X1259961Y940880D01*
X1258760Y939679D01*
X1258110Y938109D01*
Y936411D01*
X1258760Y934841D01*
X1259961Y933640D01*
X1261531Y932990D01*
X1263229D01*
X1264799Y933640D01*
X1265181Y934023D01*
X1270365D01*
X1275647Y928741D01*
X1276697Y928039D01*
X1277936Y927793D01*
X1279175Y928039D01*
X1279387Y928181D01*
X1313056D01*
X1313582Y926911D01*
X1311928Y925257D01*
X1265891D01*
X1236240Y954908D01*
Y966038D01*
X1245534D01*
X1269901Y941671D01*
D02*
G37*
D15*
X1329120Y981730D02*
D03*
Y895330D02*
D03*
D16*
X1370920Y981730D02*
D03*
Y895330D02*
D03*
D17*
X982320Y877410D02*
D03*
X963320D02*
D03*
X972820Y857410D02*
D03*
X904240Y859950D02*
D03*
X894740Y879950D02*
D03*
X913740D02*
D03*
D18*
X896780Y1132820D02*
D03*
D19*
X991780Y1207820D02*
D03*
Y1195120D02*
D03*
Y1182420D02*
D03*
Y1169720D02*
D03*
Y1157020D02*
D03*
Y1144320D02*
D03*
Y1131620D02*
D03*
Y1118920D02*
D03*
Y1106220D02*
D03*
Y1093520D02*
D03*
Y1080820D02*
D03*
Y1068120D02*
D03*
Y1055420D02*
D03*
Y1042720D02*
D03*
Y1030020D02*
D03*
Y1017320D02*
D03*
Y1004620D02*
D03*
Y991920D02*
D03*
Y979220D02*
D03*
X821780D02*
D03*
Y991920D02*
D03*
Y1004620D02*
D03*
Y1017320D02*
D03*
Y1030020D02*
D03*
Y1042720D02*
D03*
Y1055420D02*
D03*
Y1068120D02*
D03*
Y1080820D02*
D03*
Y1093520D02*
D03*
Y1106220D02*
D03*
Y1118920D02*
D03*
Y1131620D02*
D03*
Y1144320D02*
D03*
Y1157020D02*
D03*
Y1169720D02*
D03*
Y1182420D02*
D03*
Y1195120D02*
D03*
Y1207820D02*
D03*
D20*
X668020Y703580D02*
D03*
Y722080D02*
D03*
X772160Y611230D02*
D03*
Y592730D02*
D03*
X1195070Y720450D02*
D03*
Y701950D02*
D03*
X1082040Y620120D02*
D03*
Y601620D02*
D03*
X974090Y526690D02*
D03*
Y545190D02*
D03*
D21*
X593990Y730240D02*
D03*
Y697240D02*
D03*
X642990D02*
D03*
Y730240D02*
D03*
X698707Y615721D02*
D03*
Y582721D02*
D03*
X747707D02*
D03*
Y615721D02*
D03*
X950330Y552440D02*
D03*
Y519440D02*
D03*
X901330D02*
D03*
Y552440D02*
D03*
X1226820Y698520D02*
D03*
Y731520D02*
D03*
X1275820D02*
D03*
Y698520D02*
D03*
X1117600Y589280D02*
D03*
Y622280D02*
D03*
X1166600D02*
D03*
Y589280D02*
D03*
D22*
X1304850Y820510D02*
D03*
X1298350D02*
D03*
Y800010D02*
D03*
X1304850D02*
D03*
X1311350D02*
D03*
X1317850D02*
D03*
Y820510D02*
D03*
X1311350D02*
D03*
D23*
X1210720Y958850D02*
D03*
X1230220D02*
D03*
X1232760Y999490D02*
D03*
X1213260D02*
D03*
D24*
X929550Y900430D02*
D03*
X950050D02*
D03*
X929550Y928370D02*
D03*
X950050D02*
D03*
D25*
X1323470Y972030D02*
D03*
Y964030D02*
D03*
Y916030D02*
D03*
Y908030D02*
D03*
Y905030D02*
D03*
Y913030D02*
D03*
Y921030D02*
D03*
Y926030D02*
D03*
Y931030D02*
D03*
Y936030D02*
D03*
Y941030D02*
D03*
Y946030D02*
D03*
Y951030D02*
D03*
Y956030D02*
D03*
Y961030D02*
D03*
Y969030D02*
D03*
D26*
X952780Y615950D02*
D03*
X987780D02*
D03*
D27*
X913290D02*
D03*
X933290D02*
D03*
D28*
X970170Y671830D02*
D03*
X988170D02*
D03*
X970170Y701040D02*
D03*
X988170D02*
D03*
X970170Y728980D02*
D03*
X988170D02*
D03*
X840630Y615950D02*
D03*
X858630D02*
D03*
X839360Y731520D02*
D03*
X857360D02*
D03*
X838090Y702310D02*
D03*
X856090D02*
D03*
D29*
X861550Y760730D02*
D03*
X891050D02*
D03*
D30*
X839110Y670560D02*
D03*
X857610D02*
D03*
X863240Y927100D02*
D03*
X881740D02*
D03*
X1256390Y1096010D02*
D03*
X1237890D02*
D03*
X1187810Y1024890D02*
D03*
X1169310D02*
D03*
D31*
X934110Y760730D02*
D03*
X953110D02*
D03*
D32*
X1137350Y1165860D02*
D03*
Y1153160D02*
D03*
Y1140460D02*
D03*
Y1127760D02*
D03*
Y1115060D02*
D03*
Y1102360D02*
D03*
Y1089660D02*
D03*
Y1076960D02*
D03*
X1199450D02*
D03*
Y1089660D02*
D03*
Y1102360D02*
D03*
Y1115060D02*
D03*
Y1127760D02*
D03*
Y1140460D02*
D03*
Y1153160D02*
D03*
Y1165860D02*
D03*
D33*
X1125340Y770890D02*
D03*
X1140340D02*
D03*
X1124070Y789940D02*
D03*
X1139070D02*
D03*
X1140460Y845820D02*
D03*
X1155460D02*
D03*
X1182370Y864870D02*
D03*
X1197370D02*
D03*
X1218050Y909320D02*
D03*
X1233050D02*
D03*
D34*
X996950Y796180D02*
D03*
Y814180D02*
D03*
X880110Y796180D02*
D03*
Y814180D02*
D03*
D35*
X958850Y781890D02*
D03*
Y823390D02*
D03*
X838200Y783160D02*
D03*
Y824660D02*
D03*
D36*
X934860Y723900D02*
D03*
X911860D02*
D03*
X888860D02*
D03*
D37*
X911860Y660400D02*
D03*
D38*
X842010Y886550D02*
D03*
Y866050D02*
D03*
D39*
X1071760Y758780D02*
D03*
X1056760D02*
D03*
X1070490Y784180D02*
D03*
X1055490D02*
D03*
D40*
X1168560Y977780D02*
D03*
D41*
Y960780D02*
D03*
X1188560D02*
D03*
Y979780D02*
D03*
D60*
X1061720Y713880D02*
D03*
D61*
Y563880D02*
D03*
D71*
X1305560Y760730D02*
Y791980D01*
X1306368Y792788D01*
X1281415Y704115D02*
X1285775D01*
X1295400Y713740D01*
X1215390Y848052D02*
Y861060D01*
X1168400Y845820D02*
X1213158D01*
X1163635Y841055D02*
X1168400Y845820D01*
X1213158D02*
X1215390Y848052D01*
X1311195Y797615D02*
Y799855D01*
X1306368Y792788D02*
X1311195Y797615D01*
X1298505Y795725D02*
X1301442Y792788D01*
X1311195Y799855D02*
X1311350Y800010D01*
X1301442Y792788D02*
X1306368D01*
X1298505Y795725D02*
Y799855D01*
X1298350Y800010D02*
X1298505Y799855D01*
X1298350Y820510D02*
Y860057D01*
X1294130Y864277D02*
X1298350Y860057D01*
X1294130Y864277D02*
Y864870D01*
X1298505Y814570D02*
Y820355D01*
X1298350Y820510D02*
X1298505Y820355D01*
X1304850Y800010D02*
Y808225D01*
X1298505Y814570D02*
X1304850Y808225D01*
X1088215Y748895D02*
X1090447Y751126D01*
X1088215Y737675D02*
Y748895D01*
X1082040Y731500D02*
X1088215Y737675D01*
X1090447Y751126D02*
X1105576D01*
X1122245Y766545D02*
X1125340Y769640D01*
X1120995Y766545D02*
X1122245D01*
X1125340Y769640D02*
Y770890D01*
X1105576Y751126D02*
X1120995Y766545D01*
X1137245Y773985D02*
Y775515D01*
X1124070Y788690D02*
Y789940D01*
Y788690D02*
X1137245Y775515D01*
Y773985D02*
X1140340Y770890D01*
X1144685Y766545D02*
X1158120Y753110D01*
X1140340Y769640D02*
Y770890D01*
Y769640D02*
X1143435Y766545D01*
X1144685D01*
X1304850Y845095D02*
X1305560Y845805D01*
X1304850Y820510D02*
Y845095D01*
X1305560Y845805D02*
Y869950D01*
X1301750Y873760D02*
X1305560Y869950D01*
X1228090Y873760D02*
X1301750D01*
X1215390Y861060D02*
X1228090Y873760D01*
X1140460Y844570D02*
X1148635Y836395D01*
X1161775D01*
X1140460Y844570D02*
Y845820D01*
X1161775Y836395D02*
X1163635Y838255D01*
Y841055D01*
X1311350Y820510D02*
Y874320D01*
X1304883Y880787D02*
X1311350Y874320D01*
X1182370Y880787D02*
X1304883D01*
X1177290Y885867D02*
X1182370Y880787D01*
X1177290Y885867D02*
Y886460D01*
X1182370Y864870D02*
Y880787D01*
X1304290Y891540D02*
X1317850Y877980D01*
Y820510D02*
Y877980D01*
X1234580Y891540D02*
X1304290D01*
X1218050Y908070D02*
Y909320D01*
Y908070D02*
X1234580Y891540D01*
X1212970Y904240D02*
X1213705Y904975D01*
X1187450Y904240D02*
X1212970D01*
X1214955Y904975D02*
X1218050Y908070D01*
X1213705Y904975D02*
X1214955D01*
X1158120Y753110D02*
X1311910D01*
X1317850Y759050D01*
Y800010D01*
X1019760Y1055420D02*
X1026160Y1049020D01*
X991780Y1055420D02*
X1019760D01*
X1009200Y784180D02*
X1055490D01*
X953110Y780010D02*
X956970D01*
X953110Y760730D02*
Y780010D01*
X997200Y796180D02*
X1009200Y784180D01*
X953110Y746290D02*
Y760730D01*
X996700Y796180D02*
X996950D01*
X997200D01*
X1145959Y569379D02*
Y571639D01*
X1145540Y568960D02*
X1145959Y569379D01*
Y571639D02*
X1163600Y589280D01*
X656205Y697240D02*
X656700Y697735D01*
X642990Y697240D02*
X656205D01*
X593990D02*
X596990D01*
X656700Y697735D02*
X662175D01*
X668020Y703580D01*
X836820D01*
X616079Y767366D02*
X642990Y740455D01*
X596990Y697240D02*
X686184Y608046D01*
X642990Y730240D02*
Y740455D01*
X591820Y889000D02*
Y910590D01*
X566195Y936215D02*
Y1022154D01*
Y936215D02*
X591820Y910590D01*
X587981Y1043940D02*
X754380D01*
X566195Y1022154D02*
X587981Y1043940D01*
X754380D02*
X772596D01*
X784076Y1055420D01*
X821780D01*
X558800Y789940D02*
X581374Y767366D01*
X558800Y855980D02*
X591820Y889000D01*
X558800Y789940D02*
Y855980D01*
X581374Y767366D02*
X616079D01*
X577042Y808363D02*
X749119Y980440D01*
X574040Y799630D02*
X577042Y802632D01*
Y808363D01*
X749119Y980440D02*
X759641D01*
X796520Y1017320D02*
X821780D01*
X759641Y980440D02*
X796520Y1017320D01*
X754380Y891540D02*
X821780Y958940D01*
X754380Y942340D02*
X808605Y996565D01*
X754380Y916940D02*
X808605Y971165D01*
X754380Y993140D02*
X791260Y1030020D01*
X821780D01*
X754380Y1297940D02*
X799120Y1253200D01*
X754380Y1272540D02*
X794040Y1232880D01*
X754380Y1247140D02*
X788960Y1212560D01*
Y1183549D02*
Y1212560D01*
Y1183549D02*
X810465Y1162045D01*
X783880Y1175929D02*
Y1192240D01*
X754380Y1221740D02*
X783880Y1192240D01*
Y1175929D02*
X810465Y1149345D01*
X754380Y1192730D02*
X810465Y1136645D01*
X754380Y1170940D02*
X806400Y1118920D01*
X754380Y1145540D02*
X793700Y1106220D01*
X792744Y1093520D02*
X821780D01*
X769040Y1117224D02*
X792744Y1093520D01*
X793700Y1106220D02*
X821780D01*
X779135Y1094740D02*
X793054Y1080820D01*
X821780D01*
X754380Y1094740D02*
X779135D01*
X774442Y1082040D02*
X788362Y1068120D01*
X821780D01*
X754380Y1018540D02*
X778560Y1042720D01*
X821780D01*
X757296Y1117224D02*
X769040D01*
X1311081Y964030D02*
X1323470D01*
X1232760Y999490D02*
X1256048D01*
X1299507Y956030D01*
X1270000Y958850D02*
X1287820Y941030D01*
X1246875Y969275D02*
X1280120Y936030D01*
X1271706Y937260D02*
X1277936Y931030D01*
X866250Y712470D02*
X869950D01*
X856090Y702310D02*
X866250Y712470D01*
X1230220Y956350D02*
X1264550Y922020D01*
X1262380Y937260D02*
X1271706D01*
X1264550Y922020D02*
X1312720D01*
X1056125Y757415D02*
X1082040Y731500D01*
Y620120D02*
Y731500D01*
X1326199Y895330D02*
X1329120D01*
X1323340Y898189D02*
Y905510D01*
Y898189D02*
X1326199Y895330D01*
X1323340Y905510D02*
X1323470Y905380D01*
Y905030D02*
Y905380D01*
X1164765Y927518D02*
X1165860Y926423D01*
X1164765Y927518D02*
Y949825D01*
X1167005Y959685D02*
X1168100Y960780D01*
X1165860Y925830D02*
Y926423D01*
X1168100Y960780D02*
X1168560D01*
X1170940Y945600D02*
X1179280Y937260D01*
X1170940Y945600D02*
Y946189D01*
X1167005Y952065D02*
Y959685D01*
X1164765Y949825D02*
X1167005Y952065D01*
X1168560Y960780D02*
X1169060D01*
X1181415Y948425D02*
X1216785D01*
X1169060Y960780D02*
X1181415Y948425D01*
X1179280Y937260D02*
X1197610D01*
X1125175Y957625D02*
Y1108685D01*
Y957625D02*
X1132840Y949960D01*
X1125175Y1108685D02*
X1131550Y1115060D01*
X1137350D01*
X1060195Y855980D02*
X1154605Y950390D01*
X1037650Y861060D02*
X1058091D01*
X1149525Y952495D01*
X1154605Y950390D02*
Y1088715D01*
X990760Y855980D02*
X1060195D01*
X1149525Y952495D02*
Y1096335D01*
X1137350Y1102360D02*
X1143150D01*
X1159196Y1118406D01*
X1159280D01*
X1211990Y960120D02*
Y998220D01*
X1278405Y969275D02*
X1301650Y946030D01*
X1224155Y969275D02*
X1246875D01*
X1220470Y965590D02*
X1224155Y969275D01*
X1211990Y998220D02*
X1213260Y999490D01*
X1220470Y952110D02*
Y965590D01*
X1216785Y948425D02*
X1220470Y952110D01*
X1246875Y969275D02*
X1278405D01*
X1195680Y960780D02*
X1198880Y957580D01*
X1188560Y960780D02*
X1195680D01*
X847090Y927100D02*
X863240D01*
X839470Y934720D02*
X847090Y927100D01*
X831085Y875475D02*
Y969535D01*
X830665Y1179825D02*
X834955Y1175535D01*
X831085Y875475D02*
X840510Y866050D01*
X816280Y1182420D02*
X821780D01*
X831085Y969535D02*
X834955Y973405D01*
X824375Y1179825D02*
X830665D01*
X821780Y1182420D02*
X824375Y1179825D01*
X810465Y986895D02*
X811255D01*
X808605Y997735D02*
X810465Y999595D01*
X811255D02*
X816280Y1004620D01*
X808605Y996565D02*
Y997735D01*
Y971165D02*
Y985035D01*
X810465Y999595D02*
X811255D01*
X821780Y958940D02*
Y979220D01*
X816280Y1004620D02*
X821780D01*
X808605Y985035D02*
X810465Y986895D01*
X816280Y991920D02*
X821780D01*
X811255Y986895D02*
X816280Y991920D01*
X834955Y973405D02*
Y1175535D01*
X880360Y796180D02*
X941810D01*
X863240Y904473D02*
Y927100D01*
X861060Y902293D02*
X863240Y904473D01*
X861060Y901700D02*
Y902293D01*
X880360Y796180D02*
X887685Y803505D01*
X887730Y842687D02*
Y843280D01*
X880110Y796180D02*
X880360D01*
X887685Y803505D02*
X889175D01*
X891035Y805365D01*
Y839382D01*
X887730Y842687D02*
X891035Y839382D01*
X875878Y859950D02*
X904240D01*
X874122Y861705D02*
X875878Y859950D01*
X842010Y866050D02*
X846355Y861705D01*
X874122D01*
X1322475Y972030D02*
X1323470D01*
X1322070Y972435D02*
Y986790D01*
Y972435D02*
X1322475Y972030D01*
X1237890Y1070970D02*
X1322070Y986790D01*
X1237890Y1070970D02*
Y1096010D01*
X1175155Y1030735D02*
Y1033275D01*
X1169310Y1024890D02*
X1175155Y1030735D01*
Y1033275D02*
X1237890Y1096010D01*
X847955Y606885D02*
X858520Y596320D01*
Y586740D02*
Y596320D01*
X840630Y615950D02*
X847955Y608625D01*
Y606885D02*
Y608625D01*
X960580Y526690D02*
X974090D01*
X947780D02*
X960580D01*
X913290Y590390D02*
Y615950D01*
Y590390D02*
X923290Y580390D01*
X935990Y538480D02*
X947780Y526690D01*
X925803Y560423D02*
X939347D01*
X739663Y544765D02*
X910145D01*
X925803Y560423D01*
X939347D02*
X947330Y552440D01*
X1105299Y1192111D02*
X1131550Y1165860D01*
X1102360Y1192530D02*
X1102779Y1192111D01*
X1131550Y1165860D02*
X1137350D01*
X1102779Y1192111D02*
X1105299D01*
X1052830Y1254760D02*
X1135355Y1172235D01*
X1147665D01*
X1052830Y1229360D02*
X1092771Y1189419D01*
X1095292D01*
X1131550Y1153160D01*
X1137350D01*
X946130Y1132820D02*
X956310Y1143000D01*
X896780Y1132820D02*
X946130D01*
X772160Y592730D02*
X783590Y581300D01*
Y561340D02*
Y581300D01*
X1021425Y1206152D02*
X1023620Y1208348D01*
X1021425Y1193074D02*
Y1206152D01*
X1016345Y1212516D02*
X1018540Y1214712D01*
Y1245870D01*
X1013460Y1216816D02*
Y1266190D01*
X1052830Y1305560D01*
X997280Y1207820D02*
X1008380Y1218920D01*
X1016345Y1200694D02*
Y1212516D01*
X1008380Y1218920D02*
Y1286510D01*
X1052830Y1330960D01*
X1011265Y1208314D02*
Y1214620D01*
X1018540Y1245870D02*
X1052830Y1280160D01*
X1023620Y1208348D02*
Y1225550D01*
X1052830Y1254760D01*
X1011265Y1214620D02*
X1013460Y1216816D01*
X991780Y1207820D02*
X997280D01*
X1210720Y958850D02*
X1211990Y960120D01*
X1168560Y977780D02*
X1179570D01*
X1188053Y969297D01*
X1202773D01*
X1210720Y961350D01*
X1168560Y1024140D02*
X1169310Y1024890D01*
X1168560Y977780D02*
Y1024140D01*
X863240Y927100D02*
Y1099280D01*
X896780Y1132820D01*
X1117600Y622280D02*
Y644470D01*
X1187735Y714605D01*
X1189225D01*
X1195070Y720450D01*
X1212750D02*
X1223820Y731520D01*
X1226820D01*
X1195070Y720450D02*
X1212750D01*
X1168560Y976280D02*
Y977780D01*
X1149525Y1146835D02*
Y1170375D01*
X1147665Y1172235D02*
X1149525Y1170375D01*
X1137350Y1140460D02*
X1143150D01*
X1149525Y1146835D01*
X1193650Y1140460D02*
X1199450D01*
X975145Y871595D02*
X990760Y855980D01*
X959415Y939295D02*
X1037650Y861060D01*
X938975Y939295D02*
X959415D01*
X929550Y928370D02*
Y929870D01*
X938975Y939295D01*
X1149525Y1096335D02*
X1193650Y1140460D01*
X1154605Y1088715D02*
X1193650Y1127760D01*
X991780Y934810D02*
X1052830Y873760D01*
X991780Y934810D02*
Y979220D01*
X1193650Y1127760D02*
X1199450D01*
X975145Y871595D02*
Y875178D01*
X972913Y877410D02*
X975145Y875178D01*
X963320Y877410D02*
X972913D01*
X920155Y872275D02*
X922695Y869735D01*
X887565Y874135D02*
Y889505D01*
X960495Y869735D02*
X972820Y857410D01*
X889425Y872275D02*
X920155D01*
X922695Y869735D02*
X960495D01*
X887565Y874135D02*
X889425Y872275D01*
X838200Y824660D02*
Y862240D01*
Y824660D02*
X856588D01*
X838200Y862240D02*
X842010Y866050D01*
X921985Y939295D02*
X922325D01*
X941070Y958040D01*
X887730Y905040D02*
X921985Y939295D01*
X887730Y889670D02*
Y905040D01*
X941070Y958040D02*
Y997510D01*
X887565Y889505D02*
X887730Y889670D01*
X894740Y879950D02*
Y892060D01*
X929550Y926870D01*
X978605Y1035045D02*
Y1035835D01*
X941070Y997510D02*
X978605Y1035045D01*
X986280Y1042720D02*
X1010870D01*
X978605Y1035835D02*
X980465Y1037695D01*
X981255D02*
X986280Y1042720D01*
X980465Y1037695D02*
X981255D01*
X972820Y856910D02*
Y857410D01*
X1056125Y757415D02*
Y783545D01*
X1055490Y784180D02*
X1056125Y783545D01*
X953330Y519440D02*
X960580Y526690D01*
X950330Y519440D02*
X953330D01*
X934860Y707390D02*
X970170Y672080D01*
X934860Y707390D02*
Y723900D01*
X970170Y671830D02*
Y672080D01*
Y701040D02*
Y728980D01*
X1084200Y622280D02*
X1117600D01*
X1082040Y620120D02*
X1084200Y622280D01*
X961575Y665985D02*
X964575D01*
X970170Y671580D01*
Y671830D01*
X913290Y615950D02*
Y617700D01*
X961575Y665985D01*
X958850Y781890D02*
X982410D01*
X996700Y796180D01*
X956100Y781890D02*
X958850D01*
X941810Y796180D02*
X956100Y781890D01*
X838200Y783160D02*
X866840D01*
X879860Y796180D01*
X880110D01*
X937955Y728980D02*
X970170D01*
X934860Y725885D02*
X937955Y728980D01*
X934860Y723900D02*
Y725885D01*
X953110Y746290D02*
X970170Y729230D01*
Y728980D02*
Y729230D01*
X839110Y617470D02*
X840630Y615950D01*
X839110Y617470D02*
Y670560D01*
X838090Y730250D02*
X839360Y731520D01*
X838090Y702310D02*
Y730250D01*
Y702310D02*
X839110Y701290D01*
Y670560D02*
Y701290D01*
X836820Y703580D02*
X838090Y702310D01*
X747707Y582721D02*
X762151D01*
X772160Y592730D01*
X896620Y1207820D02*
X991780D01*
X821780D02*
X896620D01*
X896780Y1132820D02*
Y1207660D01*
X896620Y1207820D02*
X896780Y1207660D01*
X1230220Y956350D02*
Y958850D01*
X985681Y511765D02*
X1063196Y589280D01*
X1117600D01*
X936873Y511765D02*
X985681D01*
X947330Y552440D02*
X950330D01*
X701707Y582721D02*
X739663Y544765D01*
X707522Y608046D02*
X723180Y623704D01*
X736724D02*
X744707Y615721D01*
X686184Y608046D02*
X707522D01*
X723180Y623704D02*
X736724D01*
X754380Y850240D02*
X839695Y764925D01*
X857355D01*
X754380Y850240D02*
Y866140D01*
X857355Y764925D02*
X861550Y760730D01*
Y735710D02*
Y760730D01*
X857360Y731520D02*
X861550Y735710D01*
X857360Y731270D02*
X864730Y723900D01*
X888860D01*
X857360Y731270D02*
Y731520D01*
X744707Y615721D02*
X747707D01*
X1169600Y622280D02*
X1172195Y624875D01*
Y627875D02*
X1226820Y682500D01*
X1166600Y622280D02*
X1169600D01*
X1172195Y624875D02*
Y627875D01*
X1226820Y682500D02*
Y698520D01*
X929198Y519440D02*
X936873Y511765D01*
X901330Y519440D02*
X929198D01*
X698707Y582721D02*
X701707D01*
X933290Y615950D02*
X952780D01*
X840510Y866050D02*
X842010D01*
X856588Y824660D02*
X861472Y819775D01*
X874515D02*
X880110Y814180D01*
X861472Y819775D02*
X874515D01*
X967310Y892920D02*
Y909610D01*
X950050Y926870D02*
X967310Y909610D01*
Y892920D02*
X982320Y877910D01*
X970810Y814180D02*
X996950D01*
X961600Y823390D02*
X970810Y814180D01*
X958850Y823390D02*
X961600D01*
X958850D02*
Y842940D01*
X972820Y856910D01*
X950050Y926870D02*
Y928370D01*
X982320Y877410D02*
Y877910D01*
X954395Y886835D02*
Y896085D01*
Y886835D02*
X963320Y877910D01*
X950050Y900430D02*
X954395Y896085D01*
X963320Y877410D02*
Y877910D01*
X991780Y1195120D02*
X997280D01*
X1002305Y1200145D01*
X1003095D02*
X1011265Y1208314D01*
X1002305Y1200145D02*
X1003095D01*
Y1187445D02*
X1016345Y1200694D01*
X1002305Y1187445D02*
X1003095D01*
X997280Y1182420D02*
X1002305Y1187445D01*
X991780Y1182420D02*
X997280D01*
X1002305Y1174745D02*
X1003095D01*
X1021425Y1193074D01*
X991780Y1169720D02*
X997280D01*
X1002305Y1174745D01*
X1026505Y1203035D02*
X1052830Y1229360D01*
X1026505Y1185454D02*
Y1203035D01*
X1003095Y1162045D02*
X1026505Y1185454D01*
X1002305Y1162045D02*
X1003095D01*
X997280Y1157020D02*
X1002305Y1162045D01*
X991780Y1157020D02*
X997280D01*
X1002305Y1149345D02*
X1003095D01*
X1004955Y1151205D01*
Y1156085D01*
X1052830Y1203960D01*
X991780Y1144320D02*
X997280D01*
X1002305Y1149345D01*
X1007495Y1120542D02*
X1037590Y1150637D01*
X993402Y1120542D02*
X1007495D01*
X991780Y1118920D02*
X993402Y1120542D01*
X1050307Y1150637D02*
X1052830Y1153160D01*
X1037590Y1150637D02*
X1050307D01*
X1031290Y1106220D02*
X1052830Y1127760D01*
X991780Y1106220D02*
X1031290D01*
X1040117Y1093520D02*
X1048957Y1102360D01*
X991780Y1093520D02*
X1040117D01*
X1048957Y1102360D02*
X1052830D01*
X1010870Y1042720D02*
X1052830Y1000760D01*
X991780Y1030020D02*
X994375Y1027425D01*
X1000765D01*
X1052830Y975360D01*
X1036665Y966125D02*
X1052830Y949960D01*
X1036665Y966125D02*
Y978726D01*
X1003095Y1012295D02*
X1036665Y978726D01*
X1002305Y1012295D02*
X1003095D01*
X997280Y1017320D02*
X1002305Y1012295D01*
X991780Y1017320D02*
X997280D01*
X1031585Y945805D02*
Y971106D01*
X1000665Y1002025D02*
X1031585Y971106D01*
X991780Y1004620D02*
X994375Y1002025D01*
X1000665D01*
X1031585Y945805D02*
X1052830Y924560D01*
X1026505Y925485D02*
Y963486D01*
Y925485D02*
X1052830Y899160D01*
X1003095Y986895D02*
X1026505Y963486D01*
X1002305Y986895D02*
X1003095D01*
X997280Y991920D02*
X1002305Y986895D01*
X991780Y991920D02*
X997280D01*
X799120Y1198789D02*
Y1253200D01*
Y1198789D02*
X810465Y1187445D01*
X811255D01*
X816280Y1182420D01*
X794040Y1191169D02*
Y1232880D01*
Y1191169D02*
X810465Y1174745D01*
X811255D01*
X816280Y1169720D01*
X821780D01*
X810465Y1162045D02*
X811255D01*
X816280Y1157020D01*
X821780D01*
X810465Y1149345D02*
X811255D01*
X816280Y1144320D01*
X821780D01*
X810465Y1136645D02*
X811255D01*
X816280Y1131620D02*
X821780D01*
X811255Y1136645D02*
X816280Y1131620D01*
X754380Y1192730D02*
Y1196340D01*
X806400Y1118920D02*
X821780D01*
X754380Y1120140D02*
X757296Y1117224D01*
X579120Y1066800D02*
X594360Y1082040D01*
X774442D01*
X925205Y896085D02*
X929550Y900430D01*
X925205Y891915D02*
Y896085D01*
X913740Y879950D02*
Y880450D01*
X925205Y891915D01*
X929550Y926870D02*
Y928370D01*
D72*
X637453Y686287D02*
X656787D01*
X634810Y688930D02*
X637453Y686287D01*
X633912Y688930D02*
X634810D01*
X631680Y691162D02*
X633912Y688930D01*
X631890Y721930D02*
X652068D01*
X631680Y691162D02*
Y703318D01*
X633912Y705550D02*
X634810D01*
X631680Y703318D02*
X633912Y705550D01*
X652068Y721930D02*
X652472Y722334D01*
X623580Y730240D02*
X631890Y721930D01*
X593990Y730240D02*
X623580D01*
X590990D02*
X593990D01*
X588395Y732835D02*
X590990Y730240D01*
X588395Y732835D02*
Y735835D01*
X634810Y705550D02*
X650832Y721572D01*
X652726Y722080D02*
X668020D01*
X548640Y775590D02*
X588395Y735835D01*
X656787Y686287D02*
X698707Y644367D01*
X548640Y874230D02*
X574040Y899630D01*
X548640Y775590D02*
Y874230D01*
X563501Y910169D02*
X574040Y899630D01*
X561453Y910169D02*
X563501D01*
X558800Y912822D02*
X561453Y910169D01*
X558800Y912822D02*
Y1096480D01*
X579120Y1116800D01*
X1304190Y964030D02*
X1311081D01*
X1243330Y1024890D02*
X1304190Y964030D01*
X1187810Y1024890D02*
X1243330D01*
X1314965Y915625D02*
X1319325D01*
X1310640Y911300D02*
X1314965Y915625D01*
X1212862Y701950D02*
X1218302Y707390D01*
X1263950D01*
X1195070Y701950D02*
X1212862D01*
X1263950Y707390D02*
X1272820Y698520D01*
X961640Y557640D02*
Y558518D01*
X904330Y552440D02*
X920850Y568960D01*
X950320D01*
X958530Y560750D01*
X959408D02*
X961640Y558518D01*
Y557640D02*
X974090Y545190D01*
X958530Y560750D02*
X959408D01*
X891540Y559230D02*
X893240Y557530D01*
X891540Y559230D02*
Y688959D01*
X897890Y695309D01*
X895395Y737710D02*
X895844Y737261D01*
X895395Y737710D02*
Y756535D01*
X897890Y695309D02*
Y735215D01*
X895844Y737261D02*
X897890Y735215D01*
X895844Y737261D02*
X895844D01*
X1301750Y910590D02*
X1310640D01*
X891200Y760730D02*
X934110D01*
X891050D02*
X891200D01*
X863528Y557530D02*
X893240D01*
X891200Y760730D02*
X895395Y756535D01*
X1187810Y1024890D02*
X1188560Y1024140D01*
Y979780D02*
Y1024140D01*
X1281415Y701115D02*
Y704115D01*
X1278820Y698520D02*
X1281415Y701115D01*
X1275820Y698520D02*
X1278820D01*
X1272820D02*
X1275820D01*
X1151260Y658140D02*
X1195070Y701950D01*
X1151260Y601620D02*
Y658140D01*
X1082040Y601620D02*
X1151260D01*
X1163600Y589280D01*
X1002773Y545190D02*
X1053357Y595775D01*
X974090Y545190D02*
X1002773D01*
X1053357Y595775D02*
X1076195D01*
X1082040Y601620D01*
X901330Y552440D02*
X904330D01*
X898330D02*
X901330D01*
X893240Y557530D02*
X898330Y552440D01*
X809827Y611230D02*
X863528Y557530D01*
X772160Y611230D02*
X809827D01*
X698707Y644367D02*
X739023D01*
X772160Y611230D01*
X698707Y615721D02*
Y644367D01*
D73*
X1287820Y941030D02*
X1323470D01*
X1280120Y936030D02*
X1323470D01*
X1277936Y931030D02*
X1323470D01*
X1312720Y922020D02*
X1316410Y925710D01*
X1316730D01*
X1317050Y926030D01*
X1323470D01*
X1299507Y956030D02*
X1323470D01*
X1301650Y946030D02*
X1323470D01*
Y913030D02*
Y916030D01*
D74*
X574040Y799630D02*
D03*
Y849630D02*
D03*
X579120Y1016800D02*
D03*
Y1066800D02*
D03*
D75*
X574040Y899630D02*
D03*
X579120Y1116800D02*
D03*
D76*
X739140Y742950D02*
D03*
X1167130Y1221740D02*
D03*
D77*
X949850Y802640D02*
D03*
X967850D02*
D03*
X829200Y803910D02*
D03*
X847200D02*
D03*
D78*
X754380Y866140D02*
D03*
Y891540D02*
D03*
Y916940D02*
D03*
Y942340D02*
D03*
Y967740D02*
D03*
Y1069340D02*
D03*
Y1043940D02*
D03*
Y1018540D02*
D03*
Y993140D02*
D03*
Y1094740D02*
D03*
Y1120140D02*
D03*
Y1145540D02*
D03*
Y1170940D02*
D03*
Y1196340D02*
D03*
Y1221740D02*
D03*
Y1323340D02*
D03*
Y1297940D02*
D03*
Y1272540D02*
D03*
Y1247140D02*
D03*
X1052830Y873760D02*
D03*
Y899160D02*
D03*
Y924560D02*
D03*
Y949960D02*
D03*
Y975360D02*
D03*
Y1076960D02*
D03*
Y1051560D02*
D03*
Y1026160D02*
D03*
Y1000760D02*
D03*
Y1102360D02*
D03*
Y1127760D02*
D03*
Y1153160D02*
D03*
Y1178560D02*
D03*
Y1203960D02*
D03*
Y1229360D02*
D03*
Y1330960D02*
D03*
Y1305560D02*
D03*
Y1280160D02*
D03*
Y1254760D02*
D03*
D79*
X1305560Y760730D02*
D03*
X1295400Y713740D02*
D03*
X1282700Y908050D02*
D03*
X1294130Y864870D02*
D03*
X1177290Y886460D02*
D03*
X1187450Y904240D02*
D03*
X1026160Y1049020D02*
D03*
X1145540Y568960D02*
D03*
X857250Y882650D02*
D03*
X869950Y712470D02*
D03*
X875466Y640009D02*
D03*
X905510Y640080D02*
D03*
X1280160Y1046480D02*
D03*
X1262380Y937260D02*
D03*
X1059180Y736600D02*
D03*
X1082040Y746760D02*
D03*
X1311081Y964030D02*
D03*
X1301750Y910590D02*
D03*
X1170940Y946189D02*
D03*
X1165860Y925830D02*
D03*
X1132840Y949960D02*
D03*
X1159280Y1118406D02*
D03*
X1197610Y937260D02*
D03*
X1270000Y958850D02*
D03*
X1198880Y957580D02*
D03*
X839470Y934720D02*
D03*
X861060Y901700D02*
D03*
X887730Y843280D02*
D03*
X858520Y586740D02*
D03*
X923290Y580390D02*
D03*
X935990Y538480D02*
D03*
X1102360Y1192530D02*
D03*
X956310Y1143000D02*
D03*
X783590Y561340D02*
D03*
M02*
