M48
;Layer_Color=9474304
;FILE_FORMAT=4:4
METRIC,LZ
;TYPE=PLATED
T1F00S00C0.3000
T3F00S00C0.6500
T4F00S00C1.0200
T5F00S00C1.1500
T6F00S00C1.3000
T7F00S00C3.2000
;TYPE=NON_PLATED
T8F00S00C0.8000
%
T01
X012954Y0071374
X0130556Y0076073
X0108204Y0074676
X0105918Y007366
X0086995Y0071247
X00875466Y00640009
X0090551Y0064008
X0092329Y0058039
X0093599Y0053848
X0085852Y0058674
X0114554Y0056896
X0078359Y0056134
X0088773Y0084328
X0085725Y0088265
X0086106Y009017
X0083947Y0093472
X0102616Y0104902
X0095631Y01143
X0115928Y01118406
X0117094Y00946189
X0116586Y0092583
X0118745Y0090424
X0117729Y0088646
X0113284Y0094996
X0119888Y0095758
X0119761Y0093726
X0126238
X0127Y0095885
X01311081Y0096403
X0130175Y0091059
X012827Y0090805
X0129413Y0086487
X0128016Y0104648
X0110236Y0119253
T03
X0133412Y0090963
Y0096743
T04
X0075438Y0086614
Y0089154
Y0091694
Y0094234
Y0096774
Y0099314
Y0101854
Y0104394
Y0106934
Y0109474
Y0112014
Y0114554
Y0117094
X0105283Y0117856
Y0115316
Y0112776
Y0110236
Y0107696
Y0105156
Y0102616
Y0100076
Y0097536
Y0094996
Y0092456
Y0089916
Y0087376
Y0120396
Y0122936
Y0125476
Y0128016
Y0130556
Y0133096
X0075438Y0132334
Y0129794
Y0127254
Y0124714
Y0122174
Y0119634
T05
X0106172Y0056388
Y0071388
T06
X0057404Y0079963
Y0084963
Y0089963
X0057912Y010168
Y010668
Y011168
T07
X0073914Y0074295
X0116713Y0122174
T08
X008292Y0080391
X008472
X0094985Y0080264
X0096785
M30
