G04*
G04 #@! TF.GenerationSoftware,Altium Limited,Altium Designer,23.3.1 (30)*
G04*
G04 Layer_Color=8388736*
%FSLAX44Y44*%
%MOMM*%
G71*
G04*
G04 #@! TF.SameCoordinates,11343DF2-346A-4928-BBB7-4E1EB81EA5CC*
G04*
G04*
G04 #@! TF.FilePolarity,Negative*
G04*
G01*
G75*
%ADD18R,5.0000X5.0000*%
%ADD19R,2.0000X0.9000*%
%ADD22R,0.3500X0.5000*%
%ADD23R,0.9500X1.4500*%
%ADD26R,1.5000X1.5000*%
%ADD27R,1.0000X1.3500*%
%ADD39R,0.9500X1.3500*%
%ADD42R,0.9500X1.0500*%
%ADD43R,1.7000X1.7000*%
%ADD44R,1.6500X1.0500*%
%ADD45R,1.4000X1.7000*%
%ADD46R,1.3000X0.4500*%
%ADD47R,1.6500X1.7000*%
%ADD48R,1.4000X1.3700*%
%ADD49R,1.7000X1.7000*%
%ADD50R,1.5500X1.7000*%
%ADD51R,1.9500X0.7900*%
%ADD52R,1.1500X1.4000*%
%ADD53R,1.7000X1.6500*%
%ADD54R,1.6500X1.1000*%
G04:AMPARAMS|DCode=55|XSize=1.15mm|YSize=2.2mm|CornerRadius=0.125mm|HoleSize=0mm|Usage=FLASHONLY|Rotation=0.000|XOffset=0mm|YOffset=0mm|HoleType=Round|Shape=RoundedRectangle|*
%AMROUNDEDRECTD55*
21,1,1.1500,1.9500,0,0,0.0*
21,1,0.9000,2.2000,0,0,0.0*
1,1,0.2500,0.4500,-0.9750*
1,1,0.2500,-0.4500,-0.9750*
1,1,0.2500,-0.4500,0.9750*
1,1,0.2500,0.4500,0.9750*
%
%ADD55ROUNDEDRECTD55*%
G04:AMPARAMS|DCode=56|XSize=3.4mm|YSize=2.2mm|CornerRadius=0.1263mm|HoleSize=0mm|Usage=FLASHONLY|Rotation=0.000|XOffset=0mm|YOffset=0mm|HoleType=Round|Shape=RoundedRectangle|*
%AMROUNDEDRECTD56*
21,1,3.4000,1.9475,0,0,0.0*
21,1,3.1475,2.2000,0,0,0.0*
1,1,0.2525,1.5738,-0.9738*
1,1,0.2525,-1.5738,-0.9738*
1,1,0.2525,-1.5738,0.9738*
1,1,0.2525,1.5738,0.9738*
%
%ADD56ROUNDEDRECTD56*%
%ADD57R,1.7000X1.4000*%
%ADD58R,0.8500X1.1500*%
%ADD59R,0.8500X0.7500*%
%ADD60C,1.7500*%
%ADD61R,1.7500X1.7500*%
%ADD62C,2.1000*%
%ADD63R,2.1000X2.1000*%
%ADD64C,4.1500*%
%ADD65C,0.1500*%
G04:AMPARAMS|DCode=66|XSize=1.15mm|YSize=1.95mm|CornerRadius=0.575mm|HoleSize=0mm|Usage=FLASHONLY|Rotation=90.000|XOffset=0mm|YOffset=0mm|HoleType=Round|Shape=RoundedRectangle|*
%AMROUNDEDRECTD66*
21,1,1.1500,0.8000,0,0,90.0*
21,1,0.0000,1.9500,0,0,90.0*
1,1,1.1500,0.4000,0.0000*
1,1,1.1500,0.4000,0.0000*
1,1,1.1500,-0.4000,0.0000*
1,1,1.1500,-0.4000,0.0000*
%
%ADD66ROUNDEDRECTD66*%
G04:AMPARAMS|DCode=67|XSize=1.15mm|YSize=2.25mm|CornerRadius=0.575mm|HoleSize=0mm|Usage=FLASHONLY|Rotation=90.000|XOffset=0mm|YOffset=0mm|HoleType=Round|Shape=RoundedRectangle|*
%AMROUNDEDRECTD67*
21,1,1.1500,1.1000,0,0,90.0*
21,1,0.0000,2.2500,0,0,90.0*
1,1,1.1500,0.5500,0.0000*
1,1,1.1500,0.5500,0.0000*
1,1,1.1500,-0.5500,0.0000*
1,1,1.1500,-0.5500,0.0000*
%
%ADD67ROUNDEDRECTD67*%
%ADD68C,0.9500*%
%ADD69C,2.0550*%
%ADD70C,0.7500*%
D18*
X896780Y1132820D02*
D03*
D19*
X991780Y1207820D02*
D03*
Y1195120D02*
D03*
Y1182420D02*
D03*
Y1169720D02*
D03*
Y1157020D02*
D03*
Y1144320D02*
D03*
Y1131620D02*
D03*
Y1118920D02*
D03*
Y1106220D02*
D03*
Y1093520D02*
D03*
Y1080820D02*
D03*
Y1068120D02*
D03*
Y1055420D02*
D03*
Y1042720D02*
D03*
Y1030020D02*
D03*
Y1017320D02*
D03*
Y1004620D02*
D03*
Y991920D02*
D03*
Y979220D02*
D03*
X821780D02*
D03*
Y991920D02*
D03*
Y1004620D02*
D03*
Y1017320D02*
D03*
Y1030020D02*
D03*
Y1042720D02*
D03*
Y1055420D02*
D03*
Y1068120D02*
D03*
Y1080820D02*
D03*
Y1093520D02*
D03*
Y1106220D02*
D03*
Y1118920D02*
D03*
Y1131620D02*
D03*
Y1144320D02*
D03*
Y1157020D02*
D03*
Y1169720D02*
D03*
Y1182420D02*
D03*
Y1195120D02*
D03*
Y1207820D02*
D03*
D22*
X1304850Y820510D02*
D03*
X1298350D02*
D03*
Y800010D02*
D03*
X1304850D02*
D03*
X1311350D02*
D03*
X1317850D02*
D03*
Y820510D02*
D03*
X1311350D02*
D03*
D23*
X1210720Y958850D02*
D03*
X1230220D02*
D03*
X1232760Y999490D02*
D03*
X1213260D02*
D03*
D26*
X952780Y615950D02*
D03*
X987780D02*
D03*
D27*
X913290D02*
D03*
X933290D02*
D03*
D39*
X1071760Y758780D02*
D03*
X1056760D02*
D03*
X1070490Y784180D02*
D03*
X1055490D02*
D03*
D42*
X982320Y877410D02*
D03*
X963320D02*
D03*
X972820Y857410D02*
D03*
X904240Y859950D02*
D03*
X894740Y879950D02*
D03*
X913740D02*
D03*
D43*
X668020Y703580D02*
D03*
Y722080D02*
D03*
X772160Y611230D02*
D03*
Y592730D02*
D03*
X1195070Y720450D02*
D03*
Y701950D02*
D03*
X1082040Y620120D02*
D03*
Y601620D02*
D03*
X974090Y526690D02*
D03*
Y545190D02*
D03*
D44*
X593990Y730240D02*
D03*
Y697240D02*
D03*
X642990D02*
D03*
Y730240D02*
D03*
X698707Y615721D02*
D03*
Y582721D02*
D03*
X747707D02*
D03*
Y615721D02*
D03*
X950330Y552440D02*
D03*
Y519440D02*
D03*
X901330D02*
D03*
Y552440D02*
D03*
X1226820Y698520D02*
D03*
Y731520D02*
D03*
X1275820D02*
D03*
Y698520D02*
D03*
X1117600Y589280D02*
D03*
Y622280D02*
D03*
X1166600D02*
D03*
Y589280D02*
D03*
D45*
X929550Y900430D02*
D03*
X950050D02*
D03*
X929550Y928370D02*
D03*
X950050D02*
D03*
D46*
X1323470Y972030D02*
D03*
Y964030D02*
D03*
Y916030D02*
D03*
Y908030D02*
D03*
Y905030D02*
D03*
Y913030D02*
D03*
Y921030D02*
D03*
Y926030D02*
D03*
Y931030D02*
D03*
Y936030D02*
D03*
Y941030D02*
D03*
Y946030D02*
D03*
Y951030D02*
D03*
Y956030D02*
D03*
Y961030D02*
D03*
Y969030D02*
D03*
D47*
X970170Y671830D02*
D03*
X988170D02*
D03*
X970170Y701040D02*
D03*
X988170D02*
D03*
X970170Y728980D02*
D03*
X988170D02*
D03*
X840630Y615950D02*
D03*
X858630D02*
D03*
X839360Y731520D02*
D03*
X857360D02*
D03*
X838090Y702310D02*
D03*
X856090D02*
D03*
D48*
X861550Y760730D02*
D03*
X891050D02*
D03*
D49*
X839110Y670560D02*
D03*
X857610D02*
D03*
X863240Y927100D02*
D03*
X881740D02*
D03*
X1256390Y1096010D02*
D03*
X1237890D02*
D03*
X1187810Y1024890D02*
D03*
X1169310D02*
D03*
D50*
X934110Y760730D02*
D03*
X953110D02*
D03*
D51*
X1137350Y1165860D02*
D03*
Y1153160D02*
D03*
Y1140460D02*
D03*
Y1127760D02*
D03*
Y1115060D02*
D03*
Y1102360D02*
D03*
Y1089660D02*
D03*
Y1076960D02*
D03*
X1199450D02*
D03*
Y1089660D02*
D03*
Y1102360D02*
D03*
Y1115060D02*
D03*
Y1127760D02*
D03*
Y1140460D02*
D03*
Y1153160D02*
D03*
Y1165860D02*
D03*
D52*
X1125340Y770890D02*
D03*
X1140340D02*
D03*
X1124070Y789940D02*
D03*
X1139070D02*
D03*
X1140460Y845820D02*
D03*
X1155460D02*
D03*
X1182370Y864870D02*
D03*
X1197370D02*
D03*
X1218050Y909320D02*
D03*
X1233050D02*
D03*
D53*
X996950Y796180D02*
D03*
Y814180D02*
D03*
X880110Y796180D02*
D03*
Y814180D02*
D03*
D54*
X958850Y781890D02*
D03*
Y823390D02*
D03*
X838200Y783160D02*
D03*
Y824660D02*
D03*
D55*
X934860Y723900D02*
D03*
X911860D02*
D03*
X888860D02*
D03*
D56*
X911860Y660400D02*
D03*
D57*
X842010Y886550D02*
D03*
Y866050D02*
D03*
D58*
X1168560Y977780D02*
D03*
D59*
Y960780D02*
D03*
X1188560D02*
D03*
Y979780D02*
D03*
D60*
X1061720Y713880D02*
D03*
D61*
Y563880D02*
D03*
D62*
X574040Y799630D02*
D03*
Y849630D02*
D03*
X579120Y1016800D02*
D03*
Y1066800D02*
D03*
D63*
X574040Y899630D02*
D03*
X579120Y1116800D02*
D03*
D64*
X739140Y742950D02*
D03*
X1167130Y1221740D02*
D03*
D65*
X1334120Y967430D02*
D03*
Y909630D02*
D03*
D66*
X1370920Y981730D02*
D03*
Y895330D02*
D03*
D67*
X1329120Y981730D02*
D03*
Y895330D02*
D03*
D68*
X949850Y802640D02*
D03*
X967850D02*
D03*
X829200Y803910D02*
D03*
X847200D02*
D03*
D69*
X754380Y866140D02*
D03*
Y891540D02*
D03*
Y916940D02*
D03*
Y942340D02*
D03*
Y967740D02*
D03*
Y1069340D02*
D03*
Y1043940D02*
D03*
Y1018540D02*
D03*
Y993140D02*
D03*
Y1094740D02*
D03*
Y1120140D02*
D03*
Y1145540D02*
D03*
Y1170940D02*
D03*
Y1196340D02*
D03*
Y1221740D02*
D03*
Y1323340D02*
D03*
Y1297940D02*
D03*
Y1272540D02*
D03*
Y1247140D02*
D03*
X1052830Y873760D02*
D03*
Y899160D02*
D03*
Y924560D02*
D03*
Y949960D02*
D03*
Y975360D02*
D03*
Y1076960D02*
D03*
Y1051560D02*
D03*
Y1026160D02*
D03*
Y1000760D02*
D03*
Y1102360D02*
D03*
Y1127760D02*
D03*
Y1153160D02*
D03*
Y1178560D02*
D03*
Y1203960D02*
D03*
Y1229360D02*
D03*
Y1330960D02*
D03*
Y1305560D02*
D03*
Y1280160D02*
D03*
Y1254760D02*
D03*
D70*
X1305560Y760730D02*
D03*
X1295400Y713740D02*
D03*
X1282700Y908050D02*
D03*
X1294130Y864870D02*
D03*
X1177290Y886460D02*
D03*
X1187450Y904240D02*
D03*
X1026160Y1049020D02*
D03*
X1145540Y568960D02*
D03*
X857250Y882650D02*
D03*
X869950Y712470D02*
D03*
X875466Y640009D02*
D03*
X905510Y640080D02*
D03*
X1280160Y1046480D02*
D03*
X1262380Y937260D02*
D03*
X1059180Y736600D02*
D03*
X1082040Y746760D02*
D03*
X1311081Y964030D02*
D03*
X1301750Y910590D02*
D03*
X1170940Y946189D02*
D03*
X1165860Y925830D02*
D03*
X1132840Y949960D02*
D03*
X1159280Y1118406D02*
D03*
X1197610Y937260D02*
D03*
X1270000Y958850D02*
D03*
X1198880Y957580D02*
D03*
X839470Y934720D02*
D03*
X861060Y901700D02*
D03*
X887730Y843280D02*
D03*
X858520Y586740D02*
D03*
X923290Y580390D02*
D03*
X935990Y538480D02*
D03*
X1102360Y1192530D02*
D03*
X956310Y1143000D02*
D03*
X783590Y561340D02*
D03*
M02*
