G04*
G04 #@! TF.GenerationSoftware,Altium Limited,Altium Designer,23.3.1 (30)*
G04*
G04 Layer_Color=16711935*
%FSLAX44Y44*%
%MOMM*%
G71*
G04*
G04 #@! TF.SameCoordinates,11343DF2-346A-4928-BBB7-4E1EB81EA5CC*
G04*
G04*
G04 #@! TF.FilePolarity,Negative*
G04*
G01*
G75*
%ADD60C,1.7500*%
%ADD61R,1.7500X1.7500*%
%ADD62C,2.1000*%
%ADD63R,2.1000X2.1000*%
%ADD64C,4.1500*%
G04:AMPARAMS|DCode=66|XSize=1.15mm|YSize=1.95mm|CornerRadius=0.575mm|HoleSize=0mm|Usage=FLASHONLY|Rotation=90.000|XOffset=0mm|YOffset=0mm|HoleType=Round|Shape=RoundedRectangle|*
%AMROUNDEDRECTD66*
21,1,1.1500,0.8000,0,0,90.0*
21,1,0.0000,1.9500,0,0,90.0*
1,1,1.1500,0.4000,0.0000*
1,1,1.1500,0.4000,0.0000*
1,1,1.1500,-0.4000,0.0000*
1,1,1.1500,-0.4000,0.0000*
%
%ADD66ROUNDEDRECTD66*%
G04:AMPARAMS|DCode=67|XSize=1.15mm|YSize=2.25mm|CornerRadius=0.575mm|HoleSize=0mm|Usage=FLASHONLY|Rotation=90.000|XOffset=0mm|YOffset=0mm|HoleType=Round|Shape=RoundedRectangle|*
%AMROUNDEDRECTD67*
21,1,1.1500,1.1000,0,0,90.0*
21,1,0.0000,2.2500,0,0,90.0*
1,1,1.1500,0.5500,0.0000*
1,1,1.1500,0.5500,0.0000*
1,1,1.1500,-0.5500,0.0000*
1,1,1.1500,-0.5500,0.0000*
%
%ADD67ROUNDEDRECTD67*%
%ADD68C,0.9500*%
%ADD69C,2.0550*%
%ADD70C,0.7500*%
%ADD81C,0.8000*%
D60*
X1061720Y713880D02*
D03*
D61*
Y563880D02*
D03*
D62*
X574040Y799630D02*
D03*
Y849630D02*
D03*
X579120Y1016800D02*
D03*
Y1066800D02*
D03*
D63*
X574040Y899630D02*
D03*
X579120Y1116800D02*
D03*
D64*
X739140Y742950D02*
D03*
X1167130Y1221740D02*
D03*
D66*
X1370920Y981730D02*
D03*
Y895330D02*
D03*
D67*
X1329120Y981730D02*
D03*
Y895330D02*
D03*
D68*
X949850Y802640D02*
D03*
X967850D02*
D03*
X829200Y803910D02*
D03*
X847200D02*
D03*
D69*
X754380Y866140D02*
D03*
Y891540D02*
D03*
Y916940D02*
D03*
Y942340D02*
D03*
Y967740D02*
D03*
Y1069340D02*
D03*
Y1043940D02*
D03*
Y1018540D02*
D03*
Y993140D02*
D03*
Y1094740D02*
D03*
Y1120140D02*
D03*
Y1145540D02*
D03*
Y1170940D02*
D03*
Y1196340D02*
D03*
Y1221740D02*
D03*
Y1323340D02*
D03*
Y1297940D02*
D03*
Y1272540D02*
D03*
Y1247140D02*
D03*
X1052830Y873760D02*
D03*
Y899160D02*
D03*
Y924560D02*
D03*
Y949960D02*
D03*
Y975360D02*
D03*
Y1076960D02*
D03*
Y1051560D02*
D03*
Y1026160D02*
D03*
Y1000760D02*
D03*
Y1102360D02*
D03*
Y1127760D02*
D03*
Y1153160D02*
D03*
Y1178560D02*
D03*
Y1203960D02*
D03*
Y1229360D02*
D03*
Y1330960D02*
D03*
Y1305560D02*
D03*
Y1280160D02*
D03*
Y1254760D02*
D03*
D70*
X1305560Y760730D02*
D03*
X1295400Y713740D02*
D03*
X1282700Y908050D02*
D03*
X1294130Y864870D02*
D03*
X1177290Y886460D02*
D03*
X1187450Y904240D02*
D03*
X1026160Y1049020D02*
D03*
X1145540Y568960D02*
D03*
X857250Y882650D02*
D03*
X869950Y712470D02*
D03*
X875466Y640009D02*
D03*
X905510Y640080D02*
D03*
X1280160Y1046480D02*
D03*
X1262380Y937260D02*
D03*
X1059180Y736600D02*
D03*
X1082040Y746760D02*
D03*
X1311081Y964030D02*
D03*
X1301750Y910590D02*
D03*
X1170940Y946189D02*
D03*
X1165860Y925830D02*
D03*
X1132840Y949960D02*
D03*
X1159280Y1118406D02*
D03*
X1197610Y937260D02*
D03*
X1270000Y958850D02*
D03*
X1198880Y957580D02*
D03*
X839470Y934720D02*
D03*
X861060Y901700D02*
D03*
X887730Y843280D02*
D03*
X858520Y586740D02*
D03*
X923290Y580390D02*
D03*
X935990Y538480D02*
D03*
X1102360Y1192530D02*
D03*
X956310Y1143000D02*
D03*
X783590Y561340D02*
D03*
D81*
X1334120Y967430D02*
D03*
Y909630D02*
D03*
M02*
