G04*
G04 #@! TF.GenerationSoftware,Altium Limited,Altium Designer,23.3.1 (30)*
G04*
G04 Layer_Physical_Order=2*
G04 Layer_Color=16711680*
%FSLAX44Y44*%
%MOMM*%
G71*
G04*
G04 #@! TF.SameCoordinates,11343DF2-346A-4928-BBB7-4E1EB81EA5CC*
G04*
G04*
G04 #@! TF.FilePolarity,Positive*
G04*
G01*
G75*
G04:AMPARAMS|DCode=15|XSize=1mm|YSize=2.1mm|CornerRadius=0.5mm|HoleSize=0mm|Usage=FLASHONLY|Rotation=90.000|XOffset=0mm|YOffset=0mm|HoleType=Round|Shape=RoundedRectangle|*
%AMROUNDEDRECTD15*
21,1,1.0000,1.1000,0,0,90.0*
21,1,0.0000,2.1000,0,0,90.0*
1,1,1.0000,0.5500,0.0000*
1,1,1.0000,0.5500,0.0000*
1,1,1.0000,-0.5500,0.0000*
1,1,1.0000,-0.5500,0.0000*
%
%ADD15ROUNDEDRECTD15*%
G04:AMPARAMS|DCode=16|XSize=1mm|YSize=1.8mm|CornerRadius=0.5mm|HoleSize=0mm|Usage=FLASHONLY|Rotation=90.000|XOffset=0mm|YOffset=0mm|HoleType=Round|Shape=RoundedRectangle|*
%AMROUNDEDRECTD16*
21,1,1.0000,0.8000,0,0,90.0*
21,1,0.0000,1.8000,0,0,90.0*
1,1,1.0000,0.4000,0.0000*
1,1,1.0000,0.4000,0.0000*
1,1,1.0000,-0.4000,0.0000*
1,1,1.0000,-0.4000,0.0000*
%
%ADD16ROUNDEDRECTD16*%
%ADD60C,1.7500*%
%ADD61R,1.7500X1.7500*%
%ADD71C,0.3810*%
%ADD74C,1.9500*%
%ADD75R,1.9500X1.9500*%
%ADD76C,4.0000*%
%ADD77C,0.8000*%
%ADD78C,1.9050*%
%ADD79C,0.6000*%
%ADD80C,0.6500*%
G36*
X948291Y1396017D02*
X959416Y1395531D01*
X968653Y1394890D01*
X979771Y1393917D01*
X988931Y1392854D01*
X1000038Y1391392D01*
X1009069Y1389919D01*
X1020175Y1387961D01*
X1029012Y1386096D01*
X1040141Y1383629D01*
X1048677Y1381412D01*
X1059896Y1378406D01*
X1067892Y1375930D01*
X1079398Y1372302D01*
X1085993Y1369921D01*
X1098457Y1365385D01*
X1116808Y1357783D01*
X1128837Y1352174D01*
X1135176Y1349198D01*
X1145883Y1343625D01*
X1153282Y1339724D01*
X1163344Y1333915D01*
X1170944Y1329449D01*
X1180560Y1323323D01*
X1188125Y1318394D01*
X1197363Y1311925D01*
X1204791Y1306580D01*
X1213679Y1299761D01*
X1220908Y1294035D01*
X1229456Y1286862D01*
X1236442Y1280783D01*
X1244652Y1273259D01*
X1251363Y1266852D01*
X1259232Y1258983D01*
X1265640Y1252272D01*
X1273163Y1244062D01*
X1279242Y1237076D01*
X1286415Y1228528D01*
X1292141Y1221299D01*
X1298960Y1212411D01*
X1304305Y1204983D01*
X1310773Y1195745D01*
X1315703Y1188180D01*
X1321829Y1178564D01*
X1326295Y1170965D01*
X1332105Y1160902D01*
X1336004Y1153503D01*
X1341579Y1142796D01*
X1344554Y1136457D01*
X1350163Y1124428D01*
X1357765Y1106077D01*
X1362301Y1093614D01*
X1364682Y1087018D01*
X1368310Y1075513D01*
X1370786Y1067516D01*
X1373792Y1056297D01*
X1376009Y1047761D01*
X1378477Y1036632D01*
X1380341Y1027795D01*
X1382299Y1016689D01*
X1383772Y1007658D01*
X1385234Y996551D01*
X1386297Y987391D01*
X1387270Y976273D01*
X1387911Y967036D01*
X1388397Y955911D01*
X1388611Y946633D01*
Y935507D01*
X1388397Y926229D01*
X1387911Y915104D01*
X1387270Y905866D01*
X1386297Y894749D01*
X1385234Y885589D01*
X1383772Y874482D01*
X1382299Y865451D01*
X1380341Y854345D01*
X1378476Y845508D01*
X1376009Y834379D01*
X1373792Y825843D01*
X1370786Y814624D01*
X1368309Y806626D01*
X1364682Y795122D01*
X1362300Y788523D01*
X1357765Y776063D01*
X1350163Y757712D01*
X1344556Y745687D01*
X1341578Y739344D01*
X1336006Y728639D01*
X1332104Y721238D01*
X1326296Y711177D01*
X1321829Y703576D01*
X1315704Y693961D01*
X1310773Y686395D01*
X1304306Y677158D01*
X1298960Y669728D01*
X1292141Y660842D01*
X1286414Y653612D01*
X1279242Y645064D01*
X1273163Y638078D01*
X1265640Y629868D01*
X1259232Y623157D01*
X1251363Y615288D01*
X1244651Y608880D01*
X1236442Y601357D01*
X1229455Y595278D01*
X1220908Y588106D01*
X1213678Y582379D01*
X1204792Y575560D01*
X1197361Y570214D01*
X1188126Y563747D01*
X1180558Y558816D01*
X1170944Y552691D01*
X1163342Y548224D01*
X1153282Y542416D01*
X1145879Y538513D01*
X1135176Y532942D01*
X1128829Y529962D01*
X1116808Y524357D01*
X1098457Y516755D01*
X1086002Y512222D01*
X1079398Y509838D01*
X1067898Y506212D01*
X1059895Y503734D01*
X1048680Y500728D01*
X1040141Y498511D01*
X1029014Y496044D01*
X1020175Y494179D01*
X1009071Y492221D01*
X1000037Y490748D01*
X988933Y489286D01*
X979770Y488223D01*
X968655Y487251D01*
X959415Y486609D01*
X948291Y486123D01*
X939013Y485909D01*
X927887D01*
X918609Y486123D01*
X907485Y486609D01*
X898245Y487251D01*
X887130Y488223D01*
X877967Y489286D01*
X866863Y490748D01*
X857829Y492221D01*
X846725Y494179D01*
X837885Y496044D01*
X826759Y498511D01*
X818220Y500729D01*
X807005Y503734D01*
X799002Y506212D01*
X787503Y509837D01*
X780895Y512223D01*
X768443Y516755D01*
X750092Y524357D01*
X738075Y529960D01*
X731724Y532942D01*
X721023Y538512D01*
X713617Y542416D01*
X703560Y548223D01*
X695955Y552691D01*
X686343Y558815D01*
X678774Y563747D01*
X669540Y570213D01*
X662108Y575560D01*
X653223Y582378D01*
X645991Y588106D01*
X637445Y595277D01*
X630457Y601358D01*
X622249Y608880D01*
X615536Y615289D01*
X607669Y623156D01*
X601259Y629869D01*
X593738Y638077D01*
X587657Y645065D01*
X580486Y653611D01*
X574758Y660843D01*
X567940Y669728D01*
X562593Y677160D01*
X556127Y686394D01*
X551195Y693963D01*
X545071Y703575D01*
X540603Y711179D01*
X534796Y721237D01*
X530892Y728643D01*
X525322Y739344D01*
X522340Y745695D01*
X516737Y757712D01*
X509135Y776063D01*
X504603Y788515D01*
X502217Y795123D01*
X498592Y806621D01*
X496114Y814625D01*
X493109Y825839D01*
X490891Y834379D01*
X488424Y845505D01*
X486559Y854345D01*
X484602Y865449D01*
X483128Y874483D01*
X481666Y885587D01*
X480603Y894750D01*
X479631Y905865D01*
X478989Y915105D01*
X478503Y926229D01*
X478289Y935507D01*
Y946633D01*
X478503Y955911D01*
X478989Y967035D01*
X479631Y976275D01*
X480603Y987390D01*
X481666Y996553D01*
X483128Y1007657D01*
X484601Y1016691D01*
X486559Y1027795D01*
X488424Y1036634D01*
X490891Y1047761D01*
X493108Y1056300D01*
X496114Y1067515D01*
X498591Y1075517D01*
X502218Y1087018D01*
X504602Y1093622D01*
X509135Y1106077D01*
X516737Y1124428D01*
X522342Y1136449D01*
X525322Y1142796D01*
X530893Y1153499D01*
X534796Y1160902D01*
X540603Y1170962D01*
X545071Y1178564D01*
X551196Y1188178D01*
X556127Y1195746D01*
X562594Y1204981D01*
X567940Y1212412D01*
X574759Y1221298D01*
X580486Y1228528D01*
X587658Y1237075D01*
X593737Y1244062D01*
X601260Y1252272D01*
X607668Y1258983D01*
X615537Y1266852D01*
X622248Y1273260D01*
X630458Y1280782D01*
X637444Y1286862D01*
X645992Y1294034D01*
X653222Y1299761D01*
X662109Y1306580D01*
X669538Y1311926D01*
X678774Y1318393D01*
X686341Y1323324D01*
X695956Y1329449D01*
X703557Y1333916D01*
X713618Y1339724D01*
X721019Y1343626D01*
X731724Y1349198D01*
X738067Y1352176D01*
X750092Y1357783D01*
X768443Y1365385D01*
X780903Y1369920D01*
X787502Y1372302D01*
X799005Y1375929D01*
X807004Y1378406D01*
X818223Y1381412D01*
X826759Y1383629D01*
X837888Y1386096D01*
X846725Y1387961D01*
X857831Y1389919D01*
X866862Y1391392D01*
X877969Y1392854D01*
X887129Y1393917D01*
X898247Y1394890D01*
X907484Y1395531D01*
X918609Y1396017D01*
X927887Y1396231D01*
X939013D01*
X948291Y1396017D01*
D02*
G37*
%LPC*%
G36*
X1054251Y1341755D02*
X1053465D01*
Y1331595D01*
X1063625D01*
Y1332381D01*
X1062889Y1335127D01*
X1061468Y1337588D01*
X1059458Y1339598D01*
X1056997Y1341019D01*
X1054251Y1341755D01*
D02*
G37*
G36*
X1052195D02*
X1051409D01*
X1048663Y1341019D01*
X1046202Y1339598D01*
X1044192Y1337588D01*
X1042771Y1335127D01*
X1042035Y1332381D01*
Y1331595D01*
X1052195D01*
Y1341755D01*
D02*
G37*
G36*
X1063625Y1330325D02*
X1053465D01*
Y1320165D01*
X1054251D01*
X1056997Y1320901D01*
X1059458Y1322322D01*
X1061468Y1324332D01*
X1062889Y1326793D01*
X1063625Y1329539D01*
Y1330325D01*
D02*
G37*
G36*
X1052195D02*
X1042035D01*
Y1329539D01*
X1042771Y1326793D01*
X1044192Y1324332D01*
X1046202Y1322322D01*
X1048663Y1320901D01*
X1051409Y1320165D01*
X1052195D01*
Y1330325D01*
D02*
G37*
G36*
X755801Y1334135D02*
X752959D01*
X750213Y1333399D01*
X747752Y1331978D01*
X745742Y1329968D01*
X744321Y1327507D01*
X743585Y1324761D01*
Y1321919D01*
X744321Y1319173D01*
X745742Y1316712D01*
X747752Y1314702D01*
X750213Y1313281D01*
X752959Y1312545D01*
X755801D01*
X758547Y1313281D01*
X761008Y1314702D01*
X763018Y1316712D01*
X764439Y1319173D01*
X765175Y1321919D01*
Y1324761D01*
X764439Y1327507D01*
X763018Y1329968D01*
X761008Y1331978D01*
X758547Y1333399D01*
X755801Y1334135D01*
D02*
G37*
G36*
X1054251Y1316355D02*
X1051409D01*
X1048663Y1315619D01*
X1046202Y1314198D01*
X1044192Y1312188D01*
X1042771Y1309727D01*
X1042035Y1306981D01*
Y1304139D01*
X1042771Y1301393D01*
X1044192Y1298932D01*
X1046202Y1296922D01*
X1048663Y1295501D01*
X1051409Y1294765D01*
X1054251D01*
X1056997Y1295501D01*
X1059458Y1296922D01*
X1061468Y1298932D01*
X1062889Y1301393D01*
X1063625Y1304139D01*
Y1306981D01*
X1062889Y1309727D01*
X1061468Y1312188D01*
X1059458Y1314198D01*
X1056997Y1315619D01*
X1054251Y1316355D01*
D02*
G37*
G36*
X755801Y1308735D02*
X752959D01*
X750213Y1307999D01*
X747752Y1306578D01*
X745742Y1304568D01*
X744321Y1302107D01*
X743585Y1299361D01*
Y1296519D01*
X744321Y1293773D01*
X745742Y1291312D01*
X747752Y1289302D01*
X750213Y1287881D01*
X752959Y1287145D01*
X755801D01*
X758547Y1287881D01*
X761008Y1289302D01*
X763018Y1291312D01*
X764439Y1293773D01*
X765175Y1296519D01*
Y1299361D01*
X764439Y1302107D01*
X763018Y1304568D01*
X761008Y1306578D01*
X758547Y1307999D01*
X755801Y1308735D01*
D02*
G37*
G36*
Y1283335D02*
X752959D01*
X750213Y1282599D01*
X747752Y1281178D01*
X745742Y1279168D01*
X744321Y1276707D01*
X743585Y1273961D01*
Y1271119D01*
X744321Y1268373D01*
X745742Y1265912D01*
X747752Y1263902D01*
X750213Y1262481D01*
X752959Y1261745D01*
X755801D01*
X758547Y1262481D01*
X761008Y1263902D01*
X763018Y1265912D01*
X764439Y1268373D01*
X765175Y1271119D01*
Y1273961D01*
X764439Y1276707D01*
X763018Y1279168D01*
X761008Y1281178D01*
X758547Y1282599D01*
X755801Y1283335D01*
D02*
G37*
G36*
X1054251Y1265555D02*
X1051409D01*
X1048663Y1264819D01*
X1046202Y1263398D01*
X1044192Y1261388D01*
X1042771Y1258927D01*
X1042035Y1256181D01*
Y1253339D01*
X1042771Y1250593D01*
X1044192Y1248132D01*
X1046202Y1246122D01*
X1048663Y1244701D01*
X1051409Y1243965D01*
X1054251D01*
X1056997Y1244701D01*
X1059458Y1246122D01*
X1061468Y1248132D01*
X1062889Y1250593D01*
X1063625Y1253339D01*
Y1256181D01*
X1062889Y1258927D01*
X1061468Y1261388D01*
X1059458Y1263398D01*
X1056997Y1264819D01*
X1054251Y1265555D01*
D02*
G37*
G36*
X755801Y1257935D02*
X752959D01*
X750213Y1257199D01*
X747752Y1255778D01*
X745742Y1253768D01*
X744321Y1251307D01*
X743585Y1248561D01*
Y1245719D01*
X744321Y1242973D01*
X745742Y1240512D01*
X747752Y1238502D01*
X750213Y1237081D01*
X752959Y1236345D01*
X755801D01*
X758547Y1237081D01*
X761008Y1238502D01*
X763018Y1240512D01*
X764439Y1242973D01*
X765175Y1245719D01*
Y1248561D01*
X764439Y1251307D01*
X763018Y1253768D01*
X761008Y1255778D01*
X758547Y1257199D01*
X755801Y1257935D01*
D02*
G37*
G36*
X1054251Y1240155D02*
X1051409D01*
X1048663Y1239419D01*
X1046202Y1237998D01*
X1044192Y1235988D01*
X1042771Y1233527D01*
X1042035Y1230781D01*
Y1227939D01*
X1042771Y1225193D01*
X1044192Y1222732D01*
X1046202Y1220722D01*
X1048663Y1219301D01*
X1051409Y1218565D01*
X1054251D01*
X1056997Y1219301D01*
X1059458Y1220722D01*
X1061468Y1222732D01*
X1062889Y1225193D01*
X1063625Y1227939D01*
Y1230781D01*
X1062889Y1233527D01*
X1061468Y1235988D01*
X1059458Y1237998D01*
X1056997Y1239419D01*
X1054251Y1240155D01*
D02*
G37*
G36*
X755801Y1232535D02*
X752959D01*
X750213Y1231799D01*
X747752Y1230378D01*
X745742Y1228368D01*
X744321Y1225907D01*
X743585Y1223161D01*
Y1220319D01*
X744321Y1217573D01*
X745742Y1215112D01*
X747752Y1213102D01*
X750213Y1211681D01*
X752959Y1210945D01*
X755801D01*
X758547Y1211681D01*
X761008Y1213102D01*
X763018Y1215112D01*
X764439Y1217573D01*
X765175Y1220319D01*
Y1223161D01*
X764439Y1225907D01*
X763018Y1228368D01*
X761008Y1230378D01*
X758547Y1231799D01*
X755801Y1232535D01*
D02*
G37*
G36*
X1007110Y1308100D02*
X811530D01*
Y1207770D01*
X1007110D01*
Y1308100D01*
D02*
G37*
G36*
X1169225Y1243010D02*
X1165035D01*
X1160926Y1242193D01*
X1157055Y1240589D01*
X1153571Y1238261D01*
X1150609Y1235299D01*
X1148281Y1231815D01*
X1146677Y1227944D01*
X1145860Y1223835D01*
Y1219645D01*
X1146677Y1215536D01*
X1148281Y1211665D01*
X1150609Y1208181D01*
X1153571Y1205219D01*
X1157055Y1202891D01*
X1160926Y1201287D01*
X1165035Y1200470D01*
X1169225D01*
X1173334Y1201287D01*
X1177205Y1202891D01*
X1180689Y1205219D01*
X1183652Y1208181D01*
X1185979Y1211665D01*
X1187583Y1215536D01*
X1188400Y1219645D01*
Y1223835D01*
X1187583Y1227944D01*
X1185979Y1231815D01*
X1183652Y1235299D01*
X1180689Y1238261D01*
X1177205Y1240589D01*
X1173334Y1242193D01*
X1169225Y1243010D01*
D02*
G37*
G36*
X755801Y1207135D02*
X752959D01*
X750213Y1206399D01*
X747752Y1204978D01*
X745742Y1202968D01*
X744321Y1200507D01*
X743585Y1197761D01*
Y1194919D01*
X744321Y1192173D01*
X745742Y1189712D01*
X747752Y1187702D01*
X750213Y1186281D01*
X752959Y1185545D01*
X755801D01*
X758547Y1186281D01*
X761008Y1187702D01*
X763018Y1189712D01*
X764439Y1192173D01*
X765175Y1194919D01*
Y1197761D01*
X764439Y1200507D01*
X763018Y1202968D01*
X761008Y1204978D01*
X758547Y1206399D01*
X755801Y1207135D01*
D02*
G37*
G36*
X1054251Y1189355D02*
X1053465D01*
Y1179195D01*
X1063625D01*
Y1179981D01*
X1062889Y1182727D01*
X1061468Y1185188D01*
X1059458Y1187198D01*
X1056997Y1188619D01*
X1054251Y1189355D01*
D02*
G37*
G36*
X1052195D02*
X1051409D01*
X1048663Y1188619D01*
X1046202Y1187198D01*
X1044192Y1185188D01*
X1042771Y1182727D01*
X1042035Y1179981D01*
Y1179195D01*
X1052195D01*
Y1189355D01*
D02*
G37*
G36*
X1063625Y1177925D02*
X1053465D01*
Y1167765D01*
X1054251D01*
X1056997Y1168501D01*
X1059458Y1169922D01*
X1061468Y1171932D01*
X1062889Y1174393D01*
X1063625Y1177139D01*
Y1177925D01*
D02*
G37*
G36*
X1052195D02*
X1042035D01*
Y1177139D01*
X1042771Y1174393D01*
X1044192Y1171932D01*
X1046202Y1169922D01*
X1048663Y1168501D01*
X1051409Y1167765D01*
X1052195D01*
Y1177925D01*
D02*
G37*
G36*
X755801Y1181735D02*
X752959D01*
X750213Y1180999D01*
X747752Y1179578D01*
X745742Y1177568D01*
X744321Y1175107D01*
X743585Y1172361D01*
Y1169519D01*
X744321Y1166773D01*
X745742Y1164312D01*
X747752Y1162302D01*
X750213Y1160881D01*
X752959Y1160145D01*
X755801D01*
X758547Y1160881D01*
X761008Y1162302D01*
X763018Y1164312D01*
X764439Y1166773D01*
X765175Y1169519D01*
Y1172361D01*
X764439Y1175107D01*
X763018Y1177568D01*
X761008Y1179578D01*
X758547Y1180999D01*
X755801Y1181735D01*
D02*
G37*
G36*
X1054251Y1163955D02*
X1051409D01*
X1048663Y1163219D01*
X1046202Y1161798D01*
X1044192Y1159788D01*
X1042771Y1157327D01*
X1042035Y1154581D01*
Y1151739D01*
X1042771Y1148993D01*
X1044192Y1146532D01*
X1046202Y1144522D01*
X1048663Y1143101D01*
X1051409Y1142365D01*
X1054251D01*
X1056997Y1143101D01*
X1059458Y1144522D01*
X1061468Y1146532D01*
X1062889Y1148993D01*
X1063625Y1151739D01*
Y1154581D01*
X1062889Y1157327D01*
X1061468Y1159788D01*
X1059458Y1161798D01*
X1056997Y1163219D01*
X1054251Y1163955D01*
D02*
G37*
G36*
X755801Y1156335D02*
X752959D01*
X750213Y1155599D01*
X747752Y1154178D01*
X745742Y1152168D01*
X744321Y1149707D01*
X743585Y1146961D01*
Y1144119D01*
X744321Y1141373D01*
X745742Y1138912D01*
X747752Y1136902D01*
X750213Y1135481D01*
X752959Y1134745D01*
X755801D01*
X758547Y1135481D01*
X761008Y1136902D01*
X763018Y1138912D01*
X764439Y1141373D01*
X765175Y1144119D01*
Y1146961D01*
X764439Y1149707D01*
X763018Y1152168D01*
X761008Y1154178D01*
X758547Y1155599D01*
X755801Y1156335D01*
D02*
G37*
G36*
X1054251Y1290955D02*
X1051409D01*
X1048663Y1290219D01*
X1046202Y1288798D01*
X1044192Y1286788D01*
X1042771Y1284327D01*
X1042035Y1281581D01*
Y1278739D01*
X1042771Y1275993D01*
X1044192Y1273532D01*
X1046202Y1271522D01*
X1048663Y1270101D01*
X1051409Y1269365D01*
X1054251D01*
X1056997Y1270101D01*
X1057830Y1270582D01*
X1184213Y1144199D01*
Y1124543D01*
X1182943Y1124418D01*
X1182821Y1125032D01*
X1182119Y1126082D01*
X1101952Y1206249D01*
X1100902Y1206951D01*
X1099663Y1207197D01*
X1063138D01*
X1062889Y1208127D01*
X1061468Y1210588D01*
X1059458Y1212598D01*
X1056997Y1214019D01*
X1054251Y1214755D01*
X1051409D01*
X1048663Y1214019D01*
X1046202Y1212598D01*
X1044192Y1210588D01*
X1042771Y1208127D01*
X1042035Y1205381D01*
Y1202539D01*
X1042771Y1199793D01*
X1044192Y1197332D01*
X1046202Y1195322D01*
X1048663Y1193901D01*
X1051409Y1193165D01*
X1054251D01*
X1056997Y1193901D01*
X1059458Y1195322D01*
X1061468Y1197332D01*
X1062889Y1199793D01*
X1063138Y1200723D01*
X1098322D01*
X1176593Y1122452D01*
Y948731D01*
X1176062Y948300D01*
X1174560Y948608D01*
X1174177Y948990D01*
Y1106746D01*
X1173931Y1107985D01*
X1173229Y1109035D01*
X1163550Y1118714D01*
Y1119255D01*
X1162900Y1120825D01*
X1161699Y1122026D01*
X1160130Y1122676D01*
X1158431D01*
X1156861Y1122026D01*
X1155660Y1120825D01*
X1155010Y1119255D01*
Y1117557D01*
X1155660Y1115987D01*
X1156861Y1114786D01*
X1158431Y1114136D01*
X1158972D01*
X1167703Y1105405D01*
Y948990D01*
X1167320Y948608D01*
X1166670Y947038D01*
Y945340D01*
X1167320Y943770D01*
X1168521Y942569D01*
X1170091Y941919D01*
X1171789D01*
X1172783Y941255D01*
Y915429D01*
X1173029Y914191D01*
X1173731Y913140D01*
X1174053Y912818D01*
Y889261D01*
X1173670Y888879D01*
X1173020Y887309D01*
Y885611D01*
X1173670Y884041D01*
X1174871Y882840D01*
X1176441Y882190D01*
X1178139D01*
X1179709Y882840D01*
X1180910Y884041D01*
X1181560Y885611D01*
Y887309D01*
X1180910Y888879D01*
X1180527Y889261D01*
Y914159D01*
X1180281Y915398D01*
X1179579Y916448D01*
X1179257Y916770D01*
Y941195D01*
X1182119Y944057D01*
X1182821Y945107D01*
X1182943Y945721D01*
X1184213Y945595D01*
Y907041D01*
X1183830Y906659D01*
X1183180Y905089D01*
Y903391D01*
X1183830Y901821D01*
X1185031Y900620D01*
X1186601Y899970D01*
X1188299D01*
X1189869Y900620D01*
X1191070Y901821D01*
X1191720Y903391D01*
Y905089D01*
X1191070Y906659D01*
X1190687Y907041D01*
Y1145540D01*
X1190441Y1146779D01*
X1189739Y1147829D01*
X1062408Y1275160D01*
X1062889Y1275993D01*
X1063625Y1278739D01*
Y1281581D01*
X1062889Y1284327D01*
X1061468Y1286788D01*
X1059458Y1288798D01*
X1056997Y1290219D01*
X1054251Y1290955D01*
D02*
G37*
G36*
Y1138555D02*
X1051409D01*
X1048663Y1137819D01*
X1046202Y1136398D01*
X1044192Y1134388D01*
X1042771Y1131927D01*
X1042035Y1129181D01*
Y1126339D01*
X1042771Y1123593D01*
X1044192Y1121132D01*
X1046202Y1119122D01*
X1048663Y1117701D01*
X1051409Y1116965D01*
X1054251D01*
X1056997Y1117701D01*
X1059458Y1119122D01*
X1061468Y1121132D01*
X1062889Y1123593D01*
X1063625Y1126339D01*
Y1129181D01*
X1062889Y1131927D01*
X1061468Y1134388D01*
X1059458Y1136398D01*
X1056997Y1137819D01*
X1054251Y1138555D01*
D02*
G37*
G36*
X755801Y1130935D02*
X752959D01*
X750213Y1130199D01*
X747752Y1128778D01*
X745742Y1126768D01*
X744321Y1124307D01*
X743585Y1121561D01*
Y1118719D01*
X744321Y1115973D01*
X745742Y1113512D01*
X747752Y1111502D01*
X750213Y1110081D01*
X752959Y1109345D01*
X755801D01*
X758547Y1110081D01*
X761008Y1111502D01*
X763018Y1113512D01*
X764439Y1115973D01*
X765175Y1118719D01*
Y1121561D01*
X764439Y1124307D01*
X763018Y1126768D01*
X761008Y1128778D01*
X758547Y1130199D01*
X755801Y1130935D01*
D02*
G37*
G36*
X590140Y1127820D02*
X568100D01*
Y1105780D01*
X590140D01*
Y1127820D01*
D02*
G37*
G36*
X1054251Y1113155D02*
X1051409D01*
X1048663Y1112419D01*
X1046202Y1110998D01*
X1044192Y1108988D01*
X1042771Y1106527D01*
X1042035Y1103781D01*
Y1100939D01*
X1042771Y1098193D01*
X1044192Y1095732D01*
X1046202Y1093722D01*
X1048663Y1092301D01*
X1051409Y1091565D01*
X1054251D01*
X1056997Y1092301D01*
X1059458Y1093722D01*
X1061468Y1095732D01*
X1062889Y1098193D01*
X1063625Y1100939D01*
Y1103781D01*
X1062889Y1106527D01*
X1061468Y1108988D01*
X1059458Y1110998D01*
X1056997Y1112419D01*
X1054251Y1113155D01*
D02*
G37*
G36*
X755801Y1105535D02*
X752959D01*
X750213Y1104799D01*
X747752Y1103378D01*
X745742Y1101368D01*
X744321Y1098907D01*
X743585Y1096161D01*
Y1093319D01*
X744321Y1090573D01*
X745742Y1088112D01*
X747752Y1086102D01*
X750213Y1084681D01*
X752959Y1083945D01*
X755801D01*
X758547Y1084681D01*
X761008Y1086102D01*
X763018Y1088112D01*
X764439Y1090573D01*
X765175Y1093319D01*
Y1096161D01*
X764439Y1098907D01*
X763018Y1101368D01*
X761008Y1103378D01*
X758547Y1104799D01*
X755801Y1105535D01*
D02*
G37*
G36*
X1054251Y1087755D02*
X1051409D01*
X1048663Y1087019D01*
X1046202Y1085598D01*
X1044192Y1083588D01*
X1042771Y1081127D01*
X1042035Y1078381D01*
Y1075539D01*
X1042771Y1072793D01*
X1044192Y1070332D01*
X1046202Y1068322D01*
X1048663Y1066901D01*
X1051409Y1066165D01*
X1054251D01*
X1056997Y1066901D01*
X1059458Y1068322D01*
X1061468Y1070332D01*
X1062889Y1072793D01*
X1063625Y1075539D01*
Y1078381D01*
X1062889Y1081127D01*
X1061468Y1083588D01*
X1059458Y1085598D01*
X1056997Y1087019D01*
X1054251Y1087755D01*
D02*
G37*
G36*
X755801Y1080135D02*
X752959D01*
X750213Y1079399D01*
X747752Y1077978D01*
X745742Y1075968D01*
X744321Y1073507D01*
X743585Y1070761D01*
Y1067919D01*
X744321Y1065173D01*
X745742Y1062712D01*
X747752Y1060702D01*
X750213Y1059281D01*
X752959Y1058545D01*
X755801D01*
X758547Y1059281D01*
X761008Y1060702D01*
X763018Y1062712D01*
X764439Y1065173D01*
X765175Y1067919D01*
Y1070761D01*
X764439Y1073507D01*
X763018Y1075968D01*
X761008Y1077978D01*
X758547Y1079399D01*
X755801Y1080135D01*
D02*
G37*
G36*
X580571Y1077820D02*
X577669D01*
X574866Y1077069D01*
X572354Y1075618D01*
X570302Y1073567D01*
X568851Y1071054D01*
X568100Y1068251D01*
Y1065349D01*
X568851Y1062546D01*
X570302Y1060034D01*
X572354Y1057982D01*
X574866Y1056531D01*
X577669Y1055780D01*
X580571D01*
X583374Y1056531D01*
X585886Y1057982D01*
X587938Y1060034D01*
X589389Y1062546D01*
X590140Y1065349D01*
Y1068251D01*
X589389Y1071054D01*
X587938Y1073567D01*
X585886Y1075618D01*
X583374Y1077069D01*
X580571Y1077820D01*
D02*
G37*
G36*
X1054251Y1062355D02*
X1051409D01*
X1048663Y1061619D01*
X1046202Y1060198D01*
X1044192Y1058188D01*
X1042771Y1055727D01*
X1042035Y1052981D01*
Y1050139D01*
X1042771Y1047393D01*
X1044192Y1044932D01*
X1046202Y1042922D01*
X1048663Y1041501D01*
X1051409Y1040765D01*
X1054251D01*
X1056997Y1041501D01*
X1059458Y1042922D01*
X1061468Y1044932D01*
X1062889Y1047393D01*
X1063625Y1050139D01*
Y1052981D01*
X1062889Y1055727D01*
X1061468Y1058188D01*
X1059458Y1060198D01*
X1056997Y1061619D01*
X1054251Y1062355D01*
D02*
G37*
G36*
X755801Y1054735D02*
X752959D01*
X750213Y1053999D01*
X747752Y1052578D01*
X745742Y1050568D01*
X744321Y1048107D01*
X743585Y1045361D01*
Y1042519D01*
X744321Y1039773D01*
X745742Y1037312D01*
X747752Y1035302D01*
X750213Y1033881D01*
X752959Y1033145D01*
X755801D01*
X758547Y1033881D01*
X761008Y1035302D01*
X763018Y1037312D01*
X764439Y1039773D01*
X765175Y1042519D01*
Y1045361D01*
X764439Y1048107D01*
X763018Y1050568D01*
X761008Y1052578D01*
X758547Y1053999D01*
X755801Y1054735D01*
D02*
G37*
G36*
X580571Y1027820D02*
X579755D01*
Y1017435D01*
X590140D01*
Y1018251D01*
X589389Y1021054D01*
X587938Y1023567D01*
X585886Y1025618D01*
X583374Y1027069D01*
X580571Y1027820D01*
D02*
G37*
G36*
X578485D02*
X577669D01*
X574866Y1027069D01*
X572354Y1025618D01*
X570302Y1023567D01*
X568851Y1021054D01*
X568100Y1018251D01*
Y1017435D01*
X578485D01*
Y1027820D01*
D02*
G37*
G36*
X1054251Y1036955D02*
X1051409D01*
X1048663Y1036219D01*
X1046202Y1034798D01*
X1044192Y1032788D01*
X1042771Y1030327D01*
X1042035Y1027581D01*
Y1024739D01*
X1042771Y1021993D01*
X1044192Y1019532D01*
X1046202Y1017522D01*
X1048663Y1016101D01*
X1051409Y1015365D01*
X1054251D01*
X1056997Y1016101D01*
X1059458Y1017522D01*
X1061468Y1019532D01*
X1062889Y1021993D01*
X1063625Y1024739D01*
Y1027581D01*
X1062889Y1030327D01*
X1061468Y1032788D01*
X1059458Y1034798D01*
X1056997Y1036219D01*
X1054251Y1036955D01*
D02*
G37*
G36*
X755801Y1029335D02*
X752959D01*
X750213Y1028599D01*
X747752Y1027178D01*
X745742Y1025168D01*
X744321Y1022707D01*
X743585Y1019961D01*
Y1017119D01*
X744321Y1014373D01*
X745742Y1011912D01*
X747752Y1009902D01*
X750213Y1008481D01*
X752959Y1007745D01*
X755801D01*
X758547Y1008481D01*
X761008Y1009902D01*
X763018Y1011912D01*
X764439Y1014373D01*
X765175Y1017119D01*
Y1019961D01*
X764439Y1022707D01*
X763018Y1025168D01*
X761008Y1027178D01*
X758547Y1028599D01*
X755801Y1029335D01*
D02*
G37*
G36*
X590140Y1016165D02*
X579755D01*
Y1005780D01*
X580571D01*
X583374Y1006531D01*
X585886Y1007982D01*
X587938Y1010034D01*
X589389Y1012547D01*
X590140Y1015349D01*
Y1016165D01*
D02*
G37*
G36*
X578485D02*
X568100D01*
Y1015349D01*
X568851Y1012547D01*
X570302Y1010034D01*
X572354Y1007982D01*
X574866Y1006531D01*
X577669Y1005780D01*
X578485D01*
Y1016165D01*
D02*
G37*
G36*
X755801Y1003935D02*
X755015D01*
Y993775D01*
X765175D01*
Y994561D01*
X764439Y997307D01*
X763018Y999768D01*
X761008Y1001778D01*
X758547Y1003199D01*
X755801Y1003935D01*
D02*
G37*
G36*
X753745D02*
X752959D01*
X750213Y1003199D01*
X747752Y1001778D01*
X745742Y999768D01*
X744321Y997307D01*
X743585Y994561D01*
Y993775D01*
X753745D01*
Y1003935D01*
D02*
G37*
G36*
X1054251Y1011555D02*
X1051409D01*
X1048663Y1010819D01*
X1046202Y1009398D01*
X1044192Y1007388D01*
X1042771Y1004927D01*
X1042035Y1002181D01*
Y999339D01*
X1042771Y996593D01*
X1044192Y994132D01*
X1046202Y992122D01*
X1048663Y990701D01*
X1051409Y989965D01*
X1054251D01*
X1056997Y990701D01*
X1059458Y992122D01*
X1061468Y994132D01*
X1062889Y996593D01*
X1063625Y999339D01*
Y1002181D01*
X1062889Y1004927D01*
X1061468Y1007388D01*
X1059458Y1009398D01*
X1056997Y1010819D01*
X1054251Y1011555D01*
D02*
G37*
G36*
X1374920Y988123D02*
X1371555D01*
Y982365D01*
X1381187D01*
X1380826Y984176D01*
X1379440Y986250D01*
X1377366Y987636D01*
X1374920Y988123D01*
D02*
G37*
G36*
X1370285D02*
X1366920D01*
X1364474Y987636D01*
X1362400Y986250D01*
X1361014Y984176D01*
X1360654Y982365D01*
X1370285D01*
Y988123D01*
D02*
G37*
G36*
X1334620D02*
X1329755D01*
Y982365D01*
X1340887D01*
X1340526Y984176D01*
X1339140Y986250D01*
X1337066Y987636D01*
X1334620Y988123D01*
D02*
G37*
G36*
X1328485D02*
X1323620D01*
X1321174Y987636D01*
X1319100Y986250D01*
X1317714Y984176D01*
X1317354Y982365D01*
X1328485D01*
Y988123D01*
D02*
G37*
G36*
X765175Y992505D02*
X755015D01*
Y982345D01*
X755801D01*
X758547Y983081D01*
X761008Y984502D01*
X763018Y986512D01*
X764439Y988973D01*
X765175Y991719D01*
Y992505D01*
D02*
G37*
G36*
X753745D02*
X743585D01*
Y991719D01*
X744321Y988973D01*
X745742Y986512D01*
X747752Y984502D01*
X750213Y983081D01*
X752959Y982345D01*
X753745D01*
Y992505D01*
D02*
G37*
G36*
X1381187Y981095D02*
X1371555D01*
Y975337D01*
X1374920D01*
X1377366Y975824D01*
X1379440Y977210D01*
X1380826Y979284D01*
X1381187Y981095D01*
D02*
G37*
G36*
X1370285D02*
X1360654D01*
X1361014Y979284D01*
X1362400Y977210D01*
X1364474Y975824D01*
X1366920Y975337D01*
X1370285D01*
Y981095D01*
D02*
G37*
G36*
X1340887Y981095D02*
X1329755D01*
Y975337D01*
X1334620D01*
X1337066Y975824D01*
X1339140Y977210D01*
X1340526Y979284D01*
X1340887Y981095D01*
D02*
G37*
G36*
X1328485D02*
X1317354D01*
X1317714Y979284D01*
X1319100Y977210D01*
X1321174Y975824D01*
X1323620Y975337D01*
X1328485D01*
Y981095D01*
D02*
G37*
G36*
X1054251Y986155D02*
X1051409D01*
X1048663Y985419D01*
X1046202Y983998D01*
X1044192Y981988D01*
X1042771Y979527D01*
X1042035Y976781D01*
Y973939D01*
X1042771Y971193D01*
X1044192Y968732D01*
X1046202Y966722D01*
X1048663Y965301D01*
X1051409Y964565D01*
X1054251D01*
X1056997Y965301D01*
X1059458Y966722D01*
X1061468Y968732D01*
X1062889Y971193D01*
X1063625Y973939D01*
Y976781D01*
X1062889Y979527D01*
X1061468Y981988D01*
X1059458Y983998D01*
X1056997Y985419D01*
X1054251Y986155D01*
D02*
G37*
G36*
X1335264Y973180D02*
X1332976D01*
X1330863Y972305D01*
X1329245Y970687D01*
X1328370Y968574D01*
Y966286D01*
X1329245Y964173D01*
X1330863Y962555D01*
X1332976Y961680D01*
X1335264D01*
X1337377Y962555D01*
X1338995Y964173D01*
X1339870Y966286D01*
Y968574D01*
X1338995Y970687D01*
X1337377Y972305D01*
X1335264Y973180D01*
D02*
G37*
G36*
X1270849Y963120D02*
X1269151D01*
X1267581Y962470D01*
X1266380Y961269D01*
X1266193Y960817D01*
X1201681D01*
X1201299Y961200D01*
X1199729Y961850D01*
X1198031D01*
X1196461Y961200D01*
X1195260Y959999D01*
X1194610Y958429D01*
Y956731D01*
X1195260Y955161D01*
X1195643Y954779D01*
Y941067D01*
X1195191Y940880D01*
X1193990Y939679D01*
X1193340Y938109D01*
Y936411D01*
X1193990Y934841D01*
X1195191Y933640D01*
X1196761Y932990D01*
X1198459D01*
X1200029Y933640D01*
X1201230Y934841D01*
X1201880Y936411D01*
Y937930D01*
X1202117Y939123D01*
Y954343D01*
X1259212D01*
X1259793Y953073D01*
X1259389Y952469D01*
X1259143Y951230D01*
Y940061D01*
X1258760Y939679D01*
X1258110Y938109D01*
Y936411D01*
X1258760Y934841D01*
X1259961Y933640D01*
X1261531Y932990D01*
X1263229D01*
X1264799Y933640D01*
X1266000Y934841D01*
X1266650Y936411D01*
Y938109D01*
X1266000Y939679D01*
X1265617Y940061D01*
Y949889D01*
X1270308Y954580D01*
X1270849D01*
X1272419Y955230D01*
X1273620Y956431D01*
X1274270Y958001D01*
Y959699D01*
X1273620Y961269D01*
X1272419Y962470D01*
X1270849Y963120D01*
D02*
G37*
G36*
X755801Y978535D02*
X752959D01*
X750213Y977799D01*
X747752Y976378D01*
X745742Y974368D01*
X744321Y971907D01*
X743585Y969161D01*
Y966319D01*
X744321Y963573D01*
X745742Y961112D01*
X747752Y959102D01*
X750213Y957681D01*
X752959Y956945D01*
X755801D01*
X758547Y957681D01*
X761008Y959102D01*
X763018Y961112D01*
X764439Y963573D01*
X765175Y966319D01*
Y969161D01*
X764439Y971907D01*
X763018Y974368D01*
X761008Y976378D01*
X758547Y977799D01*
X755801Y978535D01*
D02*
G37*
G36*
X1054251Y960755D02*
X1051409D01*
X1048663Y960019D01*
X1046202Y958598D01*
X1044192Y956588D01*
X1042771Y954127D01*
X1042035Y951381D01*
Y948539D01*
X1042771Y945793D01*
X1044192Y943332D01*
X1046202Y941322D01*
X1048663Y939901D01*
X1051409Y939165D01*
X1054251D01*
X1056997Y939901D01*
X1059458Y941322D01*
X1061468Y943332D01*
X1062889Y945793D01*
X1063625Y948539D01*
Y951381D01*
X1062889Y954127D01*
X1061468Y956588D01*
X1059458Y958598D01*
X1056997Y960019D01*
X1054251Y960755D01*
D02*
G37*
G36*
X755801Y953135D02*
X752959D01*
X750213Y952399D01*
X747752Y950978D01*
X745742Y948968D01*
X744321Y946507D01*
X743585Y943761D01*
Y940919D01*
X744321Y938173D01*
X745742Y935712D01*
X747752Y933702D01*
X750213Y932281D01*
X752959Y931545D01*
X755801D01*
X758547Y932281D01*
X761008Y933702D01*
X763018Y935712D01*
X764439Y938173D01*
X765175Y940919D01*
Y943761D01*
X764439Y946507D01*
X763018Y948968D01*
X761008Y950978D01*
X758547Y952399D01*
X755801Y953135D01*
D02*
G37*
G36*
X1133689Y954230D02*
X1131991D01*
X1130421Y953580D01*
X1129220Y952379D01*
X1128570Y950809D01*
Y949111D01*
X1129220Y947541D01*
X1130421Y946340D01*
X1131991Y945690D01*
X1133689D01*
X1135259Y946340D01*
X1135641Y946723D01*
X1140389D01*
X1161590Y925522D01*
Y924981D01*
X1162240Y923411D01*
X1163441Y922210D01*
X1165011Y921560D01*
X1166709D01*
X1168279Y922210D01*
X1169480Y923411D01*
X1170130Y924981D01*
Y926679D01*
X1169480Y928249D01*
X1168279Y929450D01*
X1166709Y930100D01*
X1166168D01*
X1144019Y952249D01*
X1142969Y952951D01*
X1141730Y953197D01*
X1135641D01*
X1135259Y953580D01*
X1133689Y954230D01*
D02*
G37*
G36*
X1054251Y935355D02*
X1051409D01*
X1048663Y934619D01*
X1046202Y933198D01*
X1044192Y931188D01*
X1042771Y928727D01*
X1042035Y925981D01*
Y923139D01*
X1042771Y920393D01*
X1044192Y917932D01*
X1046202Y915922D01*
X1048663Y914501D01*
X1051409Y913765D01*
X1054251D01*
X1056997Y914501D01*
X1059458Y915922D01*
X1061468Y917932D01*
X1062889Y920393D01*
X1063625Y923139D01*
Y925981D01*
X1062889Y928727D01*
X1061468Y931188D01*
X1059458Y933198D01*
X1056997Y934619D01*
X1054251Y935355D01*
D02*
G37*
G36*
X755801Y927735D02*
X752959D01*
X750213Y926999D01*
X747752Y925578D01*
X745742Y923568D01*
X744321Y921107D01*
X743585Y918361D01*
Y915519D01*
X744321Y912773D01*
X745742Y910312D01*
X747752Y908302D01*
X750213Y906881D01*
X752959Y906145D01*
X755801D01*
X758547Y906881D01*
X761008Y908302D01*
X763018Y910312D01*
X764439Y912773D01*
X765175Y915519D01*
Y918361D01*
X764439Y921107D01*
X763018Y923568D01*
X761008Y925578D01*
X758547Y926999D01*
X755801Y927735D01*
D02*
G37*
G36*
X1335264Y915380D02*
X1332976D01*
X1330863Y914505D01*
X1329245Y912887D01*
X1328370Y910774D01*
Y908486D01*
X1329245Y906373D01*
X1330863Y904755D01*
X1332976Y903880D01*
X1335264D01*
X1337377Y904755D01*
X1338995Y906373D01*
X1339870Y908486D01*
Y910774D01*
X1338995Y912887D01*
X1337377Y914505D01*
X1335264Y915380D01*
D02*
G37*
G36*
X1281009Y1050750D02*
X1279311D01*
X1277741Y1050100D01*
X1276540Y1048899D01*
X1275890Y1047329D01*
Y1045631D01*
X1276540Y1044061D01*
X1277741Y1042860D01*
X1279311Y1042210D01*
X1279852D01*
X1288976Y1033086D01*
Y918904D01*
X1282392Y912320D01*
X1281851D01*
X1280281Y911670D01*
X1279080Y910469D01*
X1278430Y908899D01*
Y907201D01*
X1279080Y905631D01*
X1280281Y904430D01*
X1281851Y903780D01*
X1283549D01*
X1285119Y904430D01*
X1286320Y905631D01*
X1286970Y907201D01*
Y907742D01*
X1294503Y915275D01*
X1295204Y916325D01*
X1295451Y917563D01*
Y1034426D01*
X1295204Y1035665D01*
X1294503Y1036715D01*
X1284430Y1046788D01*
Y1047329D01*
X1283780Y1048899D01*
X1282579Y1050100D01*
X1281009Y1050750D01*
D02*
G37*
G36*
X1374920Y901723D02*
X1371555D01*
Y895965D01*
X1381187D01*
X1380826Y897776D01*
X1379440Y899850D01*
X1377366Y901236D01*
X1374920Y901723D01*
D02*
G37*
G36*
X1370285D02*
X1366920D01*
X1364474Y901236D01*
X1362400Y899850D01*
X1361014Y897776D01*
X1360654Y895965D01*
X1370285D01*
Y901723D01*
D02*
G37*
G36*
X1334620D02*
X1329755D01*
Y895965D01*
X1340887D01*
X1340526Y897776D01*
X1339140Y899850D01*
X1337066Y901236D01*
X1334620Y901723D01*
D02*
G37*
G36*
X1328485D02*
X1323620D01*
X1321174Y901236D01*
X1319100Y899850D01*
X1317714Y897776D01*
X1317353Y895965D01*
X1328485D01*
Y901723D01*
D02*
G37*
G36*
X1381187Y894695D02*
X1371555D01*
Y888937D01*
X1374920D01*
X1377366Y889424D01*
X1379440Y890810D01*
X1380826Y892884D01*
X1381187Y894695D01*
D02*
G37*
G36*
X1370285D02*
X1360654D01*
X1361014Y892884D01*
X1362400Y890810D01*
X1364474Y889424D01*
X1366920Y888937D01*
X1370285D01*
Y894695D01*
D02*
G37*
G36*
X1340887Y894695D02*
X1329755D01*
Y888937D01*
X1334620D01*
X1337066Y889424D01*
X1339140Y890810D01*
X1340526Y892884D01*
X1340887Y894695D01*
D02*
G37*
G36*
X1328485D02*
X1317354D01*
X1317714Y892884D01*
X1319100Y890810D01*
X1321174Y889424D01*
X1323620Y888937D01*
X1328485D01*
Y894695D01*
D02*
G37*
G36*
X585060Y910650D02*
X563020D01*
Y888610D01*
X585060D01*
Y910650D01*
D02*
G37*
G36*
X1054251Y909955D02*
X1051409D01*
X1048663Y909219D01*
X1046202Y907798D01*
X1044192Y905788D01*
X1042771Y903327D01*
X1042035Y900581D01*
Y897739D01*
X1042771Y894993D01*
X1044192Y892532D01*
X1046202Y890522D01*
X1048663Y889101D01*
X1051409Y888365D01*
X1054251D01*
X1056997Y889101D01*
X1059458Y890522D01*
X1061468Y892532D01*
X1062889Y894993D01*
X1063625Y897739D01*
Y900581D01*
X1062889Y903327D01*
X1061468Y905788D01*
X1059458Y907798D01*
X1056997Y909219D01*
X1054251Y909955D01*
D02*
G37*
G36*
X755801Y902335D02*
X752959D01*
X750213Y901599D01*
X747752Y900178D01*
X745742Y898168D01*
X744321Y895707D01*
X743585Y892961D01*
Y890119D01*
X744321Y887373D01*
X745742Y884912D01*
X747752Y882902D01*
X750213Y881481D01*
X752959Y880745D01*
X755801D01*
X758547Y881481D01*
X761008Y882902D01*
X763018Y884912D01*
X764439Y887373D01*
X765175Y890119D01*
Y892961D01*
X764439Y895707D01*
X763018Y898168D01*
X761008Y900178D01*
X758547Y901599D01*
X755801Y902335D01*
D02*
G37*
G36*
X1054251Y884555D02*
X1051409D01*
X1048663Y883819D01*
X1046202Y882398D01*
X1044192Y880388D01*
X1042771Y877927D01*
X1042035Y875181D01*
Y872339D01*
X1042771Y869593D01*
X1044192Y867132D01*
X1046202Y865122D01*
X1048663Y863701D01*
X1051409Y862965D01*
X1054251D01*
X1056997Y863701D01*
X1059458Y865122D01*
X1061468Y867132D01*
X1062889Y869593D01*
X1063625Y872339D01*
Y875181D01*
X1062889Y877927D01*
X1061468Y880388D01*
X1059458Y882398D01*
X1056997Y883819D01*
X1054251Y884555D01*
D02*
G37*
G36*
X755801Y876935D02*
X752959D01*
X750213Y876199D01*
X747752Y874778D01*
X745742Y872768D01*
X744321Y870307D01*
X743585Y867561D01*
Y864719D01*
X744321Y861973D01*
X745742Y859512D01*
X747752Y857502D01*
X750213Y856081D01*
X752959Y855345D01*
X755801D01*
X758547Y856081D01*
X761008Y857502D01*
X763018Y859512D01*
X764439Y861973D01*
X765175Y864719D01*
Y867561D01*
X764439Y870307D01*
X763018Y872768D01*
X761008Y874778D01*
X758547Y876199D01*
X755801Y876935D01*
D02*
G37*
G36*
X575491Y860650D02*
X574675D01*
Y850265D01*
X585060D01*
Y851081D01*
X584309Y853884D01*
X582858Y856396D01*
X580806Y858448D01*
X578294Y859899D01*
X575491Y860650D01*
D02*
G37*
G36*
X573405D02*
X572589D01*
X569786Y859899D01*
X567274Y858448D01*
X565222Y856396D01*
X563771Y853884D01*
X563020Y851081D01*
Y850265D01*
X573405D01*
Y860650D01*
D02*
G37*
G36*
X585060Y848995D02*
X574675D01*
Y838610D01*
X575491D01*
X578294Y839361D01*
X580806Y840812D01*
X582858Y842864D01*
X584309Y845376D01*
X585060Y848179D01*
Y848995D01*
D02*
G37*
G36*
X573405D02*
X563020D01*
Y848179D01*
X563771Y845376D01*
X565222Y842864D01*
X567274Y840812D01*
X569786Y839361D01*
X572589Y838610D01*
X573405D01*
Y848995D01*
D02*
G37*
G36*
X1279241Y835911D02*
X1268734Y835911D01*
X1268721Y835911D01*
X1268707Y835909D01*
X1268693Y835911D01*
X1268668Y835911D01*
X1268653Y835908D01*
X1268639Y835910D01*
X1268614Y835910D01*
X1268602Y835907D01*
X1268591Y835909D01*
X1268566Y835908D01*
X1268550Y835904D01*
X1268535Y835907D01*
X1268176Y835888D01*
X1267832Y835801D01*
X1267485Y835730D01*
X1266841Y835457D01*
X1266548Y835258D01*
X1266247Y835072D01*
X1265735Y834596D01*
X1265528Y834308D01*
X1265308Y834030D01*
X1264990Y833408D01*
X1264894Y833067D01*
X1264783Y832730D01*
X1264740Y832383D01*
X1264740Y832381D01*
X1264739Y832379D01*
X1264737Y832362D01*
X1264738Y832345D01*
X1264733Y832329D01*
X1264730Y832294D01*
X1264732Y832276D01*
X1264726Y832258D01*
X1264723Y832224D01*
X1264725Y832205D01*
X1264721Y832188D01*
X1264718Y832153D01*
X1264720Y832137D01*
X1264716Y832120D01*
X1264715Y832103D01*
X1264716Y832101D01*
X1264715Y832099D01*
X1264714Y832086D01*
X1264716Y832074D01*
X1264713Y832062D01*
X1264712Y832036D01*
X1264714Y832023D01*
X1264711Y832010D01*
X1264711Y831984D01*
X1264713Y831970D01*
X1264710Y831956D01*
X1264710Y831930D01*
X1264713Y831915D01*
X1264710Y831900D01*
X1264710Y831887D01*
Y789385D01*
X1264710Y789372D01*
X1264713Y789357D01*
X1264710Y789342D01*
X1264710Y789316D01*
X1264713Y789304D01*
X1264711Y789292D01*
X1264711Y789267D01*
X1264714Y789254D01*
X1264712Y789242D01*
X1264713Y789217D01*
X1264716Y789204D01*
X1264714Y789190D01*
X1264715Y789178D01*
X1264715Y789177D01*
X1264715Y789176D01*
X1264733Y788827D01*
X1264820Y788483D01*
X1264891Y788136D01*
X1265164Y787492D01*
X1265363Y787199D01*
X1265549Y786898D01*
X1266025Y786386D01*
X1266313Y786179D01*
X1266591Y785959D01*
X1267214Y785641D01*
X1267554Y785545D01*
X1267891Y785434D01*
X1268254Y785389D01*
X1268274Y785390D01*
X1268294Y785384D01*
X1268328Y785381D01*
X1268346Y785382D01*
X1268363Y785377D01*
X1268397Y785374D01*
X1268416Y785376D01*
X1268433Y785372D01*
X1268468Y785369D01*
X1268484Y785371D01*
X1268501Y785367D01*
X1268518Y785366D01*
X1268520Y785367D01*
X1268522Y785366D01*
X1268535Y785365D01*
X1268547Y785367D01*
X1268559Y785364D01*
X1268585Y785363D01*
X1268598Y785365D01*
X1268611Y785362D01*
X1268637Y785362D01*
X1268651Y785364D01*
X1268665Y785361D01*
X1268691Y785361D01*
X1268706Y785364D01*
X1268721Y785361D01*
X1268734Y785361D01*
X1279237D01*
X1279249Y785361D01*
X1279265Y785364D01*
X1279280Y785361D01*
X1279305Y785361D01*
X1279318Y785364D01*
X1279330Y785362D01*
X1279355Y785362D01*
X1279369Y785365D01*
X1279382Y785363D01*
X1279407Y785364D01*
X1279417Y785367D01*
X1279428Y785365D01*
X1279440Y785366D01*
X1279443Y785367D01*
X1279446Y785366D01*
X1279796Y785384D01*
X1280139Y785471D01*
X1280486Y785543D01*
X1281130Y785815D01*
X1281423Y786014D01*
X1281724Y786200D01*
X1282236Y786676D01*
X1282443Y786964D01*
X1282663Y787242D01*
X1282981Y787865D01*
X1283077Y788205D01*
X1283188Y788542D01*
X1283231Y788889D01*
X1283231Y788890D01*
X1283231Y788891D01*
X1283233Y788908D01*
X1283232Y788926D01*
X1283237Y788943D01*
X1283241Y788978D01*
X1283239Y788996D01*
X1283244Y789014D01*
X1283248Y789048D01*
X1283246Y789066D01*
X1283250Y789083D01*
X1283253Y789117D01*
X1283250Y789136D01*
X1283255Y789155D01*
X1283256Y789172D01*
X1283256Y789173D01*
X1283256Y789174D01*
X1283257Y789186D01*
X1283255Y789199D01*
X1283258Y789210D01*
X1283259Y789236D01*
X1283256Y789250D01*
X1283259Y789264D01*
X1283260Y789290D01*
X1283258Y789303D01*
X1283261Y789316D01*
X1283261Y789342D01*
X1283258Y789357D01*
X1283261Y789372D01*
X1283261Y789381D01*
X1283261Y789381D01*
X1283261Y831887D01*
X1283261Y831900D01*
X1283258Y831915D01*
X1283261Y831930D01*
X1283261Y831956D01*
X1283258Y831968D01*
X1283260Y831980D01*
X1283259Y832005D01*
X1283257Y832018D01*
X1283259Y832030D01*
X1283258Y832055D01*
X1283255Y832068D01*
X1283257Y832082D01*
X1283256Y832094D01*
X1283256Y832095D01*
X1283256Y832096D01*
X1283238Y832446D01*
X1283151Y832789D01*
X1283080Y833136D01*
X1282807Y833780D01*
X1282608Y834073D01*
X1282422Y834374D01*
X1281945Y834886D01*
X1281658Y835093D01*
X1281380Y835313D01*
X1280757Y835631D01*
X1280417Y835727D01*
X1280080Y835838D01*
X1279733Y835881D01*
X1279731Y835881D01*
X1279728Y835882D01*
X1279711Y835884D01*
X1279695Y835883D01*
X1279678Y835888D01*
X1279644Y835891D01*
X1279626Y835890D01*
X1279608Y835895D01*
X1279574Y835898D01*
X1279555Y835896D01*
X1279538Y835900D01*
X1279503Y835903D01*
X1279485Y835900D01*
X1279467Y835905D01*
X1279439Y835907D01*
X1279426Y835905D01*
X1279414Y835908D01*
X1279388Y835909D01*
X1279372Y835906D01*
X1279358Y835910D01*
X1279332Y835910D01*
X1279319Y835908D01*
X1279306Y835911D01*
X1279280Y835911D01*
X1279265Y835908D01*
X1279250Y835911D01*
X1279241Y835911D01*
X1279241Y835911D01*
D02*
G37*
G36*
X1334211Y835870D02*
X1334211Y835870D01*
X1334203Y835870D01*
X1334187Y835867D01*
X1334172Y835870D01*
X1334147Y835870D01*
X1334134Y835867D01*
X1334122Y835869D01*
X1334097Y835869D01*
X1334084Y835866D01*
X1334072Y835868D01*
X1334047Y835867D01*
X1334032Y835863D01*
X1334016Y835865D01*
X1333656Y835847D01*
X1333313Y835760D01*
X1332966Y835688D01*
X1332322Y835416D01*
X1332029Y835217D01*
X1331728Y835031D01*
X1331216Y834555D01*
X1331009Y834267D01*
X1330789Y833989D01*
X1330471Y833366D01*
X1330375Y833026D01*
X1330264Y832689D01*
X1330221Y832342D01*
X1330221Y832341D01*
X1330221Y832340D01*
X1330219Y832323D01*
X1330220Y832304D01*
X1330214Y832286D01*
X1330211Y832252D01*
X1330212Y832235D01*
X1330208Y832219D01*
X1330205Y832184D01*
X1330207Y832165D01*
X1330202Y832147D01*
X1330199Y832112D01*
X1330202Y832094D01*
X1330197Y832076D01*
X1330196Y832048D01*
X1330198Y832035D01*
X1330194Y832021D01*
X1330193Y831995D01*
X1330196Y831981D01*
X1330193Y831967D01*
X1330192Y831941D01*
X1330194Y831929D01*
X1330191Y831917D01*
X1330191Y831891D01*
X1330194Y831875D01*
X1330191Y831859D01*
X1330191Y831846D01*
Y789327D01*
X1330193Y789315D01*
X1330191Y789303D01*
X1330191Y789277D01*
X1330194Y789264D01*
X1330192Y789251D01*
X1330192Y789225D01*
X1330195Y789212D01*
X1330193Y789199D01*
X1330194Y789174D01*
X1330197Y789162D01*
X1330195Y789149D01*
X1330196Y789137D01*
X1330196Y789136D01*
X1330196Y789135D01*
X1330214Y788785D01*
X1330301Y788442D01*
X1330372Y788095D01*
X1330645Y787451D01*
X1330844Y787158D01*
X1331030Y786857D01*
X1331507Y786345D01*
X1331794Y786138D01*
X1332072Y785918D01*
X1332695Y785600D01*
X1333036Y785504D01*
X1333372Y785393D01*
X1333719Y785350D01*
X1333719Y785350D01*
X1333720Y785350D01*
X1333737Y785348D01*
X1333757Y785349D01*
X1333775Y785343D01*
X1333810Y785340D01*
X1333827Y785341D01*
X1333844Y785336D01*
X1333878Y785333D01*
X1333896Y785335D01*
X1333913Y785331D01*
X1333947Y785328D01*
X1333966Y785331D01*
X1333985Y785326D01*
X1334012Y785325D01*
X1334026Y785327D01*
X1334040Y785323D01*
X1334066Y785322D01*
X1334080Y785324D01*
X1334094Y785321D01*
X1334120Y785321D01*
X1334132Y785323D01*
X1334144Y785320D01*
X1334170Y785320D01*
X1334186Y785323D01*
X1334202Y785320D01*
X1334215Y785320D01*
X1344735D01*
X1344747Y785322D01*
X1344759Y785320D01*
X1344785Y785320D01*
X1344798Y785323D01*
X1344811Y785321D01*
X1344836Y785321D01*
X1344850Y785324D01*
X1344863Y785322D01*
X1344888Y785323D01*
X1344900Y785326D01*
X1344913Y785324D01*
X1344925Y785325D01*
X1344926Y785325D01*
X1344927Y785325D01*
X1345276Y785343D01*
X1345620Y785430D01*
X1345967Y785501D01*
X1346611Y785774D01*
X1346904Y785973D01*
X1347205Y786159D01*
X1347717Y786635D01*
X1347924Y786923D01*
X1348144Y787201D01*
X1348462Y787823D01*
X1348558Y788165D01*
X1348669Y788501D01*
X1348712Y788848D01*
X1348712Y788850D01*
X1348713Y788852D01*
X1348715Y788870D01*
X1348714Y788887D01*
X1348719Y788904D01*
X1348722Y788938D01*
X1348721Y788956D01*
X1348726Y788973D01*
X1348729Y789007D01*
X1348727Y789025D01*
X1348731Y789043D01*
X1348734Y789078D01*
X1348731Y789096D01*
X1348736Y789114D01*
X1348737Y789131D01*
X1348737Y789131D01*
X1348737Y789142D01*
X1348736Y789155D01*
X1348739Y789167D01*
X1348740Y789193D01*
X1348737Y789207D01*
X1348741Y789221D01*
X1348741Y789247D01*
X1348739Y789261D01*
X1348742Y789275D01*
X1348742Y789301D01*
X1348739Y789316D01*
X1348742Y789331D01*
X1348742Y789344D01*
X1348742Y831850D01*
X1348742Y831850D01*
X1348742Y831859D01*
X1348739Y831874D01*
X1348742Y831889D01*
X1348742Y831915D01*
X1348739Y831927D01*
X1348741Y831939D01*
X1348741Y831964D01*
X1348738Y831977D01*
X1348740Y831989D01*
X1348739Y832014D01*
X1348736Y832027D01*
X1348738Y832041D01*
X1348737Y832053D01*
X1348737Y832054D01*
X1348737Y832055D01*
X1348719Y832404D01*
X1348632Y832748D01*
X1348560Y833095D01*
X1348288Y833739D01*
X1348089Y834032D01*
X1347903Y834333D01*
X1347426Y834845D01*
X1347139Y835052D01*
X1346861Y835272D01*
X1346239Y835590D01*
X1345897Y835686D01*
X1345561Y835797D01*
X1345214Y835840D01*
X1345213Y835840D01*
X1345213Y835840D01*
X1345195Y835843D01*
X1345176Y835841D01*
X1345158Y835847D01*
X1345124Y835850D01*
X1345106Y835849D01*
X1345089Y835854D01*
X1345055Y835857D01*
X1345037Y835855D01*
X1345020Y835859D01*
X1344986Y835862D01*
X1344965Y835859D01*
X1344945Y835864D01*
X1344932Y835865D01*
X1344921Y835865D01*
X1344906Y835863D01*
X1344893Y835867D01*
X1344866Y835868D01*
X1344854Y835866D01*
X1344841Y835869D01*
X1344815Y835869D01*
X1344801Y835867D01*
X1344787Y835870D01*
X1344761Y835870D01*
X1344746Y835867D01*
X1344731Y835870D01*
X1344718Y835870D01*
X1334211Y835870D01*
D02*
G37*
G36*
X848056Y810410D02*
X846344D01*
X844691Y809967D01*
X843209Y809111D01*
X841999Y807901D01*
X841143Y806419D01*
X840700Y804766D01*
Y803054D01*
X841143Y801401D01*
X841999Y799919D01*
X843209Y798709D01*
X844691Y797853D01*
X846344Y797410D01*
X848056D01*
X849709Y797853D01*
X851191Y798709D01*
X852401Y799919D01*
X853257Y801401D01*
X853700Y803054D01*
Y804766D01*
X853257Y806419D01*
X852401Y807901D01*
X851191Y809111D01*
X849709Y809967D01*
X848056Y810410D01*
D02*
G37*
G36*
X830056D02*
X828344D01*
X826691Y809967D01*
X825209Y809111D01*
X823999Y807901D01*
X823143Y806419D01*
X822700Y804766D01*
Y803054D01*
X823143Y801401D01*
X823999Y799919D01*
X825209Y798709D01*
X826691Y797853D01*
X828344Y797410D01*
X830056D01*
X831709Y797853D01*
X833191Y798709D01*
X834401Y799919D01*
X835257Y801401D01*
X835700Y803054D01*
Y804766D01*
X835257Y806419D01*
X834401Y807901D01*
X833191Y809111D01*
X831709Y809967D01*
X830056Y810410D01*
D02*
G37*
G36*
X968706Y809140D02*
X966994D01*
X965341Y808697D01*
X963859Y807841D01*
X962649Y806631D01*
X961793Y805149D01*
X961350Y803496D01*
Y801784D01*
X961793Y800131D01*
X962649Y798649D01*
X963859Y797439D01*
X965341Y796583D01*
X966994Y796140D01*
X968706D01*
X970359Y796583D01*
X971841Y797439D01*
X973051Y798649D01*
X973907Y800131D01*
X974350Y801784D01*
Y803496D01*
X973907Y805149D01*
X973051Y806631D01*
X971841Y807841D01*
X970359Y808697D01*
X968706Y809140D01*
D02*
G37*
G36*
X950706D02*
X948994D01*
X947341Y808697D01*
X945859Y807841D01*
X944649Y806631D01*
X943793Y805149D01*
X943350Y803496D01*
Y801784D01*
X943793Y800131D01*
X944649Y798649D01*
X945859Y797439D01*
X947341Y796583D01*
X948994Y796140D01*
X950706D01*
X952359Y796583D01*
X953841Y797439D01*
X955051Y798649D01*
X955907Y800131D01*
X956350Y801784D01*
Y803496D01*
X955907Y805149D01*
X955051Y806631D01*
X953841Y807841D01*
X952359Y808697D01*
X950706Y809140D01*
D02*
G37*
G36*
X575491Y810650D02*
X572589D01*
X569786Y809899D01*
X567274Y808448D01*
X565222Y806396D01*
X563771Y803884D01*
X563020Y801081D01*
Y798179D01*
X563771Y795377D01*
X565222Y792864D01*
X567274Y790812D01*
X569786Y789361D01*
X572589Y788610D01*
X575491D01*
X578294Y789361D01*
X580806Y790812D01*
X582858Y792864D01*
X584309Y795377D01*
X585060Y798179D01*
Y801081D01*
X584309Y803884D01*
X582858Y806396D01*
X580806Y808448D01*
X578294Y809899D01*
X575491Y810650D01*
D02*
G37*
G36*
X1306409Y765000D02*
X1304711D01*
X1303141Y764350D01*
X1301940Y763149D01*
X1301290Y761579D01*
Y759881D01*
X1301940Y758311D01*
X1303141Y757110D01*
X1304711Y756460D01*
X1306409D01*
X1307979Y757110D01*
X1309180Y758311D01*
X1309830Y759881D01*
Y761579D01*
X1309180Y763149D01*
X1307979Y764350D01*
X1306409Y765000D01*
D02*
G37*
G36*
X1077637Y753807D02*
X1068070D01*
X1066831Y753561D01*
X1065781Y752859D01*
X1061860Y748939D01*
X1061159Y747888D01*
X1060912Y746649D01*
Y743503D01*
X1058243Y740834D01*
X1056761Y740220D01*
X1055560Y739019D01*
X1054910Y737449D01*
Y735751D01*
X1055560Y734181D01*
X1056761Y732980D01*
X1058331Y732330D01*
X1060029D01*
X1061599Y732980D01*
X1062800Y734181D01*
X1063450Y735751D01*
Y736885D01*
X1066439Y739873D01*
X1067140Y740923D01*
X1067387Y742162D01*
Y745309D01*
X1069411Y747333D01*
X1076296D01*
X1077806Y745823D01*
X1078420Y744341D01*
X1079621Y743140D01*
X1081191Y742490D01*
X1082889D01*
X1084459Y743140D01*
X1085660Y744341D01*
X1086310Y745911D01*
Y747609D01*
X1085660Y749179D01*
X1084459Y750380D01*
X1082889Y751030D01*
X1081756D01*
X1079926Y752859D01*
X1078876Y753561D01*
X1077637Y753807D01*
D02*
G37*
G36*
X741235Y764220D02*
X737045D01*
X732936Y763403D01*
X729065Y761799D01*
X725581Y759472D01*
X722618Y756509D01*
X720291Y753025D01*
X718687Y749154D01*
X717870Y745045D01*
Y740855D01*
X718687Y736746D01*
X720291Y732875D01*
X722618Y729391D01*
X725581Y726429D01*
X729065Y724101D01*
X732936Y722497D01*
X737045Y721680D01*
X741235D01*
X745344Y722497D01*
X749215Y724101D01*
X752699Y726429D01*
X755661Y729391D01*
X757989Y732875D01*
X759593Y736746D01*
X760410Y740855D01*
Y745045D01*
X759593Y749154D01*
X757989Y753025D01*
X755661Y756509D01*
X752699Y759472D01*
X749215Y761799D01*
X745344Y763403D01*
X741235Y764220D01*
D02*
G37*
G36*
X1311930Y968300D02*
X1310231D01*
X1308662Y967650D01*
X1307461Y966449D01*
X1306811Y964879D01*
Y964338D01*
X1299461Y956988D01*
X1298759Y955938D01*
X1298513Y954699D01*
Y913391D01*
X1298130Y913009D01*
X1297480Y911439D01*
Y910898D01*
X1282629Y896047D01*
X1188412D01*
X1187173Y895801D01*
X1186123Y895099D01*
X1183891Y892867D01*
X1183189Y891817D01*
X1182943Y890578D01*
Y872561D01*
X1178489Y868107D01*
X1132532D01*
X1131293Y867861D01*
X1130243Y867159D01*
X1128011Y864927D01*
X1127309Y863877D01*
X1127063Y862638D01*
Y821690D01*
X1127309Y820451D01*
X1128011Y819401D01*
X1206751Y740661D01*
X1207801Y739959D01*
X1209040Y739713D01*
X1247069D01*
X1247389Y739392D01*
X1247390Y739392D01*
X1247391Y739391D01*
X1275331Y711451D01*
X1276381Y710749D01*
X1277620Y710503D01*
X1292599D01*
X1292981Y710120D01*
X1294551Y709470D01*
X1296249D01*
X1297819Y710120D01*
X1299020Y711321D01*
X1299670Y712891D01*
Y714589D01*
X1299020Y716159D01*
X1297819Y717360D01*
X1296249Y718010D01*
X1294551D01*
X1292981Y717360D01*
X1292599Y716977D01*
X1278961D01*
X1251969Y743969D01*
X1251968Y743970D01*
X1251967Y743970D01*
X1250699Y745239D01*
X1249649Y745941D01*
X1248410Y746187D01*
X1210381D01*
X1133537Y823031D01*
Y861297D01*
X1133873Y861633D01*
X1179830D01*
X1181069Y861879D01*
X1182119Y862581D01*
X1188469Y868931D01*
X1189171Y869981D01*
X1189417Y871220D01*
Y889237D01*
X1189753Y889573D01*
X1283970D01*
X1285209Y889819D01*
X1286259Y890521D01*
X1302058Y906320D01*
X1302599D01*
X1304169Y906970D01*
X1305370Y908171D01*
X1306020Y909741D01*
Y911439D01*
X1305370Y913009D01*
X1304987Y913391D01*
Y953358D01*
X1311389Y959760D01*
X1311930D01*
X1313500Y960410D01*
X1314701Y961611D01*
X1315351Y963181D01*
Y964879D01*
X1314701Y966449D01*
X1313500Y967650D01*
X1311930Y968300D01*
D02*
G37*
G36*
X858099Y886920D02*
X856401D01*
X854831Y886270D01*
X853630Y885069D01*
X852980Y883499D01*
Y881801D01*
X853630Y880231D01*
X854831Y879030D01*
X856401Y878380D01*
X856942D01*
X866713Y868609D01*
Y715271D01*
X866330Y714889D01*
X865680Y713319D01*
Y711621D01*
X866330Y710051D01*
X867531Y708850D01*
X869101Y708200D01*
X870799D01*
X872369Y708850D01*
X873570Y710051D01*
X874220Y711621D01*
Y713319D01*
X873570Y714889D01*
X873187Y715271D01*
Y869950D01*
X872941Y871189D01*
X872239Y872239D01*
X861520Y882958D01*
Y883499D01*
X860870Y885069D01*
X859669Y886270D01*
X858099Y886920D01*
D02*
G37*
G36*
X1027009Y1053290D02*
X1025311D01*
X1023741Y1052640D01*
X1022540Y1051439D01*
X1021890Y1049869D01*
Y1048171D01*
X1022540Y1046601D01*
X1022923Y1046219D01*
Y749440D01*
X1023169Y748201D01*
X1023871Y747151D01*
X1052709Y718313D01*
X1052383Y717748D01*
X1051700Y715199D01*
Y712561D01*
X1052383Y710012D01*
X1053702Y707728D01*
X1055568Y705862D01*
X1057852Y704543D01*
X1060401Y703860D01*
X1063039D01*
X1065588Y704543D01*
X1067872Y705862D01*
X1069738Y707728D01*
X1071057Y710012D01*
X1071740Y712561D01*
Y715199D01*
X1071057Y717748D01*
X1069738Y720032D01*
X1067872Y721898D01*
X1065588Y723217D01*
X1063039Y723900D01*
X1060401D01*
X1057852Y723217D01*
X1057287Y722891D01*
X1029397Y750781D01*
Y1046219D01*
X1029780Y1046601D01*
X1030430Y1048171D01*
Y1049869D01*
X1029780Y1051439D01*
X1028579Y1052640D01*
X1027009Y1053290D01*
D02*
G37*
G36*
X906359Y644350D02*
X904661D01*
X903091Y643700D01*
X902709Y643317D01*
X878196D01*
X877884Y643629D01*
X876315Y644279D01*
X874616D01*
X873047Y643629D01*
X871846Y642428D01*
X871196Y640858D01*
Y639159D01*
X871846Y637590D01*
X873047Y636389D01*
X874616Y635739D01*
X876315D01*
X877884Y636389D01*
X878338Y636843D01*
X902709D01*
X903091Y636460D01*
X904661Y635810D01*
X906359D01*
X907929Y636460D01*
X909130Y637661D01*
X909780Y639231D01*
Y640929D01*
X909130Y642499D01*
X907929Y643700D01*
X906359Y644350D01*
D02*
G37*
G36*
X1071740Y573900D02*
X1051700D01*
Y553860D01*
X1071740D01*
Y560643D01*
X1141730D01*
X1142969Y560889D01*
X1144019Y561591D01*
X1147633Y565205D01*
X1147959Y565340D01*
X1149160Y566541D01*
X1149400Y567122D01*
X1149801Y567721D01*
X1150047Y568960D01*
X1149801Y570199D01*
X1149400Y570798D01*
X1149160Y571379D01*
X1147959Y572580D01*
X1146389Y573230D01*
X1144691D01*
X1143121Y572580D01*
X1141920Y571379D01*
X1141270Y569809D01*
Y568111D01*
X1141303Y568031D01*
X1140389Y567117D01*
X1071740D01*
Y573900D01*
D02*
G37*
%LPD*%
D15*
X1329120Y981730D02*
D03*
Y895330D02*
D03*
D16*
X1370920Y981730D02*
D03*
Y895330D02*
D03*
D60*
X1061720Y713880D02*
D03*
D61*
Y563880D02*
D03*
D71*
X1248410Y742950D02*
X1249678Y741682D01*
X1249680Y741680D01*
X1277620Y713740D02*
X1295400D01*
X1249680Y741680D02*
X1277620Y713740D01*
X1209040Y742950D02*
X1248410D01*
X1130300Y862638D02*
X1132532Y864870D01*
X1179830D01*
X1130300Y821690D02*
Y862638D01*
Y821690D02*
X1209040Y742950D01*
X1179830Y864870D02*
X1186180Y871220D01*
X1188412Y892810D02*
X1283970D01*
X1186180Y890578D02*
X1188412Y892810D01*
X1186180Y871220D02*
Y890578D01*
X1283970Y892810D02*
X1301750Y910590D01*
X1282700Y908050D02*
X1292213Y917563D01*
X1177290Y886460D02*
Y914159D01*
X1176020Y915429D02*
X1177290Y914159D01*
X1176020Y915429D02*
Y942536D01*
X1052830Y1280160D02*
X1187450Y1145540D01*
Y904240D02*
Y1145540D01*
X1179830Y946346D02*
Y1123793D01*
X1176020Y942536D02*
X1179830Y946346D01*
X1099663Y1203960D02*
X1179830Y1123793D01*
X1026160Y749440D02*
Y1049020D01*
Y749440D02*
X1061720Y713880D01*
X1141730Y563880D02*
X1146810Y568960D01*
X1145540D02*
X1146810D01*
X1061720Y563880D02*
X1141730D01*
X857250Y882650D02*
X869950Y869950D01*
Y712470D02*
Y869950D01*
X875466Y640009D02*
X875537Y640080D01*
X905510D01*
X1280160Y1046480D02*
X1292213Y1034426D01*
Y917563D02*
Y1034426D01*
X1262380Y937260D02*
Y951230D01*
X1270000Y958850D01*
X1269407D02*
X1270000D01*
X1059180Y736600D02*
Y737193D01*
X1064149Y742162D01*
Y746649D01*
X1068070Y750570D01*
X1077637D02*
X1081447Y746760D01*
X1082040D01*
X1068070Y750570D02*
X1077637D01*
X1301750Y954699D02*
X1311081Y964030D01*
X1301750Y910590D02*
Y954699D01*
X1159280Y1118406D02*
X1170940Y1106746D01*
Y946189D02*
Y1106746D01*
X1141730Y949960D02*
X1165860Y925830D01*
X1132840Y949960D02*
X1141730D01*
X1052830Y1203960D02*
X1099663D01*
X1198880Y939123D02*
Y957580D01*
X1197610Y937853D02*
X1198880Y939123D01*
X1197610Y937260D02*
Y937853D01*
X1268137Y957580D02*
X1269407Y958850D01*
X1198880Y957580D02*
X1268137D01*
X858520Y586740D02*
X858983D01*
X579120Y1012554D02*
Y1016800D01*
D74*
X574040Y799630D02*
D03*
Y849630D02*
D03*
X579120Y1016800D02*
D03*
Y1066800D02*
D03*
D75*
X574040Y899630D02*
D03*
X579120Y1116800D02*
D03*
D76*
X739140Y742950D02*
D03*
X1167130Y1221740D02*
D03*
D77*
X949850Y802640D02*
D03*
X967850D02*
D03*
X829200Y803910D02*
D03*
X847200D02*
D03*
D78*
X754380Y866140D02*
D03*
Y891540D02*
D03*
Y916940D02*
D03*
Y942340D02*
D03*
Y967740D02*
D03*
Y1069340D02*
D03*
Y1043940D02*
D03*
Y1018540D02*
D03*
Y993140D02*
D03*
Y1094740D02*
D03*
Y1120140D02*
D03*
Y1145540D02*
D03*
Y1170940D02*
D03*
Y1196340D02*
D03*
Y1221740D02*
D03*
Y1323340D02*
D03*
Y1297940D02*
D03*
Y1272540D02*
D03*
Y1247140D02*
D03*
X1052830Y873760D02*
D03*
Y899160D02*
D03*
Y924560D02*
D03*
Y949960D02*
D03*
Y975360D02*
D03*
Y1076960D02*
D03*
Y1051560D02*
D03*
Y1026160D02*
D03*
Y1000760D02*
D03*
Y1102360D02*
D03*
Y1127760D02*
D03*
Y1153160D02*
D03*
Y1178560D02*
D03*
Y1203960D02*
D03*
Y1229360D02*
D03*
Y1330960D02*
D03*
Y1305560D02*
D03*
Y1280160D02*
D03*
Y1254760D02*
D03*
D79*
X1305560Y760730D02*
D03*
X1295400Y713740D02*
D03*
X1282700Y908050D02*
D03*
X1294130Y864870D02*
D03*
X1177290Y886460D02*
D03*
X1187450Y904240D02*
D03*
X1026160Y1049020D02*
D03*
X1145540Y568960D02*
D03*
X857250Y882650D02*
D03*
X869950Y712470D02*
D03*
X875466Y640009D02*
D03*
X905510Y640080D02*
D03*
X1280160Y1046480D02*
D03*
X1262380Y937260D02*
D03*
X1059180Y736600D02*
D03*
X1082040Y746760D02*
D03*
X1311081Y964030D02*
D03*
X1301750Y910590D02*
D03*
X1170940Y946189D02*
D03*
X1165860Y925830D02*
D03*
X1132840Y949960D02*
D03*
X1159280Y1118406D02*
D03*
X1197610Y937260D02*
D03*
X1270000Y958850D02*
D03*
X1198880Y957580D02*
D03*
X839470Y934720D02*
D03*
X861060Y901700D02*
D03*
X887730Y843280D02*
D03*
X858520Y586740D02*
D03*
X923290Y580390D02*
D03*
X935990Y538480D02*
D03*
X1102360Y1192530D02*
D03*
X956310Y1143000D02*
D03*
X783590Y561340D02*
D03*
D80*
X1334120Y967430D02*
D03*
Y909630D02*
D03*
M02*
