G04*
G04 #@! TF.GenerationSoftware,Altium Limited,Altium Designer,23.3.1 (30)*
G04*
G04 Layer_Color=255*
%FSLAX44Y44*%
%MOMM*%
G71*
G04*
G04 #@! TF.SameCoordinates,11343DF2-346A-4928-BBB7-4E1EB81EA5CC*
G04*
G04*
G04 #@! TF.FilePolarity,Positive*
G04*
G01*
G75*
G04:AMPARAMS|DCode=15|XSize=1mm|YSize=2.1mm|CornerRadius=0.5mm|HoleSize=0mm|Usage=FLASHONLY|Rotation=90.000|XOffset=0mm|YOffset=0mm|HoleType=Round|Shape=RoundedRectangle|*
%AMROUNDEDRECTD15*
21,1,1.0000,1.1000,0,0,90.0*
21,1,0.0000,2.1000,0,0,90.0*
1,1,1.0000,0.5500,0.0000*
1,1,1.0000,0.5500,0.0000*
1,1,1.0000,-0.5500,0.0000*
1,1,1.0000,-0.5500,0.0000*
%
%ADD15ROUNDEDRECTD15*%
G04:AMPARAMS|DCode=16|XSize=1mm|YSize=1.8mm|CornerRadius=0.5mm|HoleSize=0mm|Usage=FLASHONLY|Rotation=90.000|XOffset=0mm|YOffset=0mm|HoleType=Round|Shape=RoundedRectangle|*
%AMROUNDEDRECTD16*
21,1,1.0000,0.8000,0,0,90.0*
21,1,0.0000,1.8000,0,0,90.0*
1,1,1.0000,0.4000,0.0000*
1,1,1.0000,0.4000,0.0000*
1,1,1.0000,-0.4000,0.0000*
1,1,1.0000,-0.4000,0.0000*
%
%ADD16ROUNDEDRECTD16*%
%ADD60C,1.7500*%
%ADD61R,1.7500X1.7500*%
%ADD74C,1.9500*%
%ADD75R,1.9500X1.9500*%
%ADD76C,4.0000*%
%ADD77C,0.8000*%
%ADD78C,1.9050*%
%ADD80C,0.6500*%
D15*
X1329120Y981730D02*
D03*
Y895330D02*
D03*
D16*
X1370920Y981730D02*
D03*
Y895330D02*
D03*
D60*
X1061720Y713880D02*
D03*
D61*
Y563880D02*
D03*
D74*
X574040Y799630D02*
D03*
Y849630D02*
D03*
X579120Y1016800D02*
D03*
Y1066800D02*
D03*
D75*
X574040Y899630D02*
D03*
X579120Y1116800D02*
D03*
D76*
X739140Y742950D02*
D03*
X1167130Y1221740D02*
D03*
D77*
X949850Y802640D02*
D03*
X967850D02*
D03*
X829200Y803910D02*
D03*
X847200D02*
D03*
D78*
X754380Y866140D02*
D03*
Y891540D02*
D03*
Y916940D02*
D03*
Y942340D02*
D03*
Y967740D02*
D03*
Y1069340D02*
D03*
Y1043940D02*
D03*
Y1018540D02*
D03*
Y993140D02*
D03*
Y1094740D02*
D03*
Y1120140D02*
D03*
Y1145540D02*
D03*
Y1170940D02*
D03*
Y1196340D02*
D03*
Y1221740D02*
D03*
Y1323340D02*
D03*
Y1297940D02*
D03*
Y1272540D02*
D03*
Y1247140D02*
D03*
X1052830Y873760D02*
D03*
Y899160D02*
D03*
Y924560D02*
D03*
Y949960D02*
D03*
Y975360D02*
D03*
Y1076960D02*
D03*
Y1051560D02*
D03*
Y1026160D02*
D03*
Y1000760D02*
D03*
Y1102360D02*
D03*
Y1127760D02*
D03*
Y1153160D02*
D03*
Y1178560D02*
D03*
Y1203960D02*
D03*
Y1229360D02*
D03*
Y1330960D02*
D03*
Y1305560D02*
D03*
Y1280160D02*
D03*
Y1254760D02*
D03*
D80*
X1334120Y967430D02*
D03*
Y909630D02*
D03*
M02*
